<svg width="245" height="180" viewBox="0 0 245 180" fill="none" xmlns="http://www.w3.org/2000/svg">
<path d="M245 90.5007C244.991 106.949 240.182 123.077 231.101 137.118C222.02 151.158 209.018 162.57 193.518 170.102C192.821 170.447 192.118 170.779 191.411 171.096L191.265 171.165L190.76 171.393C190.343 171.586 189.933 171.766 189.509 171.945C186.86 173.091 184.143 174.12 181.358 175.031C179.777 175.551 178.18 176.032 176.565 176.473L174.633 176.977C153.141 182.377 130.323 180.504 110.142 171.683C109.315 171.317 108.488 170.944 107.676 170.558L106.213 169.868C91.7287 162.707 79.442 152.15 70.5355 139.213C69.5989 137.864 68.7063 136.484 67.8575 135.071C67.1015 133.843 66.3698 132.598 65.6625 131.337C58.7882 118.703 55.2134 104.702 55.2359 90.5007C55.2359 88.8256 55.2846 87.1598 55.3822 85.5031C56.754 62.2301 67.6959 40.3802 85.8808 24.6004C104.066 8.82063 128.059 0.356107 152.757 1.00712C177.455 1.65814 200.909 11.3733 218.132 28.0864C235.354 44.7995 244.986 67.1917 244.978 90.5007H245Z" fill="url(#paint0_linear)"/>
<path d="M131.485 87.3179C131.485 87.3179 110.266 77.8267 108.422 64.7668C106.579 51.707 107.874 39.227 118.447 35.7342C118.447 35.7342 125.134 15.6198 148.841 23.7029C172.548 31.7859 168.809 56.0557 181.767 58.9617C194.725 61.8677 218.923 49.6293 223.539 64.5598C228.156 79.4902 212.974 78.5791 202.884 91.2524C192.794 103.926 208.379 110.58 205.525 119.305C202.672 128.03 191.894 134.028 191.894 134.028L131.485 87.3179Z" fill="url(#paint1_linear)"/>
<path d="M102.43 115.964L108.422 131.336H109.074L118.447 91.2524C112.527 96.1464 102.43 115.964 102.43 115.964Z" fill="url(#paint2_linear)"/>
<path d="M91.9082 137.169L88.1107 138.971C83.3986 141.635 76.3598 140.876 76.3598 140.876C80.1646 144.914 101.588 149.483 107.61 149.366L108.722 135.064H95.3764L91.9082 137.169Z" fill="url(#paint3_linear)"/>
<path d="M191.411 171.075L191.265 171.144L190.76 171.372C190.343 171.565 189.933 171.744 189.508 171.924C186.86 173.07 184.143 174.098 181.357 175.009C179.777 175.529 178.179 176.01 176.565 176.452L174.633 176.956C153.141 182.356 130.323 180.482 110.142 171.662C109.315 171.296 108.488 170.923 107.676 170.536L106.213 169.846C106.418 163.924 106.732 156.835 107.193 149.359C107.486 144.686 107.844 139.861 108.269 135.071C108.379 133.821 108.496 132.579 108.613 131.336C110.34 113.679 113.105 97.306 117.539 92.1014L117.605 92.0324C118.168 91.3015 118.962 90.7577 119.873 90.4793C126.276 89.0436 130.79 88.5604 131.5 87.3179C132.21 86.0754 131.5 83.6319 131.5 83.6319L132.773 83.4662C134.624 83.2039 138.217 82.6517 141.619 81.8234C141.641 81.8297 141.664 81.8297 141.685 81.8234C144.692 81.0848 147.539 80.1322 148.929 78.9864L151.783 86.1444C151.783 86.1444 173.243 83.5835 181.621 91.28C181.672 91.3159 181.719 91.3576 181.76 91.4043C181.848 91.4796 181.931 91.5603 182.009 91.6458C182.507 92.1431 182.951 92.6866 183.333 93.268C186.062 97.4096 187.994 114.031 189.333 132.061C189.64 136.203 189.918 140.482 190.16 144.672C190.716 154.35 191.133 163.724 191.411 171.075Z" fill="url(#paint4_linear)"/>
<path opacity="0.15" d="M191.265 171.165L190.76 171.392C190.343 171.586 189.933 171.765 189.508 171.945C186.86 173.09 184.143 174.119 181.357 175.03C179.777 175.55 178.179 176.031 176.565 176.473C166.68 166.54 162.758 153.646 162.758 153.646L190.145 144.672L191.265 171.165Z" fill="black"/>
<path d="M181.614 91.2524C191.528 100.433 193.686 119.705 191.857 134.049C190.028 148.393 186.633 161.825 179.579 161.411C172.526 160.997 148.117 145.024 138.685 136.313L144.195 126.339L164.126 134.173V113.293L181.614 91.2524Z" fill="url(#paint5_linear)"/>
<path d="M181.614 91.2524C191.528 100.433 193.686 119.705 191.857 134.049C190.028 148.393 186.633 161.825 179.579 161.411C172.526 160.997 148.117 145.024 138.685 136.313L144.195 126.339L164.126 134.173V113.293L181.614 91.2524Z" fill="url(#paint6_linear)"/>
<g filter="url(#filter0_d)">
<path d="M130.337 131.336H38.8825V135.071H130.337V131.336Z" fill="url(#paint7_linear)"/>
<path d="M90.5473 85.5025H21L38.8825 131.336H108.422L90.5473 85.5025Z" fill="url(#paint8_linear)"/>
</g>
<path d="M59.765 135.071C59.765 135.071 71.7648 140.738 79.389 140.876C87.0132 141.014 95.3838 135.071 95.3838 135.071H59.765Z" fill="url(#paint9_linear)"/>
<path d="M144.195 126.339C144.195 126.339 133.644 121.313 129.1 120.761C124.556 120.209 110.449 131.336 110.449 131.336H130.351L138.707 136.313L144.195 126.339Z" fill="url(#paint10_linear)"/>
<path d="M148.036 67.666C148.089 71.4457 148.382 75.2191 148.914 78.9656C144.195 81.4713 138.671 82.8173 132.759 83.4731L132.415 78.9656L132.21 76.2046V76.1148C131.07 76.0907 129.947 75.8562 128.903 75.4246C121.761 72.5185 120.225 58.3129 120.225 58.3129C123.086 58.2024 126.81 53.336 126.81 53.336C128.895 56.3456 138.568 62.1576 144.18 60.5976C149.792 59.0376 149.353 55.3033 149.353 55.3033C150.368 55.7071 151.246 56.3661 151.891 57.2084C152.537 58.0507 152.924 59.044 153.012 60.0799C153.312 63.7245 148.036 67.666 148.036 67.666Z" fill="url(#paint11_linear)"/>
<path opacity="0.15" d="M143.244 71.6764C141.919 73.7886 135.927 77.1502 132.422 78.9794L132.217 76.2184C132.437 76.2184 132.649 76.1494 132.854 76.1079C135.715 75.6302 138.461 74.6691 140.961 73.2709C140.991 73.2599 141.018 73.2435 141.041 73.2226C141.792 72.8037 142.496 72.3134 143.141 71.7593L143.244 71.6764Z" fill="black"/>
<path opacity="0.15" d="M155.902 130.95L171.428 136.941L164.111 131.964V113.327C164.111 113.327 161.821 129.521 155.902 130.95Z" fill="black"/>
<defs>
<filter id="filter0_d" x="0.961832" y="65.4643" width="162.772" height="103.003" filterUnits="userSpaceOnUse" color-interpolation-filters="sRGB">
<feFlood flood-opacity="0" result="BackgroundImageFix"/>
<feColorMatrix in="SourceAlpha" type="matrix" values="0 0 0 0 0 0 0 0 0 0 0 0 0 0 0 0 0 0 127 0"/>
<feOffset dx="6.67939" dy="6.67939"/>
<feGaussianBlur stdDeviation="13.3588"/>
<feColorMatrix type="matrix" values="0 0 0 0 0 0 0 0 0 0 0 0 0 0 0 0 0 0 0.2 0"/>
<feBlend mode="normal" in2="BackgroundImageFix" result="effect1_dropShadow"/>
<feBlend mode="normal" in="SourceGraphic" in2="effect1_dropShadow" result="shape"/>
</filter>
<linearGradient id="paint0_linear" x1="150.507" y1="10.6935" x2="147.618" y2="187.145" gradientUnits="userSpaceOnUse">
<stop stop-color="white" stop-opacity="0"/>
<stop offset="1" stop-color="#64B5F6" stop-opacity="0.6"/>
</linearGradient>
<linearGradient id="paint1_linear" x1="107.727" y1="77.9026" x2="224.403" y2="77.9026" gradientUnits="userSpaceOnUse">
<stop stop-color="#EF9A9A"/>
<stop offset="1" stop-color="#D81B60"/>
</linearGradient>
<linearGradient id="paint2_linear" x1="109.571" y1="112.885" x2="106.436" y2="150.668" gradientUnits="userSpaceOnUse">
<stop stop-color="#7E57C2"/>
<stop offset="1" stop-color="#4527A0"/>
</linearGradient>
<linearGradient id="paint3_linear" x1="9782.26" y1="3453.15" x2="9751.66" y2="4240.32" gradientUnits="userSpaceOnUse">
<stop stop-color="#7E57C2"/>
<stop offset="1" stop-color="#4527A0"/>
</linearGradient>
<linearGradient id="paint4_linear" x1="29207.3" y1="20301.8" x2="34691.3" y2="30961.9" gradientUnits="userSpaceOnUse">
<stop stop-color="#7E57C2"/>
<stop offset="1" stop-color="#4527A0"/>
</linearGradient>
<linearGradient id="paint5_linear" x1="20045.1" y1="13350.2" x2="24930.3" y2="21974.3" gradientUnits="userSpaceOnUse">
<stop stop-color="#7E57C2"/>
<stop offset="1" stop-color="#4527A0"/>
</linearGradient>
<linearGradient id="paint6_linear" x1="169.987" y1="99.0386" x2="162.538" y2="163.435" gradientUnits="userSpaceOnUse">
<stop offset="0.14" stop-color="#7E57C2" stop-opacity="0"/>
<stop offset="0.26" stop-color="#724DBB" stop-opacity="0.21"/>
<stop offset="0.48" stop-color="#5F3DAF" stop-opacity="0.55"/>
<stop offset="0.66" stop-color="#5131A7" stop-opacity="0.79"/>
<stop offset="0.81" stop-color="#482AA2" stop-opacity="0.94"/>
<stop offset="0.91" stop-color="#4527A0"/>
</linearGradient>
<linearGradient id="paint7_linear" x1="38.8825" y1="133.2" x2="130.337" y2="133.2" gradientUnits="userSpaceOnUse">
<stop stop-color="#D2D4D5"/>
<stop offset="1" stop-color="#AAACAE"/>
</linearGradient>
<linearGradient id="paint8_linear" x1="771.959" y1="5736.8" x2="5657.53" y2="11624.8" gradientUnits="userSpaceOnUse">
<stop stop-color="#D2D4D5"/>
<stop offset="1" stop-color="#AAACAE"/>
</linearGradient>
<linearGradient id="paint9_linear" x1="62.0333" y1="128.837" x2="90.7211" y2="141.873" gradientUnits="userSpaceOnUse">
<stop stop-color="#FFF8E1"/>
<stop offset="1" stop-color="#FFCC80"/>
</linearGradient>
<linearGradient id="paint10_linear" x1="11307.2" y1="4019.26" x2="12011.3" y2="4830.49" gradientUnits="userSpaceOnUse">
<stop stop-color="#FFF8E1"/>
<stop offset="1" stop-color="#FFCC80"/>
</linearGradient>
<linearGradient id="paint11_linear" x1="11550.5" y1="4409.35" x2="12154.5" y2="5611.22" gradientUnits="userSpaceOnUse">
<stop stop-color="#FFF8E1"/>
<stop offset="1" stop-color="#FFCC80"/>
</linearGradient>
</defs>
</svg>
