<svg width="249" height="179" viewBox="0 0 249 179" fill="none" xmlns="http://www.w3.org/2000/svg">
<path d="M248.994 89.5001C248.986 105.948 244.902 122.076 237.189 136.117C229.476 150.158 218.432 161.57 205.268 169.102C204.497 169.55 203.714 169.978 202.925 170.392C202.571 170.586 202.222 170.765 201.862 170.945C199.612 172.091 197.305 173.119 194.939 174.03C193.075 174.755 191.16 175.411 189.228 175.977C170.973 181.376 151.592 179.503 134.452 170.682C133.75 170.317 133.047 169.944 132.358 169.557C119.525 162.427 108.638 151.621 100.823 138.254C93.0085 124.887 88.5488 109.445 87.9048 93.5235C87.2609 77.6018 90.4561 61.7779 97.1604 47.6867C103.865 33.5955 113.835 21.7482 126.041 13.3689C138.247 4.98953 152.245 0.382062 166.591 0.0225377C180.936 -0.336987 195.108 3.56447 207.642 11.3238C220.175 19.0831 230.617 30.4189 237.886 44.1599C245.156 57.9008 248.991 73.5485 248.994 89.4863V89.5001Z" fill="url(#paint0_linear)"/>
<path d="M136.82 144.749L127.92 129.308C127.92 129.308 152.574 97.6521 155.041 95.7814C155.041 95.7814 142.606 118.954 136.82 144.749Z" fill="url(#paint1_linear)"/>
<path d="M127.92 129.308L111.141 145.874L80.2729 129.308L56.6573 130.743C56.6573 130.743 71.3673 136.266 75.5063 136.038L79.6515 135.81C79.6515 135.81 105.001 162.958 110.83 165.029C116.66 167.1 135.807 150.865 135.807 150.865L136.919 144.797L127.92 129.308Z" fill="url(#paint2_linear)"/>
<path d="M174.219 92.0333C171.888 93.2873 169.38 94.0903 166.805 94.4078C163.829 94.9048 159.304 93.0687 159.304 93.0687C162.722 90.0798 161.927 83.0322 161.927 83.0322L162.001 82.9908C165.649 82.6802 168.701 80.3816 170.832 78.1589C170.062 84.1919 174.219 92.0333 174.219 92.0333Z" fill="url(#paint3_linear)"/>
<path d="M174.219 69.5858V73.7274C173.248 75.3364 172.114 76.8163 170.839 78.1382C168.707 80.3678 165.656 82.6664 162.008 82.9701C160.351 83.1108 158.686 82.8396 157.135 82.1763C147.192 78.0347 154.183 56.1187 154.183 56.1187C157.34 47.2005 171.634 51.5146 171.634 51.5146C173.548 54.0479 173.915 61.1231 173.84 61.8134C173.522 62.7832 173.105 63.7095 172.597 64.5745C172.597 64.5745 175.313 61.7306 176.245 63.6219C177.178 65.5132 174.219 69.5858 174.219 69.5858Z" fill="url(#paint4_linear)"/>
<path d="M174.219 73.7412V69.5996C174.219 69.5996 177.171 65.5616 176.239 63.6564C175.307 61.7513 172.591 64.609 172.591 64.609C173.099 63.744 173.516 62.8177 173.834 61.8479C173.909 61.1577 173.598 54.4828 171.628 51.5491C171.628 51.5491 157.334 47.235 154.177 56.1532C154.177 56.1532 150.088 55.0005 146.564 49.5957C140.803 40.7534 147.683 39.6696 154.5 41.3746C162.772 43.4454 171.062 36.6532 180.54 43.5559C190.017 50.4585 181.522 66.1483 174.219 73.7412Z" fill="#262F72"/>
<path d="M195.716 125.38C199.967 139.434 203.117 155.703 205.268 169.102C204.497 169.55 203.714 169.978 202.925 170.392C202.571 170.586 202.223 170.765 201.862 170.945C199.612 172.09 197.305 173.119 194.939 174.03C193.075 174.755 191.16 175.411 189.228 175.977C170.973 181.376 151.592 179.503 134.452 170.682C133.75 170.316 133.048 169.944 132.358 169.557C133.601 162.468 135.08 154.137 136.814 144.756C137.443 141.355 138.104 137.816 138.796 134.14C142.357 115.302 147.465 105.045 151.685 99.4881L151.729 99.4329C152.53 98.3765 153.398 97.3847 154.326 96.4648C154.352 96.4314 154.382 96.4013 154.413 96.375C154.625 96.1679 154.836 95.9747 155.035 95.7883C157.577 93.4897 159.304 93.0686 159.304 93.0686L159.46 93.1308H159.547C160.896 93.7221 162.311 94.1098 163.754 94.2835H163.996H164.034C164.955 94.3815 165.882 94.3976 166.805 94.3318H166.861C169.426 94.1503 171.925 93.3493 174.182 91.9849C176.829 92.9574 179.323 94.3852 181.571 96.2163C187.997 101.455 200.942 120.666 200.942 120.666L195.716 125.38Z" fill="url(#paint5_linear)"/>
<path d="M219.387 151.61C219.35 153.529 217.778 157.422 215.478 162.144C212.234 164.743 208.819 167.069 205.261 169.102C204.491 169.55 203.708 169.978 202.919 170.392C202.564 170.586 202.216 170.765 201.856 170.945C199.606 172.09 197.298 173.119 194.933 174.03L200.936 152.777L185.4 134.657L195.71 125.38L200.936 120.679C200.936 120.679 219.549 144.19 219.387 151.61Z" fill="url(#paint6_linear)"/>
<path fill-rule="evenodd" clip-rule="evenodd" d="M64.6528 147.795L0.384613 143.823V106.455L64.6528 110.427V147.795Z" fill="#8F97B9" fill-opacity="0.23"/>
<path fill-rule="evenodd" clip-rule="evenodd" d="M64.6528 110.472L0.384613 106.442L59.1074 84.0757L123.376 88.1059L64.6528 110.472Z" fill="#E5E8F5"/>
<path fill-rule="evenodd" clip-rule="evenodd" d="M123.387 117.837L64.6837 147.733L64.6587 110.472L123.369 87.9391L123.387 117.837Z" fill="#BBC0D6"/>
<defs>
<linearGradient id="paint0_linear" x1="168.739" y1="9.71954" x2="165.339" y2="186.125" gradientUnits="userSpaceOnUse">
<stop stop-color="white" stop-opacity="0"/>
<stop offset="1" stop-color="#64B5F6" stop-opacity="0.6"/>
</linearGradient>
<linearGradient id="paint1_linear" x1="143.438" y1="92.4958" x2="137.704" y2="140.168" gradientUnits="userSpaceOnUse">
<stop stop-color="#42A5F5"/>
<stop offset="1" stop-color="#1565C0"/>
</linearGradient>
<linearGradient id="paint2_linear" x1="89.657" y1="142.823" x2="141.408" y2="148.998" gradientUnits="userSpaceOnUse">
<stop stop-color="#FFE082"/>
<stop offset="1" stop-color="#FFA726"/>
</linearGradient>
<linearGradient id="paint3_linear" x1="11603.8" y1="3450.52" x2="11608.3" y2="3140.18" gradientUnits="userSpaceOnUse">
<stop stop-color="#FFE082"/>
<stop offset="1" stop-color="#FFA726"/>
</linearGradient>
<linearGradient id="paint4_linear" x1="18458.7" y1="5527.05" x2="19434.8" y2="5527.05" gradientUnits="userSpaceOnUse">
<stop stop-color="#FFE082"/>
<stop offset="1" stop-color="#FFA726"/>
</linearGradient>
<linearGradient id="paint5_linear" x1="52872.6" y1="20481.4" x2="60804.3" y2="27400.7" gradientUnits="userSpaceOnUse">
<stop stop-color="#42A5F5"/>
<stop offset="1" stop-color="#1565C0"/>
</linearGradient>
<linearGradient id="paint6_linear" x1="28332.6" y1="16633.3" x2="27733.1" y2="13236.1" gradientUnits="userSpaceOnUse">
<stop stop-color="#FFE082"/>
<stop offset="1" stop-color="#FFA726"/>
</linearGradient>
</defs>
</svg>
