<svg width="840" height="618" viewBox="0 0 840 618" fill="none" xmlns="http://www.w3.org/2000/svg">
<g clip-path="url(#clip0)">
<path opacity="0.1" d="M487.626 92.6111C433.823 90.7468 382.575 73.3672 333.645 54.3684C284.715 35.3696 236.237 14.3135 183.727 4.24223C149.948 -2.23429 111.319 -3.13298 84.1058 14.9597C57.9101 32.3839 49.4505 62.4938 44.905 90.3829C41.4811 111.387 39.4683 133.461 48.8414 153.15C55.3551 166.794 66.9193 178.269 74.9184 191.341C102.733 236.84 83.0883 292.938 52.919 337.352C38.8073 358.193 22.3709 378.068 11.4603 400.253C0.549785 422.438 -4.50071 447.847 5.04324 470.47C14.5129 492.9 37.0619 509.745 61.49 521.591C111.111 545.655 169.585 552.548 226.604 556.447C352.829 565.048 479.723 561.334 606.275 557.621C653.111 556.232 700.148 554.828 746.226 547.587C771.805 543.568 798.216 537.188 816.784 521.777C840.366 502.214 846.211 469.088 830.406 444.534C803.906 403.395 730.621 393.175 712.098 349.02C701.9 324.719 712.373 297.646 727.19 275.105C758.979 226.746 812.261 184.33 815.069 129.056C817 91.0959 791.383 53.0761 751.781 35.1171C710.263 16.2892 652.703 18.6584 622.073 49.823C590.552 81.9159 535.13 94.2599 487.626 92.6111Z" fill="#6C63FF"/>
<path d="M493.3 561.415L348.469 559.558L348.893 555.844L355.897 494.57H483.087L492.446 555.844L493.159 560.486L493.3 561.415Z" fill="#D0D2D5"/>
<path opacity="0.1" d="M493.159 560.486H420.885L348.469 559.558L348.893 555.844H492.446L493.159 560.486Z" fill="black"/>
<path d="M516.51 556.773H324.331V561.415H516.51V556.773Z" fill="#D0D2D5"/>
<path d="M699.865 126.537C699.873 124.95 699.568 123.377 698.968 121.908C698.368 120.439 697.484 119.103 696.368 117.975C695.251 116.847 693.923 115.951 692.46 115.336C690.997 114.722 689.427 114.402 687.84 114.394H151.144C149.556 114.401 147.985 114.72 146.521 115.334C145.057 115.948 143.729 116.845 142.611 117.972C141.494 119.1 140.61 120.437 140.009 121.907C139.409 123.376 139.104 124.95 139.111 126.537V451.849H699.865V126.537Z" fill="#444053"/>
<path d="M139.111 448.618V486.719C139.111 489.91 140.379 492.971 142.636 495.227C144.892 497.484 147.952 498.751 151.144 498.751H687.841C691.03 498.749 694.089 497.481 696.344 495.225C698.599 492.968 699.865 489.909 699.865 486.719V448.618H139.111Z" fill="#D0D2D5"/>
<path opacity="0.1" d="M679.44 134.819H162.321V427.265H679.44V134.819Z" fill="#6C63FF"/>
<path d="M422.273 484.291C424.172 484.292 426.047 483.862 427.755 483.033C429.464 482.205 430.962 480.999 432.137 479.508C432.493 479.052 432.818 478.573 433.11 478.074L426.232 476.945L433.659 477.005C434.376 475.452 434.766 473.77 434.807 472.06C434.848 470.351 434.538 468.652 433.897 467.067L423.922 472.266L433.125 465.507C432.26 464.024 431.1 462.735 429.716 461.718C428.332 460.702 426.755 459.981 425.081 459.6C423.407 459.219 421.672 459.187 419.985 459.504C418.298 459.821 416.694 460.481 415.273 461.444C413.851 462.407 412.643 463.652 411.723 465.101C410.803 466.55 410.19 468.173 409.923 469.869C409.656 471.565 409.74 473.297 410.171 474.959C410.601 476.621 411.368 478.177 412.425 479.53C413.6 481.016 415.096 482.217 416.802 483.042C418.508 483.866 420.379 484.293 422.273 484.291Z" fill="#6C63FF"/>
<path opacity="0.1" d="M434.811 498.751L492.587 556.773L483.726 498.751H434.811Z" fill="black"/>
<path d="M515.002 187.581H179.441C178.375 187.581 177.51 188.446 177.51 189.512V389.156C177.51 390.222 178.375 391.087 179.441 391.087H515.002C516.069 391.087 516.933 390.222 516.933 389.156V189.512C516.933 188.446 516.069 187.581 515.002 187.581Z" fill="white"/>
<path d="M679.589 134.848H162.656V151.931H679.589V134.848Z" fill="white"/>
<path d="M179.159 137.819H165.463C165.143 137.819 164.884 138.079 164.884 138.398V147.638C164.884 147.958 165.143 148.217 165.463 148.217H179.159C179.479 148.217 179.738 147.958 179.738 147.638V138.398C179.738 138.079 179.479 137.819 179.159 137.819Z" fill="#6C63FF"/>
<path opacity="0.3" d="M497.192 137.819H342.082C341.844 137.819 341.651 138.012 341.651 138.25V147.786C341.651 148.024 341.844 148.217 342.082 148.217H497.192C497.43 148.217 497.623 148.024 497.623 147.786V138.25C497.623 138.012 497.43 137.819 497.192 137.819Z" fill="#6C63FF"/>
<path d="M492.995 144.088H492.617L492.475 143.969C492.952 143.403 493.215 142.688 493.218 141.949C493.214 141.341 493.029 140.749 492.689 140.246C492.348 139.743 491.866 139.352 491.303 139.123C490.74 138.894 490.122 138.837 489.527 138.958C488.932 139.08 488.386 139.376 487.959 139.807C487.531 140.239 487.241 140.787 487.125 141.384C487.009 141.98 487.072 142.597 487.307 143.158C487.541 143.718 487.937 144.197 488.443 144.533C488.949 144.869 489.543 145.047 490.151 145.046C490.89 145.041 491.605 144.779 492.171 144.303L492.312 144.422V144.808L494.689 147.185L495.431 146.442L492.995 144.088ZM490.143 144.088C489.718 144.089 489.302 143.964 488.948 143.729C488.594 143.494 488.318 143.159 488.154 142.766C487.991 142.374 487.948 141.941 488.03 141.524C488.113 141.107 488.317 140.724 488.618 140.423C488.919 140.123 489.302 139.918 489.719 139.836C490.136 139.753 490.568 139.796 490.961 139.96C491.353 140.123 491.688 140.399 491.924 140.753C492.159 141.107 492.284 141.523 492.282 141.949C492.284 142.23 492.23 142.509 492.123 142.77C492.017 143.03 491.859 143.267 491.66 143.466C491.461 143.665 491.225 143.822 490.964 143.929C490.704 144.036 490.425 144.09 490.143 144.088Z" fill="#444053"/>
<path d="M672.162 148.217C675.033 148.217 677.361 145.89 677.361 143.018C677.361 140.147 675.033 137.819 672.162 137.819C669.29 137.819 666.963 140.147 666.963 143.018C666.963 145.89 669.29 148.217 672.162 148.217Z" fill="#6C63FF"/>
<path d="M587.915 170.499H543.248C542.251 170.499 541.443 171.307 541.443 172.304V201.374C541.443 202.37 542.251 203.179 543.248 203.179H587.915C588.912 203.179 589.72 202.37 589.72 201.374V172.304C589.72 171.307 588.912 170.499 587.915 170.499Z" fill="white"/>
<path d="M664.281 170.499H602.799C602.549 170.499 602.346 170.702 602.346 170.952V175.245C602.346 175.495 602.549 175.698 602.799 175.698H664.281C664.532 175.698 664.735 175.495 664.735 175.245V170.952C664.735 170.702 664.532 170.499 664.281 170.499Z" fill="white"/>
<path d="M664.281 181.64H602.799C602.549 181.64 602.346 181.842 602.346 182.093V186.386C602.346 186.636 602.549 186.839 602.799 186.839H664.281C664.532 186.839 664.735 186.636 664.735 186.386V182.093C664.735 181.842 664.532 181.64 664.281 181.64Z" fill="white"/>
<path d="M664.281 192.78H602.799C602.549 192.78 602.346 192.983 602.346 193.233V197.526C602.346 197.777 602.549 197.979 602.799 197.979H664.281C664.532 197.979 664.735 197.777 664.735 197.526V193.233C664.735 192.983 664.532 192.78 664.281 192.78Z" fill="white"/>
<path d="M587.915 221.747H543.248C542.251 221.747 541.443 222.555 541.443 223.551V252.621C541.443 253.618 542.251 254.426 543.248 254.426H587.915C588.912 254.426 589.72 253.618 589.72 252.621V223.551C589.72 222.555 588.912 221.747 587.915 221.747Z" fill="white"/>
<path d="M664.281 221.747H602.799C602.549 221.747 602.346 221.949 602.346 222.2V226.492C602.346 226.743 602.549 226.946 602.799 226.946H664.281C664.532 226.946 664.735 226.743 664.735 226.492V222.2C664.735 221.949 664.532 221.747 664.281 221.747Z" fill="white"/>
<path d="M664.281 232.887H602.799C602.549 232.887 602.346 233.09 602.346 233.34V237.633C602.346 237.884 602.549 238.086 602.799 238.086H664.281C664.532 238.086 664.735 237.884 664.735 237.633V233.34C664.735 233.09 664.532 232.887 664.281 232.887Z" fill="white"/>
<path d="M664.244 244.028H602.836C602.565 244.028 602.346 244.248 602.346 244.518V248.737C602.346 249.008 602.565 249.227 602.836 249.227H664.244C664.515 249.227 664.735 249.008 664.735 248.737V244.518C664.735 244.248 664.515 244.028 664.244 244.028Z" fill="white"/>
<path d="M587.915 272.994H543.248C542.251 272.994 541.443 273.802 541.443 274.799V303.869C541.443 304.866 542.251 305.674 543.248 305.674H587.915C588.912 305.674 589.72 304.866 589.72 303.869V274.799C589.72 273.802 588.912 272.994 587.915 272.994Z" fill="white"/>
<path d="M664.244 272.994H602.836C602.565 272.994 602.346 273.214 602.346 273.484V277.703C602.346 277.974 602.565 278.193 602.836 278.193H664.244C664.515 278.193 664.735 277.974 664.735 277.703V273.484C664.735 273.214 664.515 272.994 664.244 272.994Z" fill="white"/>
<path d="M664.244 284.135H602.836C602.565 284.135 602.346 284.354 602.346 284.625V288.844C602.346 289.115 602.565 289.334 602.836 289.334H664.244C664.515 289.334 664.735 289.115 664.735 288.844V284.625C664.735 284.354 664.515 284.135 664.244 284.135Z" fill="white"/>
<path d="M664.244 295.276H602.836C602.565 295.276 602.346 295.495 602.346 295.766V299.985C602.346 300.255 602.565 300.475 602.836 300.475H664.244C664.515 300.475 664.735 300.255 664.735 299.985V295.766C664.735 295.495 664.515 295.276 664.244 295.276Z" fill="white"/>
<path d="M587.915 324.242H543.248C542.251 324.242 541.443 325.05 541.443 326.047V355.117C541.443 356.114 542.251 356.922 543.248 356.922H587.915C588.912 356.922 589.72 356.114 589.72 355.117V326.047C589.72 325.05 588.912 324.242 587.915 324.242Z" fill="white"/>
<path d="M664.244 324.242H602.836C602.565 324.242 602.346 324.461 602.346 324.732V328.951C602.346 329.221 602.565 329.441 602.836 329.441H664.244C664.515 329.441 664.735 329.221 664.735 328.951V324.732C664.735 324.461 664.515 324.242 664.244 324.242Z" fill="white"/>
<path d="M664.244 335.383H602.836C602.565 335.383 602.346 335.602 602.346 335.873V340.092C602.346 340.362 602.565 340.582 602.836 340.582H664.244C664.515 340.582 664.735 340.362 664.735 340.092V335.873C664.735 335.602 664.515 335.383 664.244 335.383Z" fill="white"/>
<path d="M664.244 346.523H602.836C602.565 346.523 602.346 346.743 602.346 347.014V351.232C602.346 351.503 602.565 351.723 602.836 351.723H664.244C664.515 351.723 664.735 351.503 664.735 351.232V347.014C664.735 346.743 664.515 346.523 664.244 346.523Z" fill="white"/>
<path d="M587.915 375.49H543.248C542.251 375.49 541.443 376.298 541.443 377.294V406.364C541.443 407.361 542.251 408.169 543.248 408.169H587.915C588.912 408.169 589.72 407.361 589.72 406.364V377.294C589.72 376.298 588.912 375.49 587.915 375.49Z" fill="white"/>
<path d="M664.244 375.49H602.836C602.565 375.49 602.346 375.709 602.346 375.98V380.198C602.346 380.469 602.565 380.689 602.836 380.689H664.244C664.515 380.689 664.735 380.469 664.735 380.198V375.98C664.735 375.709 664.515 375.49 664.244 375.49Z" fill="white"/>
<path d="M664.244 386.63H602.836C602.565 386.63 602.346 386.85 602.346 387.121V391.339C602.346 391.61 602.565 391.829 602.836 391.829H664.244C664.515 391.829 664.735 391.61 664.735 391.339V387.121C664.735 386.85 664.515 386.63 664.244 386.63Z" fill="white"/>
<path d="M664.244 397.771H602.836C602.565 397.771 602.346 397.991 602.346 398.261V402.48C602.346 402.751 602.565 402.97 602.836 402.97H664.244C664.515 402.97 664.735 402.751 664.735 402.48V398.261C664.735 397.991 664.515 397.771 664.244 397.771Z" fill="white"/>
<path opacity="0.1" d="M302.844 241.51H226.47V245.469H302.844V241.51Z" fill="#6C63FF"/>
<path opacity="0.1" d="M240.612 220.58H233.259V241.51H240.612V220.58Z" fill="#6C63FF"/>
<path opacity="0.1" d="M251.359 220.58H244.006V241.51H251.359V220.58Z" fill="#6C63FF"/>
<path opacity="0.1" d="M262.106 220.58H254.753V241.51H262.106V220.58Z" fill="#6C63FF"/>
<path opacity="0.1" d="M272.853 220.58H265.5V241.51H272.853V220.58Z" fill="#6C63FF"/>
<path opacity="0.1" d="M283.6 220.58H276.247V241.51H283.6V220.58Z" fill="#6C63FF"/>
<path opacity="0.1" d="M294.355 220.58H287.002V241.51H294.355V220.58Z" fill="#6C63FF"/>
<path opacity="0.1" d="M240.612 224.539H233.259V226.804H240.612V224.539Z" fill="#6C63FF"/>
<path opacity="0.1" d="M251.359 224.539H244.006V226.804H251.359V224.539Z" fill="#6C63FF"/>
<path opacity="0.1" d="M262.106 224.539H254.753V226.804H262.106V224.539Z" fill="#6C63FF"/>
<path opacity="0.1" d="M272.853 224.539H265.5V226.804H272.853V224.539Z" fill="#6C63FF"/>
<path opacity="0.1" d="M283.6 224.539H276.247V226.804H283.6V224.539Z" fill="#6C63FF"/>
<path opacity="0.1" d="M294.355 224.539H287.002V226.804H294.355V224.539Z" fill="#6C63FF"/>
<path opacity="0.1" d="M240.612 234.722H233.259V236.987H240.612V234.722Z" fill="#6C63FF"/>
<path opacity="0.1" d="M251.359 234.722H244.006V236.987H251.359V234.722Z" fill="#6C63FF"/>
<path opacity="0.1" d="M262.106 234.722H254.753V236.987H262.106V234.722Z" fill="#6C63FF"/>
<path opacity="0.1" d="M272.853 234.722H265.5V236.987H272.853V234.722Z" fill="#6C63FF"/>
<path opacity="0.1" d="M283.6 234.722H276.247V236.987H283.6V234.722Z" fill="#6C63FF"/>
<path opacity="0.1" d="M294.355 234.722H287.002V236.987H294.355V234.722Z" fill="#6C63FF"/>
<path opacity="0.1" d="M470.29 251.693H393.916V255.652H470.29V251.693Z" fill="#6C63FF"/>
<path opacity="0.1" d="M408.058 230.763H400.705V251.693H408.058V230.763Z" fill="#6C63FF"/>
<path opacity="0.1" d="M418.805 230.763H411.452V251.693H418.805V230.763Z" fill="#6C63FF"/>
<path opacity="0.1" d="M429.552 230.763H422.199V251.693H429.552V230.763Z" fill="#6C63FF"/>
<path opacity="0.1" d="M440.307 230.763H432.954V251.693H440.307V230.763Z" fill="#6C63FF"/>
<path opacity="0.1" d="M451.054 230.763H443.701V251.693H451.054V230.763Z" fill="#6C63FF"/>
<path opacity="0.1" d="M461.801 230.763H454.448V251.693H461.801V230.763Z" fill="#6C63FF"/>
<path opacity="0.1" d="M408.058 234.722H400.705V236.987H408.058V234.722Z" fill="#6C63FF"/>
<path opacity="0.1" d="M418.805 234.722H411.452V236.987H418.805V234.722Z" fill="#6C63FF"/>
<path opacity="0.1" d="M429.552 234.722H422.199V236.987H429.552V234.722Z" fill="#6C63FF"/>
<path opacity="0.1" d="M440.307 234.722H432.954V236.987H440.307V234.722Z" fill="#6C63FF"/>
<path opacity="0.1" d="M451.054 234.722H443.701V236.987H451.054V234.722Z" fill="#6C63FF"/>
<path opacity="0.1" d="M461.801 234.722H454.448V236.987H461.801V234.722Z" fill="#6C63FF"/>
<path opacity="0.1" d="M408.058 244.904H400.705V247.17H408.058V244.904Z" fill="#6C63FF"/>
<path opacity="0.1" d="M418.805 244.904H411.452V247.17H418.805V244.904Z" fill="#6C63FF"/>
<path opacity="0.1" d="M429.552 244.904H422.199V247.17H429.552V244.904Z" fill="#6C63FF"/>
<path opacity="0.1" d="M440.307 244.904H432.954V247.17H440.307V244.904Z" fill="#6C63FF"/>
<path opacity="0.1" d="M451.054 244.904H443.701V247.17H451.054V244.904Z" fill="#6C63FF"/>
<path opacity="0.1" d="M461.801 244.904H454.448V247.17H461.801V244.904Z" fill="#6C63FF"/>
<path opacity="0.1" d="M470.29 280.54H393.916V284.499H470.29V280.54Z" fill="#6C63FF"/>
<path opacity="0.1" d="M408.058 259.61H400.705V280.54H408.058V259.61Z" fill="#6C63FF"/>
<path opacity="0.1" d="M418.805 259.61H411.452V280.54H418.805V259.61Z" fill="#6C63FF"/>
<path opacity="0.1" d="M429.552 259.61H422.199V280.54H429.552V259.61Z" fill="#6C63FF"/>
<path opacity="0.1" d="M440.307 259.61H432.954V280.54H440.307V259.61Z" fill="#6C63FF"/>
<path opacity="0.1" d="M451.054 259.61H443.701V280.54H451.054V259.61Z" fill="#6C63FF"/>
<path opacity="0.1" d="M461.801 259.61H454.448V280.54H461.801V259.61Z" fill="#6C63FF"/>
<path opacity="0.1" d="M408.058 263.569H400.705V265.834H408.058V263.569Z" fill="#6C63FF"/>
<path opacity="0.1" d="M418.805 263.569H411.452V265.834H418.805V263.569Z" fill="#6C63FF"/>
<path opacity="0.1" d="M429.552 263.569H422.199V265.834H429.552V263.569Z" fill="#6C63FF"/>
<path opacity="0.1" d="M440.307 263.569H432.954V265.834H440.307V263.569Z" fill="#6C63FF"/>
<path opacity="0.1" d="M451.054 263.569H443.701V265.834H451.054V263.569Z" fill="#6C63FF"/>
<path opacity="0.1" d="M461.801 263.569H454.448V265.834H461.801V263.569Z" fill="#6C63FF"/>
<path opacity="0.1" d="M408.058 273.752H400.705V276.017H408.058V273.752Z" fill="#6C63FF"/>
<path opacity="0.1" d="M418.805 273.752H411.452V276.017H418.805V273.752Z" fill="#6C63FF"/>
<path opacity="0.1" d="M429.552 273.752H422.199V276.017H429.552V273.752Z" fill="#6C63FF"/>
<path opacity="0.1" d="M440.307 273.752H432.954V276.017H440.307V273.752Z" fill="#6C63FF"/>
<path opacity="0.1" d="M451.054 273.752H443.701V276.017H451.054V273.752Z" fill="#6C63FF"/>
<path opacity="0.1" d="M461.801 273.752H454.448V276.017H461.801V273.752Z" fill="#6C63FF"/>
<path opacity="0.1" d="M273.321 286.274C272.751 285.544 272.23 284.777 271.761 283.979L282.761 282.174L270.877 282.263C269.738 279.782 269.115 277.094 269.049 274.363C268.983 271.633 269.473 268.918 270.491 266.384L286.423 274.643L271.709 263.829C273.078 261.427 274.929 259.335 277.145 257.682C279.361 256.03 281.895 254.854 284.587 254.227C287.279 253.601 290.072 253.538 292.79 254.042C295.508 254.546 298.092 255.607 300.38 257.158C302.669 258.708 304.612 260.715 306.088 263.052C307.564 265.39 308.54 268.007 308.956 270.74C309.373 273.473 309.219 276.262 308.506 278.933C307.793 281.603 306.535 284.098 304.812 286.259C305.708 287.389 306.475 288.614 307.1 289.913L292.825 297.341L308.043 292.238C309.108 295.393 309.37 298.764 308.806 302.046C308.242 305.328 306.869 308.418 304.812 311.036C307.144 313.993 308.596 317.546 309.003 321.29C309.409 325.034 308.754 328.816 307.111 332.204C305.468 335.592 302.904 338.45 299.713 340.449C296.522 342.448 292.832 343.508 289.067 343.508C285.301 343.508 281.612 342.448 278.421 340.449C275.229 338.45 272.666 335.592 271.023 332.204C269.38 328.816 268.724 325.034 269.13 321.29C269.537 317.546 270.989 313.993 273.321 311.036C270.544 307.503 269.034 303.139 269.034 298.644C269.034 294.15 270.544 289.785 273.321 286.252V286.274Z" fill="#6C63FF"/>
<path opacity="0.1" d="M309.105 298.663C309.106 303.152 307.593 307.512 304.812 311.036C307.144 313.993 308.596 317.546 309.003 321.29C309.409 325.034 308.754 328.816 307.111 332.204C305.468 335.592 302.904 338.45 299.713 340.449C296.522 342.448 292.832 343.508 289.067 343.508C285.301 343.508 281.612 342.448 278.421 340.449C275.229 338.45 272.666 335.592 271.023 332.204C269.38 328.816 268.724 325.034 269.13 321.29C269.537 317.546 270.989 313.993 273.321 311.036C270.625 307.642 309.105 296.412 309.105 298.663Z" fill="#6C63FF"/>
<path opacity="0.2" d="M292.275 348.826C292.31 348.879 292.342 348.933 292.372 348.989H285.568C285.606 348.937 285.628 348.878 285.665 348.826C285.079 347.807 284.777 346.651 284.789 345.476C284.785 344.671 284.924 343.872 285.197 343.114C285.576 343.174 286.044 343.241 286.586 343.3C288.164 343.458 289.754 343.458 291.332 343.3C291.787 343.255 292.255 343.196 292.736 343.122C292.732 343.134 292.732 343.147 292.736 343.159C293.006 343.904 293.142 344.691 293.137 345.484C293.152 346.655 292.854 347.808 292.275 348.826Z" fill="#3F3D56"/>
<path opacity="0.1" d="M267.825 348.989H229.946C229.864 348.774 229.79 348.544 229.723 348.321C228.389 344.029 228.543 339.412 230.162 335.219C226.464 332.663 223.732 328.938 222.405 324.642C221.079 320.347 221.234 315.731 222.846 311.534C222.085 311.01 221.362 310.432 220.684 309.803L230.652 304.835L219.318 308.429C217.495 306.396 216.107 304.012 215.239 301.423C214.37 298.834 214.04 296.095 214.267 293.374L231.951 296.568L214.706 290.574C215.3 287.872 216.448 285.322 218.077 283.084C219.705 280.847 221.779 278.971 224.168 277.574C226.557 276.177 229.209 275.29 231.958 274.968C234.706 274.646 237.492 274.897 240.139 275.704C242.786 276.511 245.237 277.857 247.338 279.658C249.44 281.459 251.146 283.675 252.349 286.167C253.552 288.659 254.226 291.373 254.33 294.138C254.433 296.904 253.962 299.66 252.948 302.235C254.144 303.067 255.247 304.026 256.238 305.095L244.786 316.391L257.82 307.018C259.774 309.721 261.022 312.868 261.453 316.175C261.883 319.482 261.482 322.845 260.286 325.958C263.883 328.448 266.567 332.048 267.928 336.206C269.289 340.364 269.253 344.854 267.825 348.989Z" fill="#6C63FF"/>
<path opacity="0.1" d="M267.825 348.989H229.946C229.864 348.774 229.79 348.544 229.723 348.321C228.389 344.029 228.543 339.412 230.162 335.219C226.596 332.753 260.041 310.658 260.702 312.811C262.037 317.106 261.882 321.725 260.264 325.92C263.873 328.41 266.566 332.014 267.932 336.181C269.297 340.347 269.26 344.846 267.825 348.989Z" fill="#6C63FF"/>
<path opacity="0.1" d="M439.208 321.85C436.907 325.711 433.372 328.684 429.173 330.288C429.353 331.717 429.38 333.161 429.255 334.595L413.205 333.63L428.884 337.032C428.422 339.169 427.614 341.216 426.492 343.092C425.125 345.39 423.306 347.386 421.145 348.96H399.294V349.531H377.012C377.057 349.338 377.101 349.153 377.153 348.96C377.966 345.887 379.498 343.051 381.622 340.687C383.747 338.322 386.402 336.497 389.371 335.36C388.801 330.902 389.745 326.381 392.053 322.524C394.36 318.666 397.896 315.696 402.094 314.089C401.976 313.17 401.922 312.245 401.93 311.319L412.291 315.411L402.042 309.387C402.344 306.673 403.197 304.049 404.55 301.676C405.903 299.303 407.726 297.231 409.907 295.588L419.347 310.873L412.269 294.043C416.125 291.909 420.576 291.105 424.934 291.755C429.292 292.404 433.315 294.471 436.381 297.636C439.447 300.801 441.386 304.888 441.896 309.264C442.407 313.641 441.462 318.064 439.208 321.85Z" fill="#6C63FF"/>
<path opacity="0.1" d="M426.492 343.122C425.125 345.42 423.306 347.416 421.145 348.989H399.294V349.561H377.012C377.057 349.368 377.101 349.182 377.153 348.989C377.966 345.916 379.498 343.081 381.622 340.716C383.747 338.352 386.402 336.526 389.371 335.39C389.185 333.905 393.501 334.127 399.257 335.093C410.539 336.987 427.257 341.844 426.492 343.122Z" fill="#6C63FF"/>
<path d="M331.78 289.639C331.78 289.639 334.529 304.493 328.394 309.343C322.259 314.193 333.593 343.263 352.294 339.869C370.996 336.474 378.616 312.091 378.616 312.091C378.616 312.091 359.885 308.214 366.829 288.51L331.78 289.639Z" fill="#EE8E9E"/>
<path opacity="0.1" d="M331.78 289.639C331.78 289.639 334.529 304.493 328.394 309.343C322.259 314.193 333.593 343.263 352.294 339.869C370.996 336.474 378.616 312.091 378.616 312.091C378.616 312.091 359.885 308.214 366.829 288.51L331.78 289.639Z" fill="black"/>
<path d="M348.336 300.542C365.461 300.542 379.344 286.659 379.344 269.533C379.344 252.408 365.461 238.525 348.336 238.525C331.21 238.525 317.327 252.408 317.327 269.533C317.327 286.659 331.21 300.542 348.336 300.542Z" fill="#EE8E9E"/>
<path d="M399.294 328.483V349.561H296.902V329.441C296.902 326.89 297.654 324.395 299.063 322.268C300.473 320.141 302.477 318.477 304.827 317.483L307.761 316.235C315.188 313.071 324.212 309.142 327.161 307.508C327.484 307.347 327.788 307.15 328.067 306.922C329.679 305.31 329.359 307.404 329.359 307.404C329.359 307.404 329.315 307.805 329.285 308.496C329.107 313.242 329.79 331.892 351.648 330.34C372.972 328.854 373.93 314.431 373.714 310.19C373.702 309.797 373.67 309.405 373.618 309.016C375.093 309.367 376.536 309.839 377.933 310.427C382.389 312.076 388.97 314.72 390.73 315.968C391.28 316.354 391.948 316.755 392.676 317.164C393.502 317.624 394.274 318.175 394.979 318.805C396.337 320.025 397.423 321.517 398.166 323.185C398.91 324.852 399.294 326.657 399.294 328.483Z" fill="#6C63FF"/>
<path opacity="0.1" d="M377.933 310.427C376.128 318.79 370.461 334.454 350.037 334.863C328.275 335.294 327.012 313.651 327.153 307.508C327.481 307.351 327.788 307.154 328.067 306.922C329.686 305.31 329.359 307.404 329.359 307.404C329.359 307.404 326.619 332.115 351.641 330.34C376.663 328.564 373.588 309.024 373.588 309.024C373.588 308.905 375.452 309.551 377.933 310.427Z" fill="black"/>
<path d="M311.63 271.085C312.66 270.828 313.743 270.885 314.74 271.249C315.737 271.613 316.602 272.268 317.223 273.128C318.352 274.71 318.523 276.619 318.664 278.446C320.008 278.728 320.766 277.205 320.892 276.054C321.39 271.368 321.427 266.592 323.002 262.061C324.576 257.531 328.015 253.149 333.296 251.418C335.1 250.793 337.028 250.61 338.918 250.883C340.04 251.069 341.094 251.463 342.208 251.626C346.07 252.265 350.267 250.438 353.884 251.708C356.157 252.51 357.597 254.359 358.66 256.209C359.122 257.206 359.749 258.118 360.516 258.905C362.054 260.286 364.46 260.643 366.666 261.074C368.872 261.504 371.278 262.254 372.222 263.955C373.068 265.493 372.444 267.268 372.162 268.931C371.726 271.567 372.167 274.273 373.417 276.634C373.826 277.376 374.658 278.275 375.646 278.03C376.088 277.88 376.462 277.577 376.7 277.176C379.233 273.625 379.166 269.006 382.345 265.805C383.407 264.735 384.781 263.903 385.813 262.834C386.595 262.041 387.168 261.068 387.481 260C387.795 258.932 387.839 257.803 387.611 256.714C387.039 254.263 385.078 252.257 383.496 250.104C381.442 247.375 379.945 244.268 379.092 240.961C378.943 240.576 378.943 240.15 379.092 239.765C379.392 239.375 379.778 239.06 380.221 238.844C381.082 238.267 381.703 237.396 381.968 236.394C382.233 235.392 382.124 234.327 381.662 233.4C380.763 231.565 378.787 230.169 376.559 229.337C374.299 228.595 371.966 228.097 369.6 227.852C368.04 228.074 366.213 227.191 365.73 225.943C365.515 225.386 365.515 224.784 365.299 224.227C365.007 223.668 364.585 223.187 364.068 222.825C363.551 222.463 362.954 222.231 362.329 222.148C361 221.933 359.64 222.029 358.355 222.43C356.87 222.846 355.184 223.47 353.899 222.742C353.223 222.363 352.851 221.672 352.124 221.36C350.638 220.736 349.108 221.999 348.046 223.039C347.023 224.13 345.766 224.975 344.37 225.512C343.632 225.793 342.843 225.911 342.056 225.859C341.269 225.806 340.503 225.584 339.809 225.208C338.792 224.561 338.279 223.522 337.47 222.697C335.941 221.334 333.984 220.546 331.936 220.469C329.831 220.357 327.722 220.588 325.69 221.152C321.813 222.097 318.11 223.652 314.72 225.757C313.015 226.694 311.568 228.039 310.509 229.671C309.882 230.923 309.559 232.305 309.566 233.704C309.402 238.094 310.858 242.713 314.653 245.788C312.336 246.754 311.556 249.123 311.014 251.225C310.145 254.582 309.276 257.991 309.603 261.408C309.766 263.175 310.249 264.943 309.989 266.703C309.781 267.532 309.666 268.382 309.647 269.236C309.757 269.707 310.004 270.134 310.357 270.463C310.71 270.793 311.154 271.009 311.63 271.085Z" fill="#454B69"/>
<g opacity="0.1">
<path opacity="0.1" d="M387.128 255.332C386.795 256.06 386.343 256.728 385.791 257.308C384.759 258.392 383.385 259.232 382.323 260.279C379.144 263.458 379.211 268.107 376.678 271.657C376.441 272.059 376.066 272.36 375.623 272.504C374.658 272.757 373.826 271.88 373.395 271.108C372.904 270.167 372.533 269.169 372.288 268.137C372.236 268.397 372.184 268.657 372.14 268.88C371.703 271.515 372.144 274.221 373.395 276.582C373.804 277.324 374.635 278.223 375.623 277.978C376.066 277.828 376.44 277.525 376.678 277.124C379.211 273.574 379.144 268.954 382.323 265.753C383.385 264.683 384.759 263.851 385.791 262.782C386.572 261.989 387.145 261.016 387.459 259.948C387.773 258.88 387.817 257.751 387.588 256.662C387.474 256.206 387.32 255.761 387.128 255.332Z" fill="black"/>
<path opacity="0.1" d="M380.206 233.348C379.762 233.561 379.375 233.877 379.077 234.269C378.928 234.651 378.928 235.075 379.077 235.457C379.37 236.611 379.745 237.743 380.198 238.844C381.059 238.267 381.681 237.396 381.946 236.394C382.211 235.392 382.102 234.327 381.639 233.4C381.495 233.094 381.321 232.803 381.119 232.531C380.856 232.846 380.548 233.121 380.206 233.348Z" fill="black"/>
<path opacity="0.1" d="M314.699 240.233C312.067 238.065 310.334 234.997 309.834 231.625C309.701 232.29 309.626 232.966 309.611 233.645C309.441 236.888 310.296 240.102 312.055 242.832C312.587 241.67 313.528 240.745 314.699 240.233Z" fill="black"/>
<path opacity="0.1" d="M372.162 263.458C372.444 261.787 373.068 260.011 372.222 258.481C371.278 256.773 368.872 256.03 366.666 255.6C364.46 255.169 362.054 254.805 360.516 253.431C359.749 252.644 359.122 251.732 358.66 250.735C357.612 248.885 356.157 247.021 353.884 246.234C350.267 244.964 346.07 246.784 342.208 246.152C341.094 245.967 340.04 245.58 338.918 245.41C337.028 245.133 335.1 245.317 333.296 245.944C328.015 247.682 324.576 252.064 323.002 256.588C321.427 261.111 321.39 265.886 320.892 270.58C320.766 271.724 320.008 273.254 318.664 272.972C318.523 271.137 318.352 269.258 317.223 267.647C316.601 266.788 315.736 266.135 314.739 265.772C313.742 265.409 312.659 265.353 311.63 265.612C311.006 265.472 310.452 265.117 310.063 264.609C310.145 265.29 310.145 265.978 310.063 266.659C309.855 267.488 309.74 268.337 309.722 269.191C309.817 269.667 310.053 270.103 310.399 270.443C310.744 270.783 311.183 271.012 311.66 271.1C312.69 270.843 313.773 270.9 314.77 271.264C315.767 271.628 316.631 272.282 317.253 273.143C318.382 274.725 318.553 276.634 318.694 278.461C320.038 278.743 320.796 277.22 320.922 276.069C321.42 271.382 321.457 266.607 323.031 262.076C324.606 257.546 328.045 253.164 333.325 251.433C335.13 250.808 337.058 250.624 338.948 250.898C340.069 251.084 341.124 251.478 342.238 251.641C346.1 252.28 350.297 250.453 353.914 251.723C356.186 252.525 357.627 254.374 358.689 256.224C359.151 257.221 359.779 258.132 360.546 258.92C362.083 260.301 364.49 260.658 366.696 261.088C368.902 261.519 371.152 262.217 372.14 263.792C372.103 263.68 372.14 263.569 372.162 263.458Z" fill="black"/>
<path opacity="0.1" d="M310.034 261.148C310.156 259.764 310.073 258.37 309.789 257.011C309.571 258.446 309.524 259.902 309.647 261.348C309.647 261.72 309.729 262.091 309.781 262.455C309.863 262.017 309.974 261.586 310.034 261.148Z" fill="black"/>
</g>
<path d="M273.685 379.53V366.124C273.685 366.023 273.725 365.927 273.796 365.856C273.867 365.785 273.963 365.745 274.064 365.745H275.586C275.687 365.745 275.783 365.785 275.854 365.856C275.925 365.927 275.965 366.023 275.965 366.124V371.702L282.145 365.975C282.29 365.854 282.466 365.776 282.654 365.751C282.841 365.725 283.032 365.752 283.205 365.83C283.377 365.907 283.525 366.031 283.63 366.188C283.735 366.345 283.795 366.529 283.801 366.718V378.862C283.795 379.051 283.735 379.234 283.63 379.391C283.525 379.548 283.377 379.673 283.205 379.75C283.032 379.827 282.841 379.855 282.654 379.829C282.466 379.803 282.29 379.725 282.145 379.604L275.965 373.915V379.463C275.965 379.564 275.925 379.66 275.854 379.731C275.783 379.802 275.687 379.842 275.586 379.842H274.064C273.974 379.843 273.886 379.813 273.817 379.756C273.748 379.698 273.701 379.618 273.685 379.53Z" fill="#444053"/>
<path d="M422.994 366.124V379.53C422.994 379.58 422.984 379.63 422.964 379.677C422.945 379.723 422.916 379.765 422.88 379.8C422.844 379.836 422.802 379.863 422.755 379.882C422.708 379.901 422.658 379.91 422.608 379.909H421.122C421.022 379.909 420.926 379.869 420.854 379.798C420.783 379.727 420.744 379.63 420.744 379.53V373.952L414.564 379.671C414.418 379.791 414.241 379.869 414.054 379.894C413.866 379.919 413.675 379.892 413.502 379.815C413.329 379.738 413.181 379.614 413.075 379.457C412.969 379.301 412.908 379.117 412.9 378.928V366.74C412.908 366.551 412.969 366.368 413.075 366.211C413.181 366.055 413.329 365.931 413.502 365.854C413.675 365.777 413.866 365.749 414.054 365.775C414.241 365.8 414.418 365.877 414.564 365.998L420.744 371.687V366.146C420.744 366.046 420.783 365.949 420.854 365.878C420.926 365.807 421.022 365.767 421.122 365.767H422.608C422.706 365.765 422.801 365.801 422.873 365.868C422.945 365.934 422.988 366.026 422.994 366.124Z" fill="#444053"/>
<path d="M345.818 380.109H342.795C342.401 380.109 342.023 379.953 341.745 379.674C341.466 379.396 341.31 379.018 341.31 378.624V367.528C341.31 367.134 341.466 366.756 341.745 366.477C342.023 366.199 342.401 366.042 342.795 366.042H345.818C346.212 366.042 346.59 366.199 346.868 366.477C347.147 366.756 347.303 367.134 347.303 367.528V378.624C347.303 379.018 347.147 379.396 346.868 379.674C346.59 379.953 346.212 380.109 345.818 380.109ZM355.399 378.624V367.528C355.399 367.134 355.242 366.756 354.964 366.477C354.685 366.199 354.308 366.042 353.914 366.042H350.861C350.467 366.042 350.089 366.199 349.811 366.477C349.532 366.756 349.376 367.134 349.376 367.528V378.624C349.376 379.018 349.532 379.396 349.811 379.674C350.089 379.953 350.467 380.109 350.861 380.109H353.884C354.081 380.113 354.278 380.078 354.461 380.005C354.645 379.932 354.812 379.823 354.953 379.685C355.095 379.546 355.207 379.381 355.283 379.199C355.36 379.017 355.399 378.821 355.399 378.624Z" fill="#444053"/>
<path opacity="0.6" d="M437.462 348.053H259.209V350.037H437.462V348.053Z" fill="#444053"/>
<path d="M314.252 353.743C316.849 353.743 318.954 351.638 318.954 349.041C318.954 346.445 316.849 344.34 314.252 344.34C311.656 344.34 309.551 346.445 309.551 349.041C309.551 351.638 311.656 353.743 314.252 353.743Z" fill="#444053"/>
<path d="M314.252 348.053H259.209V350.037H314.252V348.053Z" fill="#444053"/>
<path d="M710.843 571.88C735.237 571.88 755.012 568.076 755.012 563.383C755.012 558.69 735.237 554.886 710.843 554.886C686.448 554.886 666.673 558.69 666.673 563.383C666.673 568.076 686.448 571.88 710.843 571.88Z" fill="#6C63FF"/>
<path d="M710.107 566.502C712.946 566.502 715.247 563.49 715.247 559.773C715.247 556.057 712.946 553.044 710.107 553.044C707.269 553.044 704.968 556.057 704.968 559.773C704.968 563.49 707.269 566.502 710.107 566.502Z" fill="#3F3D56"/>
<path d="M710.107 558.273C712.946 558.273 715.247 555.26 715.247 551.544C715.247 547.828 712.946 544.815 710.107 544.815C707.269 544.815 704.968 547.828 704.968 551.544C704.968 555.26 707.269 558.273 710.107 558.273Z" fill="#3F3D56"/>
<path d="M710.107 550.051C712.946 550.051 715.247 547.038 715.247 543.322C715.247 539.606 712.946 536.593 710.107 536.593C707.269 536.593 704.968 539.606 704.968 543.322C704.968 547.038 707.269 550.051 710.107 550.051Z" fill="#3F3D56"/>
<path d="M710.107 541.822C712.946 541.822 715.247 538.809 715.247 535.093C715.247 531.376 712.946 528.364 710.107 528.364C707.269 528.364 704.968 531.376 704.968 535.093C704.968 538.809 707.269 541.822 710.107 541.822Z" fill="#3F3D56"/>
<path d="M710.107 533.592C712.946 533.592 715.247 530.58 715.247 526.863C715.247 523.147 712.946 520.134 710.107 520.134C707.269 520.134 704.968 523.147 704.968 526.863C704.968 530.58 707.269 533.592 710.107 533.592Z" fill="#3F3D56"/>
<path d="M710.107 525.363C712.946 525.363 715.247 522.35 715.247 518.634C715.247 514.918 712.946 511.905 710.107 511.905C707.269 511.905 704.968 514.918 704.968 518.634C704.968 522.35 707.269 525.363 710.107 525.363Z" fill="#3F3D56"/>
<path d="M710.107 517.134C712.946 517.134 715.247 514.121 715.247 510.405C715.247 506.688 712.946 503.676 710.107 503.676C707.269 503.676 704.968 506.688 704.968 510.405C704.968 514.121 707.269 517.134 710.107 517.134Z" fill="#3F3D56"/>
<path d="M729.351 454.106C730.052 453.21 730.692 452.267 731.267 451.284L717.75 449.056L732.367 449.167C733.766 446.116 734.53 442.812 734.61 439.456C734.69 436.1 734.086 432.763 732.834 429.649L713.241 439.824L731.319 426.537C729.626 423.608 727.347 421.06 724.625 419.051C721.904 417.042 718.798 415.615 715.5 414.859C712.203 414.103 708.786 414.034 705.46 414.656C702.135 415.278 698.974 416.579 696.174 418.477C693.373 420.374 690.994 422.828 689.183 425.686C687.372 428.543 686.17 431.743 685.65 435.086C685.13 438.429 685.304 441.842 686.162 445.115C687.019 448.387 688.541 451.448 690.633 454.106C689.544 455.49 688.603 456.983 687.826 458.563L705.369 467.676L686.667 461.4C685.354 465.281 685.029 469.428 685.721 473.466C686.414 477.505 688.102 481.306 690.633 484.528C687.777 488.162 686.001 492.525 685.508 497.12C685.015 501.715 685.824 506.356 687.844 510.512C689.864 514.669 693.012 518.173 696.929 520.625C700.846 523.077 705.375 524.377 709.996 524.377C714.617 524.377 719.145 523.077 723.062 520.625C726.98 518.173 730.128 514.669 732.148 510.512C734.167 506.356 734.977 501.715 734.484 497.12C733.99 492.525 732.214 488.162 729.359 484.528C732.77 480.186 734.625 474.824 734.625 469.303C734.625 463.781 732.77 458.419 729.359 454.077L729.351 454.106Z" fill="#6C63FF"/>
<path opacity="0.1" d="M685.367 469.332C685.357 474.856 687.212 480.221 690.633 484.558C687.777 488.191 686.001 492.555 685.508 497.15C685.015 501.744 685.824 506.385 687.844 510.542C689.864 514.699 693.012 518.203 696.929 520.655C700.846 523.107 705.375 524.407 709.996 524.407C714.617 524.407 719.145 523.107 723.062 520.655C726.98 518.203 730.128 514.699 732.148 510.542C734.167 506.385 734.977 501.744 734.484 497.15C733.99 492.555 732.214 488.191 729.359 484.558C732.656 480.377 685.367 466.569 685.367 469.332Z" fill="black"/>
<path opacity="0.1" d="M215.389 617.616C255.998 617.616 288.918 610.633 288.918 602.019C288.918 593.405 255.998 586.422 215.389 586.422C174.78 586.422 141.86 593.405 141.86 602.019C141.86 610.633 174.78 617.616 215.389 617.616Z" fill="#6C63FF"/>
<path d="M240.01 600.207C238.525 599.665 236.935 599.754 235.383 599.583C232.16 599.211 229.159 597.755 226.871 595.454C225.4 593.966 224.243 592.198 223.47 590.255C223.96 590.433 224.45 590.618 224.955 590.819C223.47 587.35 225.029 583.459 226.396 579.953C228.713 574.011 230.904 568.037 232.969 562.031C238.168 546.813 242.624 530.985 242.528 514.794C242.528 508.942 241.451 503.408 241.243 497.563C241.087 493.226 241.755 488.896 241.726 484.551C241.726 483.942 241.726 483.34 241.681 482.731C243.01 481.568 244.054 480.115 244.732 478.485C245.411 476.855 245.706 475.09 245.595 473.328C245.52 472.41 245.388 471.497 245.202 470.595C244.939 469.028 244.591 467.476 244.162 465.945C243.672 464.334 243.003 462.789 242.431 461.214C241.325 458.162 240.574 454.983 239.631 451.878C239.981 451.914 240.322 452.007 240.641 452.153C240.403 451.874 240.24 451.539 240.166 451.18C239.611 449.204 239.312 447.165 239.275 445.112L239.906 444.83C240.19 442.826 240.087 440.786 239.601 438.821C239.958 435.635 240.515 432.426 240.857 429.255C240.983 428.067 240.931 426.574 239.839 426.284C239.616 424.583 239.527 422.86 239.438 421.145C239.126 415.158 238.817 409.174 238.51 403.193C238.198 397.184 237.886 391.183 237.767 385.167C237.685 381.35 237.641 377.398 236.735 373.744C236.891 371.993 236.712 370.229 236.207 368.545C234.826 364.171 230.533 360.702 226.181 360.947C224.883 359.09 223.278 357.467 221.435 356.149C222.304 354.203 223.343 352.198 224.197 350.623C231.164 348.358 236.259 341.488 236.259 333.318C236.27 330.327 235.57 327.377 234.217 324.71C234.345 324.382 234.454 324.047 234.544 323.707C234.917 322.103 234.8 320.424 234.209 318.887C234 318.297 233.752 317.721 233.467 317.164C233.274 316.792 233.066 316.421 232.85 316.065L232.471 315.493C232.241 315.144 232.003 314.809 231.729 314.483C231.201 313.774 230.636 313.095 230.035 312.447C229.296 311.647 228.48 310.921 227.599 310.279C226.405 309.391 225.039 308.761 223.588 308.429C222.75 308.264 221.896 308.187 221.041 308.199C220.528 308.199 220.009 308.199 219.496 308.244C218.456 308.303 217.424 308.377 216.391 308.37C216.05 308.37 215.701 308.37 215.359 308.318C213.542 308.076 211.745 307.701 209.982 307.196L209.091 307.011C208.786 306.951 208.489 306.899 208.184 306.862C207.37 306.753 206.548 306.704 205.726 306.714H204.902C204.078 306.753 203.258 306.838 202.443 306.966L201.626 307.092C199.563 307.416 197.552 308.013 195.647 308.868C195.402 308.979 195.15 309.105 194.905 309.239L194.756 309.321C194.556 309.425 194.355 309.536 194.162 309.655L194.05 309.722L193.419 310.123L193.367 310.16C187.47 314.126 183.987 321.642 183.103 329.099C182.115 337.47 183.845 345.907 185.576 354.144L187.136 361.571C187.203 361.905 187.277 362.232 187.344 362.566C185.151 364.366 183.464 366.705 182.449 369.355C180.964 373.068 180.927 377.086 181.045 381.112C181.045 381.929 181.09 382.746 181.172 383.563C180.986 385.108 180.823 386.66 180.719 388.22C180.251 395.424 181.127 402.666 180.897 409.885C180.719 415.448 179.879 421.026 180.288 426.552C180.644 431.454 181.959 436.207 183.259 440.938L185.13 447.682C185.191 448.031 185.354 448.354 185.598 448.61C185.906 448.817 186.282 448.894 186.646 448.826C185.428 451.591 184.41 454.441 183.6 457.352C183.041 459.135 182.672 460.973 182.501 462.833C182.256 466.235 183.043 469.615 183.831 472.92C185.019 477.871 186.202 482.842 187.381 487.833C188.213 491.324 189.042 494.813 189.869 498.298C191.503 505.176 193.144 512.098 193.449 519.176C193.619 522.731 193.369 526.293 192.706 529.79C190.563 540.26 190.252 551.023 191.785 561.6C193.025 570.524 195.035 579.324 197.794 587.9C198.395 587.581 199.004 587.284 199.628 587.009L199.368 587.492C198.512 588.977 197.72 590.5 196.992 592.059C196.501 593.073 196.077 594.117 195.722 595.186C194.771 598.157 194.622 601.321 194.489 604.448C194.421 605.049 194.474 605.658 194.645 606.238C195.053 607.359 196.227 607.931 197.318 608.243C200.527 609.157 203.862 608.83 207.197 608.399C207.212 608.473 207.234 608.545 207.263 608.615C207.672 609.736 208.838 610.308 209.937 610.62C214.527 611.927 219.37 610.694 224.101 610.249C228.832 609.803 233.481 610.13 238.034 609.038C238.713 608.893 239.365 608.642 239.965 608.295C241.136 607.476 241.995 606.285 242.402 604.916C242.544 604.561 242.639 604.189 242.684 603.809C242.869 602.183 241.481 600.749 240.01 600.207ZM224.301 531.424C224.045 533.164 223.545 534.859 222.816 536.459C219.243 544.057 216.681 552.09 215.196 560.353C214.221 565.811 213.657 571.335 213.51 576.878C213.435 580.963 213.591 585.241 211.891 588.91L212.507 588.814C212.314 589.17 212.128 589.556 211.95 589.839L211.861 590.002C210.832 588.25 210.144 586.32 209.833 584.313C209.833 584.246 209.499 584.194 208.987 584.164C206.887 572.432 206.159 560.496 206.818 548.595C206.828 547.152 207.028 545.716 207.412 544.325C207.791 543.129 208.43 542.037 208.897 540.879C209.639 538.932 210.138 536.901 210.383 534.833C211.192 529.546 211.505 524.195 211.319 518.849C211.14 513.806 212.307 508.793 213.302 503.772C213.777 501.388 214.215 498.996 214.453 496.605L214.498 496.122C218.916 503.412 222.005 511.429 223.618 519.8C224.515 523.606 224.746 527.539 224.301 531.424ZM192.513 424.086L192.751 424.294C193.469 424.925 194.13 425.619 194.726 426.366C195.023 426.691 195.237 427.084 195.35 427.51C195.573 428.594 194.674 429.515 193.939 430.31C193.62 430.654 193.32 431.016 193.04 431.394C192.882 428.958 192.714 426.522 192.535 424.086H192.513Z" fill="url(#paint0_linear)"/>
<path d="M182.234 377.532L181.417 383.838C181.142 385.977 180.867 388.108 180.719 390.255C180.221 397.4 181.142 404.575 180.904 411.734C180.711 417.245 179.835 422.749 180.258 428.252C180.637 433.11 182.018 437.834 183.4 442.513L185.361 449.197C185.428 449.546 185.599 449.867 185.851 450.118C186.229 450.342 186.677 450.413 187.106 450.319L195.811 449.531C195.254 446.976 194.637 444.332 194.325 441.711C194.088 439.661 193.946 437.596 193.798 435.531C193.337 429.099 192.81 422.667 192.313 416.22L191.384 404.931C190.99 400.029 190.582 395.105 189.349 390.344C188.112 385.535 185.662 381.124 182.234 377.532Z" fill="#6C63FF"/>
<path opacity="0.1" d="M182.234 377.532L181.417 383.838C181.142 385.977 180.867 388.108 180.719 390.255C180.221 397.4 181.142 404.575 180.904 411.734C180.711 417.245 179.835 422.749 180.258 428.252C180.637 433.11 182.018 437.834 183.4 442.513L185.361 449.197C185.428 449.546 185.599 449.867 185.851 450.118C186.229 450.342 186.677 450.413 187.106 450.319L195.811 449.531C195.254 446.976 194.637 444.332 194.325 441.711C194.088 439.661 193.946 437.596 193.798 435.531C193.337 429.099 192.81 422.667 192.313 416.22L191.384 404.931C190.99 400.029 190.582 395.105 189.349 390.344C188.112 385.535 185.662 381.124 182.234 377.532Z" fill="black"/>
<path d="M197.742 592.193C197.231 593.198 196.784 594.235 196.405 595.298C195.41 598.231 195.261 601.381 195.113 604.478C195.047 605.074 195.103 605.678 195.276 606.253C195.707 607.367 196.94 607.931 198.091 608.236C202.911 609.536 207.991 608.317 212.945 607.872C217.899 607.426 222.794 607.753 227.577 606.676C228.283 606.54 228.966 606.302 229.605 605.97C230.816 605.182 231.72 604.002 232.167 602.628C232.311 602.276 232.408 601.906 232.457 601.529C232.613 599.895 231.194 598.484 229.649 597.949C228.104 597.414 226.418 597.496 224.792 597.333C221.442 596.99 218.298 595.551 215.849 593.24C213.4 590.929 211.781 587.875 211.244 584.55C211.185 584.194 203.193 584.409 202.332 584.87C201.351 585.412 200.757 586.756 200.2 587.67C199.324 589.14 198.504 590.648 197.742 592.193Z" fill="#A26565"/>
<path opacity="0.1" d="M197.742 592.193C197.231 593.198 196.784 594.235 196.405 595.298C195.41 598.231 195.261 601.381 195.113 604.478C195.047 605.074 195.103 605.678 195.276 606.253C195.707 607.367 196.94 607.931 198.091 608.236C202.911 609.536 207.991 608.317 212.945 607.872C217.899 607.426 222.794 607.753 227.577 606.676C228.283 606.54 228.966 606.302 229.605 605.97C230.816 605.182 231.72 604.002 232.167 602.628C232.311 602.276 232.408 601.906 232.457 601.529C232.613 599.895 231.194 598.484 229.649 597.949C228.104 597.414 226.418 597.496 224.792 597.333C221.442 596.99 218.298 595.551 215.849 593.24C213.4 590.929 211.781 587.875 211.244 584.55C211.185 584.194 203.193 584.409 202.332 584.87C201.351 585.412 200.757 586.756 200.2 587.67C199.324 589.14 198.504 590.648 197.742 592.193Z" fill="black"/>
<path d="M210.999 594.555C210.485 595.556 210.039 596.591 209.662 597.652C208.66 600.623 208.511 603.735 208.37 606.832C208.301 607.429 208.357 608.033 208.534 608.607C208.957 609.721 210.19 610.286 211.341 610.598C216.161 611.89 221.249 610.672 226.195 610.226C231.142 609.781 236.051 610.107 240.827 609.03C241.537 608.887 242.22 608.637 242.855 608.288C244.067 607.501 244.972 606.321 245.417 604.946C245.561 604.593 245.658 604.224 245.707 603.846C245.863 602.22 244.444 600.801 242.899 600.266C241.354 599.732 239.668 599.821 238.042 599.65C234.693 599.306 231.551 597.869 229.102 595.559C226.653 593.25 225.034 590.198 224.495 586.875C224.435 586.519 216.443 586.727 215.582 587.187C214.594 587.729 214 589.074 213.443 589.987C212.596 591.495 211.764 593.01 210.999 594.555Z" fill="#A26565"/>
<path d="M245.558 515.656C245.662 531.706 240.998 547.392 235.524 562.447C233.355 568.419 231.055 574.338 228.624 580.206C227.183 583.681 225.557 587.544 227.102 590.975C222.645 589.282 218.115 588.286 213.428 589.066C215.211 585.427 215.04 581.193 215.121 577.183C215.273 571.686 215.859 566.21 216.874 560.806C218.447 552.581 221.144 544.611 224.888 537.12C225.645 535.541 226.168 533.859 226.441 532.129C227.05 528.312 226.574 524.39 225.779 520.61C224.07 512.26 220.821 504.301 216.198 497.14L216.154 497.615C215.876 500.004 215.475 502.376 214.951 504.723C213.903 509.692 212.678 514.668 212.864 519.666C213.057 524.967 212.729 530.273 211.883 535.509C211.611 537.564 211.074 539.577 210.286 541.495C209.774 542.646 209.105 543.723 208.704 544.919C208.303 546.295 208.093 547.719 208.08 549.152C207.486 561.236 208.08 573.506 210.546 585.353C206.409 585.026 202.272 586.222 198.574 588.078C195.682 579.598 193.569 570.872 192.261 562.009C190.649 551.526 190.976 540.837 193.226 530.473C193.927 527.017 194.189 523.486 194.006 519.964C193.687 512.945 191.963 506.082 190.248 499.264L187.633 488.866C186.396 483.914 185.158 478.985 183.92 474.078C183.095 470.803 182.264 467.453 182.523 464.081C182.705 462.231 183.093 460.408 183.682 458.645C185.536 452.648 188.31 446.975 191.904 441.829C206.216 442.631 220.699 441.295 234.982 440.195C235.674 440.059 236.393 440.18 237.002 440.537C237.489 441.032 237.779 441.686 237.819 442.379L243.189 472.831C244.058 477.063 244.568 481.361 244.711 485.68C244.711 489.987 244.043 494.28 244.206 498.581C244.429 504.374 245.528 509.855 245.558 515.656Z" fill="#454B69"/>
<path opacity="0.1" d="M216.169 497.615C215.891 500.004 215.49 502.376 214.965 504.723C211.853 499.338 208.496 494.087 205.629 488.569C204.887 487.15 204.189 485.709 203.483 484.268L201.366 479.961C200.973 479.151 200.579 478.341 200.222 477.517C199.642 476.333 199.196 475.087 198.893 473.803C199.933 473.61 202.503 476.418 203.275 477.153C204.851 478.713 206.338 480.36 207.731 482.085C209.423 484.002 210.977 486.038 212.381 488.175C214.178 491.08 215.46 494.274 216.169 497.615Z" fill="black"/>
<path d="M228.089 349.881C228.089 349.881 220.142 362.544 221.613 365.195C223.083 367.847 196.583 362.841 196.583 362.841C196.583 362.841 211.014 350.178 209.536 344.875C208.058 339.572 228.089 349.881 228.089 349.881Z" fill="#EFB7B9"/>
<path d="M221.026 353.713C230.949 353.713 238.992 345.669 238.992 335.747C238.992 325.824 230.949 317.78 221.026 317.78C211.104 317.78 203.06 325.824 203.06 335.747C203.06 345.669 211.104 353.713 221.026 353.713Z" fill="#EFB7B9"/>
<path d="M228.357 363.16C226.433 360.491 223.823 358.392 220.803 357.085C219.063 356.462 217.264 356.019 215.433 355.763L208.266 354.5C206.513 354.188 204.634 353.899 203 354.619C202.174 355.043 201.422 355.597 200.772 356.261C198.284 358.57 195.87 361.103 192.743 362.44C191.889 362.804 190.998 363.071 190.144 363.435C186.646 364.921 184.031 368.085 182.553 371.605C180.993 375.274 180.949 379.263 181.068 383.251C181.066 384.628 181.203 386.001 181.476 387.351C181.834 388.636 182.288 389.892 182.835 391.109C183.823 393.713 184.651 396.374 185.316 399.078C187.173 406.184 188.718 413.363 189.951 420.617C190.055 421.656 190.36 422.665 190.849 423.588C191.542 424.512 192.38 425.317 193.33 425.972C194.084 426.591 194.778 427.28 195.402 428.03C195.713 428.336 195.945 428.713 196.078 429.129C196.308 430.198 195.335 431.119 194.593 431.899C192.994 433.53 191.839 435.542 191.236 437.744C190.863 438.196 190.672 438.771 190.701 439.356C190.856 439.763 190.914 440.2 190.872 440.634C190.725 441.028 190.495 441.385 190.196 441.681C189.853 442.127 189.61 442.642 189.481 443.19C189.353 443.738 189.344 444.307 189.453 444.86C195.02 447.279 200.978 448.673 207.041 448.974C208.526 449.049 210.012 449.049 211.497 449.227C212.552 449.361 213.591 449.576 214.646 449.702C216.177 449.846 217.715 449.886 219.251 449.821C227.25 449.658 235.479 449.457 242.825 446.286C243.516 442.52 242.023 438.68 241.087 434.967C239.601 429.025 239.23 422.942 238.116 416.948C237.373 412.856 236.259 408.823 235.628 404.701C234.997 400.579 234.885 396.308 235.984 392.297C236.987 388.747 237.292 385.123 238.331 381.58C239.371 378.037 240.099 374.197 238.926 370.692C237.44 366.354 232.932 362.915 228.357 363.16Z" fill="#6C63FF"/>
<path d="M237.18 326.218C238.057 323.031 236.334 319.711 234.284 317.119C232.055 314.334 229.218 311.824 225.735 311.125C222.905 310.554 219.971 311.244 217.09 311.014C214.542 310.813 212.091 309.893 209.558 309.529C207.261 309.281 204.939 309.368 202.666 309.789C200.509 310.109 198.401 310.698 196.39 311.541C188.74 314.936 184.261 323.299 183.222 331.595C182.182 339.891 184.001 348.254 185.814 356.416L187.455 363.799C189.163 371.486 190.872 379.203 191.325 387.061C191.778 394.919 190.931 402.985 187.7 410.16C198.149 404.547 206.244 395.382 210.524 384.32C211.683 381.283 212.544 378.126 213.837 375.14C214.943 372.571 216.362 370.135 217.342 367.513C218.45 364.554 218.982 361.41 218.909 358.251C218.85 355.874 218.456 353.512 218.523 351.136C218.59 348.759 219.199 346.286 220.84 344.563C222.326 343.04 224.368 342.335 226.247 341.347C229.205 339.827 231.79 337.671 233.816 335.034C234.997 333.489 235.063 332.805 235.361 331.053C235.658 329.3 236.72 327.903 237.18 326.218Z" fill="#A26565"/>
<path d="M237.203 461.177C237.388 463.027 237.054 464.891 237.455 466.725C237.76 468.092 238.465 469.325 238.881 470.662C239.293 472.205 239.505 473.795 239.512 475.393C239.572 476.73 239.468 478.364 238.279 478.988C237.76 479.262 237.136 479.262 236.593 479.5C236.051 479.738 235.591 480.384 235.903 480.889C236.215 481.394 236.749 481.312 237.24 481.409C237.73 481.505 238.257 482.01 237.982 482.419C237.871 482.553 237.72 482.649 237.552 482.694C237.056 482.846 236.585 483.072 236.155 483.362C235.945 483.515 235.781 483.723 235.68 483.962C235.579 484.202 235.546 484.464 235.583 484.721C235.613 484.844 235.671 484.959 235.751 485.057C235.832 485.154 235.933 485.233 236.048 485.285C236.163 485.338 236.289 485.364 236.415 485.362C236.542 485.359 236.666 485.328 236.779 485.271C236.561 485.737 236.442 486.243 236.43 486.756C238.331 487.573 240.463 486.504 242.246 485.472C243.016 485.042 243.76 484.565 244.474 484.046C245.916 482.938 247.065 481.495 247.821 479.842C248.577 478.189 248.917 476.376 248.811 474.561C248.726 473.649 248.585 472.744 248.388 471.85C248.114 470.293 247.749 468.753 247.296 467.238C246.784 465.641 246.085 464.118 245.484 462.551C244.206 459.216 243.382 455.726 242.223 452.346C242.146 451.996 241.949 451.683 241.666 451.462C241.411 451.336 241.126 451.283 240.842 451.306C239.542 451.238 238.238 451.358 236.972 451.663C236.23 451.886 234.96 452.406 234.61 453.148C234.261 453.891 234.818 454.515 235.153 455.131C236.22 456.995 236.916 459.048 237.203 461.177Z" fill="#EFB7B9"/>
<path opacity="0.1" d="M235.992 370.929C236.373 371.32 236.694 371.765 236.943 372.251C239.498 376.893 239.527 382.441 239.646 387.737C239.78 393.679 240.107 399.621 240.433 405.599L241.406 423.425C241.503 425.126 241.592 426.826 241.837 428.512C242.981 428.802 243.025 430.287 242.899 431.483C242.075 438.747 240.032 446.226 242.156 453.215C242.238 453.574 242.41 453.906 242.654 454.181C241.575 453.843 240.421 453.827 239.334 454.136C238.272 454.359 237.247 454.753 236.178 454.998C234.826 455.302 233.296 455.436 232.375 456.483C231.331 453.344 230.5 450.138 229.887 446.887C229.382 443.916 229.241 440.856 228.037 438.108C227.555 437.002 226.901 435.977 226.307 434.915C223.195 429.359 221.665 423.083 220.172 416.889C219.502 413.952 219.341 410.923 219.697 407.932C219.913 406.567 220.037 405.19 220.068 403.809C219.978 402.352 219.786 400.903 219.496 399.472C218.865 395.272 219.162 390.985 220.365 386.913C221.479 383.132 222.46 379.151 224.821 375.972C227.183 372.793 232.048 370.981 235.992 370.929Z" fill="black"/>
<path d="M236.876 370.335C237.257 370.728 237.578 371.176 237.826 371.665C240.381 376.299 240.411 381.855 240.53 387.15C240.664 393.092 240.99 399.034 241.317 404.976L242.29 422.801C242.387 424.502 242.476 426.203 242.721 427.888C243.865 428.178 243.909 429.664 243.776 430.859C242.959 438.123 240.916 445.595 243.033 452.591C243.115 452.95 243.286 453.282 243.531 453.557C242.452 453.219 241.298 453.203 240.211 453.512C239.148 453.735 238.124 454.129 237.054 454.366C235.702 454.678 234.172 454.805 233.251 455.852C232.211 452.698 231.387 449.477 230.785 446.211C230.28 443.241 230.139 440.188 228.936 437.44C228.414 436.347 227.836 435.281 227.206 434.246C224.086 428.691 222.564 422.407 221.071 416.213C220.401 413.276 220.24 410.247 220.595 407.256C221.155 404.456 221.086 401.566 220.395 398.796C219.764 394.599 220.06 390.314 221.264 386.244C222.378 382.464 223.358 378.483 225.72 375.304C228.082 372.125 232.932 370.395 236.876 370.335Z" fill="#6C63FF"/>
<g opacity="0.1">
<path opacity="0.1" d="M234.284 317.119C232.055 314.334 229.218 311.824 225.735 311.125C222.905 310.554 219.971 311.244 217.09 311.014C214.542 310.813 212.091 309.893 209.558 309.529C207.261 309.281 204.939 309.368 202.666 309.789C200.509 310.109 198.401 310.698 196.39 311.541C195.304 312.028 194.267 312.617 193.293 313.302C195.083 312.606 196.943 312.108 198.841 311.816C201.111 311.396 203.431 311.308 205.726 311.556C208.266 311.883 210.71 312.797 213.265 312.997C216.139 313.227 219.073 312.544 221.91 313.109C225.393 313.807 228.245 316.324 230.451 319.11C232.509 321.694 234.224 325.014 233.355 328.208C232.895 329.887 231.825 331.357 231.536 333.088C231.246 334.818 231.172 335.524 229.983 337.069C228.46 339.05 226.617 340.764 224.532 342.141C225.104 341.874 225.69 341.607 226.247 341.317C229.205 339.797 231.79 337.641 233.816 335.004C234.997 333.459 235.063 332.776 235.361 331.023C235.658 329.27 236.72 327.829 237.18 326.143C238.057 323.031 236.334 319.711 234.284 317.119Z" fill="black"/>
<path opacity="0.1" d="M220.84 344.607C221.148 344.288 221.484 343.997 221.843 343.738C220.127 344.57 218.323 345.298 217.008 346.709C215.367 348.425 214.78 350.906 214.691 353.282C214.602 355.659 215.025 358.021 215.077 360.39C215.15 363.551 214.618 366.698 213.51 369.659C212.529 372.281 211.111 374.71 210.004 377.287C208.719 380.258 207.858 383.422 206.699 386.46C202.986 396.05 196.393 404.254 187.826 409.944C187.782 410.041 187.745 410.145 187.7 410.241C198.149 404.629 206.244 395.464 210.524 384.402C211.683 381.365 212.544 378.208 213.837 375.222C214.943 372.652 216.362 370.216 217.342 367.594C218.45 364.635 218.982 361.492 218.909 358.333C218.85 355.956 218.456 353.594 218.523 351.217C218.59 348.841 219.199 346.33 220.84 344.607Z" fill="black"/>
</g>
</g>
<defs>
<linearGradient id="paint0_linear" x1="212.923" y1="611.177" x2="212.923" y2="306.736" gradientUnits="userSpaceOnUse">
<stop stop-color="#808080" stop-opacity="0.25"/>
<stop offset="0.54" stop-color="#808080" stop-opacity="0.12"/>
<stop offset="1" stop-color="#808080" stop-opacity="0.1"/>
</linearGradient>
<clipPath id="clip0">
<rect width="839.274" height="617.616" fill="white"/>
</clipPath>
</defs>
</svg>
