<svg width="702" height="646" viewBox="0 0 702 646" fill="none" xmlns="http://www.w3.org/2000/svg">
<g opacity="0.35">
<path opacity="0.35" d="M288.136 264.86C287.579 264.857 287.043 264.661 286.637 264.311C286.23 263.961 285.982 263.482 285.942 262.971L284.854 248.807L270.27 254.976C269.754 255.114 269.202 255.074 268.716 254.864C268.23 254.654 267.843 254.289 267.628 253.836C267.413 253.383 267.385 252.874 267.548 252.403C267.711 251.933 268.055 251.533 268.515 251.278L286.065 243.978C286.388 243.841 286.742 243.779 287.097 243.796C287.451 243.813 287.796 243.909 288.102 244.075C288.408 244.242 288.665 244.475 288.851 244.753C289.037 245.032 289.147 245.348 289.171 245.674L290.47 262.744C290.494 263.01 290.46 263.278 290.37 263.531C290.28 263.784 290.136 264.019 289.947 264.22C289.757 264.422 289.526 264.587 289.266 264.705C289.006 264.823 288.723 264.892 288.434 264.909L288.136 264.86Z" fill="white"/>
</g>
<g opacity="0.35">
<path opacity="0.35" d="M149.579 388.666C149.147 388.666 148.726 388.548 148.368 388.327C147.88 388.03 147.54 387.568 147.422 387.042C147.304 386.515 147.416 385.967 147.736 385.517L196.876 316.508C197.087 316.215 197.377 315.977 197.718 315.818C198.059 315.658 198.439 315.583 198.821 315.6C199.203 315.616 199.574 315.723 199.897 315.91C200.221 316.098 200.486 316.359 200.667 316.669L209.442 331.624L238.68 276.31C238.852 275.984 239.117 275.706 239.445 275.505C239.774 275.304 240.155 275.188 240.549 275.168C240.942 275.148 241.335 275.226 241.685 275.392C242.036 275.559 242.331 275.809 242.541 276.117L253.404 292.057L277.29 256.252C277.597 255.796 278.089 255.471 278.656 255.348C279.224 255.225 279.822 255.315 280.317 255.598C280.813 255.881 281.166 256.333 281.3 256.855C281.433 257.378 281.335 257.928 281.028 258.384L255.159 296.966C254.961 297.257 254.687 297.498 254.363 297.667C254.038 297.837 253.672 297.929 253.299 297.935C252.927 297.932 252.562 297.843 252.237 297.676C251.912 297.51 251.638 297.271 251.439 296.982L240.804 281.365L211.565 336.97C211.389 337.305 211.115 337.59 210.775 337.792C210.434 337.994 210.04 338.106 209.635 338.116C209.232 338.113 208.837 338.012 208.49 337.825C208.142 337.639 207.853 337.371 207.652 337.05L198.578 321.579L151.386 387.794C151.184 388.063 150.914 388.283 150.599 388.435C150.285 388.587 149.934 388.666 149.579 388.666Z" fill="white"/>
</g>
<g opacity="0.35">
<path opacity="0.35" d="M584.959 297.273C584.417 297.275 583.892 297.104 583.473 296.789C583.053 296.473 582.766 296.034 582.66 295.545L577.939 272.935L555.721 285.306C555.19 285.601 554.554 285.691 553.951 285.555C553.349 285.418 552.83 285.067 552.509 284.579C552.188 284.091 552.091 283.505 552.239 282.951C552.387 282.397 552.768 281.919 553.299 281.624L578.395 267.638C578.719 267.461 579.084 267.359 579.46 267.339C579.835 267.32 580.211 267.383 580.554 267.525C580.91 267.666 581.22 267.889 581.457 268.171C581.693 268.454 581.848 268.787 581.905 269.14L587.17 294.802C587.289 295.361 587.161 295.94 586.816 296.413C586.47 296.885 585.935 297.212 585.328 297.321C585.203 297.316 585.08 297.3 584.959 297.273Z" fill="white"/>
</g>
<g opacity="0.35">
<path opacity="0.35" d="M395.296 489.184C394.982 489.187 394.67 489.126 394.384 489.006C393.851 488.781 393.437 488.37 393.233 487.865C393.029 487.359 393.051 486.799 393.296 486.309L436.012 401.021C436.183 400.655 436.472 400.346 436.839 400.136C437.205 399.925 437.634 399.823 438.066 399.842C438.5 399.854 438.92 399.983 439.276 400.213C439.631 400.442 439.906 400.763 440.066 401.134L449.175 422.484L474.921 353.039C475.07 352.611 475.371 352.24 475.776 351.987C476.181 351.734 476.666 351.613 477.154 351.643C477.642 351.672 478.105 351.851 478.47 352.151C478.835 352.451 479.081 352.855 479.168 353.297L488.89 397.823L514.04 316.282C514.168 315.871 514.434 315.508 514.799 315.244C515.165 314.98 515.611 314.829 516.075 314.812C516.542 314.79 517.004 314.907 517.393 315.146C517.781 315.384 518.076 315.732 518.234 316.136L533.801 354.896L567.918 286.937C568.202 286.528 568.635 286.226 569.14 286.086C569.644 285.945 570.187 285.975 570.669 286.169C571.152 286.364 571.544 286.711 571.773 287.148C572.002 287.585 572.054 288.083 571.919 288.552L535.573 360.953C535.392 361.316 535.098 361.622 534.728 361.832C534.357 362.041 533.928 362.145 533.493 362.129C533.059 362.114 532.64 361.98 532.288 361.744C531.937 361.509 531.669 361.183 531.519 360.807L516.444 323.323L490.645 406.98C490.52 407.425 490.233 407.818 489.832 408.093C489.431 408.368 488.94 408.508 488.441 408.492C487.941 408.475 487.463 408.301 487.085 408C486.707 407.698 486.452 407.287 486.363 406.835L476.447 361.453L451.404 429.025C451.259 429.419 450.986 429.762 450.622 430.008C450.257 430.253 449.819 430.39 449.368 430.398C448.924 430.397 448.491 430.273 448.125 430.042C447.759 429.812 447.476 429.486 447.314 429.106L437.855 406.98L397.297 487.94C397.132 488.305 396.855 488.617 396.499 488.838C396.144 489.059 395.725 489.179 395.296 489.184Z" fill="white"/>
</g>
<path opacity="0.31" d="M575.429 224.856L612.284 221.901C621.428 221.158 625.798 210.79 619.199 204.927C618.093 203.954 616.784 203.196 615.351 202.7C613.919 202.203 612.392 201.977 610.863 202.037C608.236 201.998 605.667 202.752 603.55 204.184C601.432 205.616 599.883 207.647 599.139 209.966C599.139 209.966 598.069 189.682 584.433 194.398C570.393 199.243 580.923 213.374 580.923 213.374C580.923 213.374 568.199 215.732 568.725 220.092C569.252 224.453 575.429 224.856 575.429 224.856Z" fill="url(#paint0_linear)"/>
<path opacity="0.31" d="M238.68 133.254L267.76 130.912C269.386 130.796 270.941 130.256 272.244 129.355C273.547 128.454 274.544 127.229 275.117 125.825C275.69 124.421 275.816 122.896 275.48 121.428C275.143 119.96 274.359 118.611 273.218 117.54C272.345 116.77 271.312 116.171 270.181 115.777C269.051 115.383 267.845 115.202 266.637 115.246C264.566 115.217 262.541 115.812 260.871 116.94C259.201 118.069 257.978 119.669 257.388 121.496C257.388 121.496 256.546 105.508 245.788 109.222C234.766 113.018 243.032 124.193 243.032 124.193C243.032 124.193 232.994 126.051 233.415 129.491C233.836 132.931 238.68 133.254 238.68 133.254Z" fill="url(#paint1_linear)"/>
<path opacity="0.31" d="M126.571 325.519L222.657 329.864C222.657 329.864 242.98 318.559 241.716 303.749C240.453 288.94 211.232 297.596 208.371 299.631C205.511 301.666 213.636 263.73 175.202 259.967C136.767 256.204 151.965 306.656 145.998 306.527C140.031 306.398 129.115 296.837 121.323 300.067C113.531 303.297 114.566 317.654 126.571 325.519Z" fill="url(#paint2_linear)"/>
<path opacity="0.31" d="M503.966 435.016L597.718 430.43C597.718 430.43 613.25 419.674 606.247 409.935C595.875 395.4 569.094 408.805 566.654 410.614C564.215 412.423 567.251 378.055 536.819 383.643C504.685 389.538 522.376 423.744 520.41 418.705C517.374 411.001 509.88 409.548 502.772 412.616C495.665 415.685 491.295 429.913 503.966 435.016Z" fill="url(#paint3_linear)"/>
<path d="M183.661 157.366C183.661 157.366 196.7 153.7 204.352 146.238C213.127 137.76 212.636 132.398 212.636 132.398L238.522 143.816C238.522 143.816 238.522 148.192 231.59 157.85C226.848 164.948 219.7 170.413 211.249 173.403C209.951 173.871 209.178 174.097 209.178 174.097L183.661 157.366Z" fill="#C5FFF4"/>
<path d="M213.18 167.508L195.191 156.865L213.18 167.508Z" fill="#004E15"/>
<path d="M195.108 156.368L194.483 157.263L212.439 167.886L213.064 166.99L195.108 156.368Z" fill="white"/>
<path d="M218.55 164.1L200.807 153.716L218.55 164.1Z" fill="#004E15"/>
<path d="M218.234 164.552L200.491 154.152L201.123 153.263L218.848 163.648L218.234 164.552Z" fill="white"/>
<path d="M223.254 159.724L206.09 150.195L223.254 159.724Z" fill="#004E15"/>
<path d="M206.388 149.78L205.79 150.694L222.946 160.198L223.543 159.285L206.388 149.78Z" fill="white"/>
<path d="M227.553 154.749L211.355 146.125L227.553 154.749Z" fill="#004E15"/>
<path d="M211.641 145.653L211.061 146.575L227.266 155.209L227.847 154.287L211.641 145.653Z" fill="white"/>
<path d="M231.888 148.903L215.04 141.506L231.888 148.903Z" fill="#004E15"/>
<path d="M215.297 141.036L214.798 141.998L231.665 149.408L232.164 148.446L215.297 141.036Z" fill="white"/>
<path d="M193.489 228.345C193.489 228.345 207.125 228.167 216.725 222.967C227.641 217.04 228.87 211.791 228.87 211.791L250.281 229.33C250.281 229.33 248.947 233.545 239.364 241.039C232.663 246.623 224.154 250.028 215.145 250.729C213.741 250.842 212.934 250.858 212.934 250.858L193.489 228.345Z" fill="#C5FFF4"/>
<path d="M218.761 245.658L204.721 230.832L218.761 245.658Z" fill="#004E15"/>
<path d="M205.15 230.466L204.277 231.167L218.32 245.996L219.193 245.296L205.15 230.466Z" fill="white"/>
<path d="M224.956 243.752L211.056 229.217L224.956 243.752Z" fill="#004E15"/>
<path d="M224.517 244.107L210.618 229.588L211.495 228.878L225.395 243.413L224.517 244.107Z" fill="white"/>
<path d="M230.8 240.764L217.181 227.23L230.8 240.764Z" fill="#004E15"/>
<path d="M217.607 226.842L216.757 227.566L230.363 241.086L231.213 240.362L217.607 226.842Z" fill="white"/>
<path d="M236.434 237.082L223.482 224.646L236.434 237.082Z" fill="#004E15"/>
<path d="M223.901 224.288L223.064 225.026L236.018 237.469L236.855 236.732L223.901 224.288Z" fill="white"/>
<path d="M242.366 232.56L228.413 221.126L242.366 232.56Z" fill="#004E15"/>
<path d="M228.798 220.727L228.028 221.523L241.99 232.959L242.76 232.162L228.798 220.727Z" fill="white"/>
<path d="M155.265 184.53C155.265 184.53 159.968 196.303 168.48 202.908C178.185 210.434 183.977 209.756 183.977 209.756L173.043 234.175C173.043 234.175 168.269 234.401 157.424 228.587C149.465 224.64 143.133 218.399 139.4 210.822C138.821 209.659 138.54 208.965 138.54 208.965L155.265 184.53Z" fill="#C5FFF4"/>
<path d="M145.893 212.211L156.423 195.092L145.893 212.211Z" fill="#004E15"/>
<path d="M155.932 194.836L145.386 211.946L146.394 212.472L156.939 195.362L155.932 194.836Z" fill="white"/>
<path d="M149.895 216.959L160.179 200.082L149.895 216.959Z" fill="#004E15"/>
<path d="M149.403 216.701L159.67 199.808L160.688 200.341L150.403 217.218L149.403 216.701Z" fill="white"/>
<path d="M154.914 221.029L164.268 204.734L154.914 221.029Z" fill="#004E15"/>
<path d="M163.755 204.481L154.407 220.777L155.431 221.275L164.779 204.979L163.755 204.481Z" fill="white"/>
<path d="M160.547 224.711L169.007 209.353L160.547 224.711Z" fill="#004E15"/>
<path d="M168.482 209.096L160.021 224.469L161.055 224.95L169.515 209.577L168.482 209.096Z" fill="white"/>
<path d="M167.129 228.361L174.149 212.469L167.129 228.361Z" fill="#004E15"/>
<path d="M173.696 212.251L166.603 228.165L167.675 228.569L174.767 212.656L173.696 212.251Z" fill="white"/>
<path d="M182.362 557.466C181.836 556.012 181.292 554.575 180.607 553.17C181.449 553.622 182.362 554.058 183.169 554.478C182.924 555.463 182.643 556.464 182.362 557.466Z" fill="url(#paint4_linear)"/>
<path d="M525.693 632.66C525.412 628.231 523.441 624.035 520.128 620.812C516.814 617.59 512.37 615.547 507.579 615.045C502.789 614.543 497.96 615.614 493.943 618.068C489.927 620.523 486.981 624.203 485.626 628.461C476.306 623.993 465.949 621.666 455.44 621.678C454.054 621.678 452.667 621.678 451.298 621.807V621.678C451.313 616.091 449.846 610.585 447.026 605.638C444.205 600.69 440.116 596.45 435.113 593.286C430.109 590.122 424.343 588.128 418.313 587.478C412.283 586.828 406.171 587.541 400.509 589.556C400.606 588.789 400.659 588.018 400.666 587.246C400.662 583.85 399.66 580.519 397.767 577.604C395.873 574.689 393.158 572.3 389.909 570.689C386.66 569.079 382.999 568.306 379.312 568.454C375.625 568.602 372.05 569.665 368.966 571.529C365.882 573.394 363.403 575.992 361.792 579.047C360.182 582.102 359.498 585.502 359.816 588.885C360.133 592.268 361.438 595.51 363.594 598.266C365.749 601.023 368.674 603.191 372.06 604.543H371.621C366.007 604.543 360.494 605.92 355.651 608.532C354.535 601.053 351.001 594.056 345.509 588.449C340.016 582.841 332.819 578.883 324.85 577.088C324.85 575.844 324.973 574.585 324.973 573.325C324.997 556.545 318.097 540.383 305.668 528.105C294.956 517.551 287.771 504.383 284.97 490.173C282.169 475.964 283.871 461.312 289.873 447.969L290.189 447.29C307.125 410.807 344.436 372.387 352.386 362.567C352.663 362.264 352.869 361.91 352.99 361.53C353.111 361.149 353.146 360.75 353.091 360.357C353.037 359.963 352.894 359.585 352.673 359.244C352.452 358.904 352.157 358.61 351.806 358.38C351.455 358.149 351.056 357.989 350.634 357.907C350.213 357.826 349.777 357.825 349.356 357.906C348.934 357.987 348.535 358.147 348.183 358.377C347.832 358.607 347.536 358.901 347.314 359.24C340.294 367.784 309.88 400.633 267.813 426.489C253.773 435.081 233.503 438.198 214.092 438.844C190.681 439.619 168.041 432.19 149.298 419.254C141.141 413.634 131.71 409.782 121.709 407.987C111.708 406.191 101.395 406.499 91.5408 408.886C91.7028 407.529 91.7848 406.165 91.7865 404.8C91.7842 396.497 88.6674 388.45 82.9629 382.018C77.2584 375.585 69.3159 371.162 60.4773 369.496C60.6717 368.217 60.7772 366.927 60.7932 365.636C60.7712 358.978 58.2662 352.528 53.697 347.366C49.1277 342.203 42.7711 338.641 35.69 337.274C28.6088 335.906 21.2322 336.818 14.7935 339.855C8.35471 342.892 3.24406 347.871 0.315903 353.959V646H279.993C280.778 642.687 281.289 639.323 281.52 635.938C282.815 637.608 284.253 639.179 285.819 640.638C288.049 642.682 290.528 644.481 293.208 646H336.627C338.326 645.036 339.945 643.956 341.47 642.77C341.872 643.87 342.34 644.949 342.874 646H520.761C524.234 642.316 526.004 637.528 525.693 632.66Z" fill="url(#paint5_linear)"/>
<path d="M30.3089 328.766C36.328 328.766 41.2074 324.275 41.2074 318.736C41.2074 313.197 36.328 308.707 30.3089 308.707C24.2897 308.707 19.4103 313.197 19.4103 318.736C19.4103 324.275 24.2897 328.766 30.3089 328.766Z" fill="#4758A5" fill-opacity="0.44"/>
<path d="M108.915 400.746C114.934 400.746 119.814 396.256 119.814 390.717C119.814 385.178 114.934 380.688 108.915 380.688C102.896 380.688 98.0167 385.178 98.0167 390.717C98.0167 396.256 102.896 400.746 108.915 400.746Z" fill="#4758A5" fill-opacity="0.44"/>
<path d="M119.52 458.531C128.829 457.141 135.151 449.069 133.64 440.503C132.128 431.936 123.357 426.119 114.048 427.51C104.739 428.9 98.4174 436.972 99.9285 445.538C101.44 454.105 110.211 459.922 119.52 458.531Z" fill="#4758A5" fill-opacity="0.44"/>
<path d="M413.143 646C413.235 645.276 413.282 644.547 413.284 643.818C413.28 639.636 411.846 635.562 409.185 632.17C406.524 628.778 402.77 626.241 398.455 624.917C394.139 623.593 389.48 623.549 385.136 624.792C380.791 626.035 376.982 628.501 374.246 631.842C373.222 630.494 372.075 629.229 370.818 628.06C366.119 623.736 360.031 620.916 353.454 620.017C346.877 619.117 340.16 620.187 334.295 623.066C334.923 620.166 335.241 617.216 335.245 614.258C335.245 602.385 330.113 590.998 320.978 582.602C311.844 574.206 299.454 569.49 286.536 569.49H285.727C288.944 568.144 291.534 565.788 293.032 562.845C294.529 559.903 294.836 556.565 293.898 553.433C292.959 550.301 290.836 547.579 287.911 545.756C284.985 543.933 281.448 543.128 277.935 543.486C274.422 543.844 271.162 545.342 268.742 547.71C266.322 550.078 264.9 553.161 264.731 556.406C264.562 559.651 265.657 562.845 267.819 565.415C269.982 567.985 273.071 569.762 276.531 570.427C269.669 571.759 263.2 574.436 257.565 578.273C251.93 582.111 247.261 587.02 243.877 592.666C243.173 592.294 242.435 591.955 241.696 591.631C243.069 587.116 243.056 582.339 241.66 577.83C240.264 573.321 237.537 569.254 233.783 566.08C247.408 561.088 258.319 551.327 264.116 538.944C269.913 526.56 270.121 512.567 264.696 500.042C260.388 477.092 268.108 456.955 290.158 430.029C323.27 389.624 335.227 376 335.227 376C335.227 376 300.867 409.794 272.557 430.029C244.246 450.264 218.274 452.365 218.274 452.365C213.305 452.912 208.554 454.554 204.424 457.151C200.294 459.748 196.907 463.224 194.553 467.282C191.916 462.638 187.959 458.737 183.103 455.994C178.247 453.251 172.674 451.768 166.974 451.703C161.275 451.639 155.663 452.994 150.735 455.627C145.807 458.259 141.747 462.069 138.986 466.652C136.53 465.232 133.736 464.38 130.844 464.167C127.951 463.953 125.045 464.386 122.374 465.427C119.702 466.468 117.344 468.087 115.5 470.147C113.656 472.206 112.381 474.644 111.783 477.254L109.849 477.383C109.849 477.286 109.849 477.189 109.849 477.076C109.852 471.953 108.354 466.923 105.512 462.515C102.67 458.108 98.5886 454.485 93.697 452.028C88.8055 449.571 83.2842 448.37 77.7132 448.552C72.1423 448.733 66.7274 450.29 62.0374 453.06C61.2474 448.141 59.4047 443.414 56.616 439.153C53.8272 434.892 50.1475 431.182 45.7895 428.235C51.0712 422.646 53.7822 415.389 53.3494 407.997C52.9167 400.604 49.3743 393.656 43.4706 388.621C37.5669 383.585 29.7644 380.856 21.7117 381.01C13.659 381.164 5.98696 384.189 0.316517 389.447L0 646H413.143Z" fill="url(#paint6_linear)"/>
<path d="M355.159 337.616L364.163 347.548L376.325 353.847C376.926 354.142 377.454 354.55 377.873 355.045C378.292 355.539 378.595 356.109 378.76 356.718C378.925 357.327 378.95 357.961 378.833 358.579C378.716 359.197 378.459 359.785 378.08 360.307L350.825 396.466C350.825 396.466 339.101 385.404 334.099 381.576C329.098 377.749 314.514 368.656 314.514 368.656L348.122 337.164C348.602 336.742 349.173 336.417 349.798 336.21C350.422 336.003 351.087 335.918 351.749 335.96C352.411 336.003 353.057 336.172 353.644 336.457C354.231 336.742 354.747 337.137 355.159 337.616Z" fill="#00898D"/>
<path d="M401.333 306.22C400.017 328.749 378.799 358.837 378.799 358.837C366.957 353.948 356.797 346.167 349.421 336.34C349.421 336.34 378.641 310.92 401.333 306.22Z" fill="#FF3C00"/>
<path d="M378.799 358.837C378.799 358.837 384.064 351.925 376.219 362.745C354.966 392.219 350.825 396.466 350.825 396.466C345.8 391.005 340.197 386.017 334.099 381.576L360.968 352.361C361.688 351.585 362.408 350.746 363.127 349.954C367.905 353.535 373.174 356.522 378.799 358.837Z" fill="#004345"/>
<path d="M363.127 349.954C378.167 332.868 392.418 309.466 393.559 308.497C396.08 307.548 398.68 306.787 401.333 306.22V306.785C401.088 309.208 399.754 319.14 393.19 333.804C389.1 342.468 384.307 350.836 378.852 358.837C373.208 356.526 367.921 353.539 363.127 349.954Z" fill="#DD2400"/>
<path d="M314.514 368.656C313.689 369.56 321.165 376.521 331.186 384.209C341.207 391.896 350 397.371 350.824 396.466C351.649 395.562 344.173 388.601 334.134 380.93C324.096 373.259 315.321 367.752 314.514 368.656Z" fill="#004345"/>
<path d="M392.591 288.143L422.482 311.24L467.974 261.384L438.084 238.287L392.591 288.143Z" fill="#FF3C00"/>
<path d="M431.098 281.898C431.098 281.898 432.66 280.106 431.835 278.668C431.01 277.231 416.883 265.748 416.883 265.748C416.883 265.748 434.222 275.745 437.943 278.668C440.666 281.19 442.861 284.152 444.419 287.405L441.716 290.086L431.098 281.898Z" fill="#BA2700"/>
<path d="M406.037 252.812L452.667 288.471L457.792 293.058L496.454 250.696L444.559 210.612L406.037 252.812Z" fill="url(#paint7_linear)"/>
<path d="M357.606 326.459L387.497 349.556L441.747 290.103L411.856 267.006L357.606 326.459Z" fill="url(#paint8_linear)"/>
<path opacity="0.32" d="M424.377 276.698C423.645 282.06 421.618 287.203 418.445 291.75C413.18 299.453 372.534 338.02 372.534 338.02L387.486 349.567L441.734 290.119L424.377 276.698Z" fill="#00898D"/>
<path d="M491.4 171.4L508.95 190.344L532.133 202.925C536.96 205.557 538.75 211 535.977 214.779L487.89 278.814C487.89 278.814 465.075 257.544 455.493 250.115C445.91 242.686 417.936 224.808 417.936 224.808L478.22 169.995C481.642 166.878 487.785 167.54 491.4 171.4Z" fill="url(#paint9_linear)"/>
<path d="M574.798 123.37C571.165 163.599 537.135 212.292 537.135 212.292C514.611 202.351 495.165 187.356 480.589 168.687C480.589 168.687 528.43 128.554 569.269 119.074C569.955 118.919 570.67 118.916 571.357 119.065C572.043 119.213 572.682 119.509 573.221 119.927C573.76 120.346 574.184 120.876 574.458 121.475C574.732 122.073 574.848 122.722 574.798 123.37Z" fill="#FF3C00"/>
<path d="M487.89 278.814L474.763 274.55C474.763 274.55 462.916 263.406 450.789 254.169C434.871 242.04 422.885 234.433 422.885 234.433L417.936 224.889L420.867 226.504C446.292 240.287 468.962 257.98 487.89 278.814Z" fill="#004345"/>
<path d="M444.436 287.47C440.237 283.227 435.696 279.28 430.853 275.664C425.682 271.548 420.205 267.771 414.461 264.359L411.197 256.785C426.709 265.532 440.781 276.279 452.983 288.697L444.436 287.47Z" fill="#004345"/>
<path opacity="0.32" d="M532.994 210.321C510.407 247.466 487.82 278.814 487.82 278.814C487.82 278.814 477.43 267.945 471.34 262.308C467.249 258.354 462.894 254.637 458.301 251.181C458.301 251.181 482.432 232.56 512.214 198.322C518.769 202.842 525.72 206.856 532.994 210.321Z" fill="#00898D"/>
<path d="M521.112 187.808C538.013 167.298 564.777 128.053 572.007 123.111C572.165 123.007 572.352 122.946 572.546 122.938C572.741 122.929 572.934 122.973 573.101 123.064C573.269 123.155 573.404 123.289 573.49 123.449C573.576 123.61 573.61 123.79 573.587 123.967C572.885 130.024 568.058 160.143 540.364 199.872C537.855 203.474 535.363 206.946 532.923 210.338C525.649 206.872 518.699 202.858 512.144 198.338C515.128 194.963 518.094 191.474 521.112 187.808Z" fill="#DD2400"/>
<path d="M483.553 243.634C498.359 242.72 509.556 230.933 508.563 217.308C507.569 203.683 494.76 193.38 479.954 194.294C465.148 195.209 453.951 206.995 454.945 220.62C455.939 234.245 468.747 244.549 483.553 243.634Z" fill="#FF3C00"/>
<path opacity="0.32" d="M436.749 274.049C436.749 274.049 442.699 265.571 442.014 256.284C441.523 249.824 435.222 243.494 431.484 240.296C429.87 238.907 428.729 238.116 428.729 238.116C428.729 238.116 447.156 250.81 456.3 258.4C465.444 265.991 474.727 274.55 474.727 274.55L457.757 293.139C457.757 293.139 444.015 279.734 436.749 274.049Z" fill="#00898D"/>
<path d="M492.39 259.554L525.64 224.181L521.379 220.789L488.129 256.162L492.39 259.554Z" fill="#004345"/>
<path d="M520.516 227.736L523.628 224.426L519.778 221.362L516.667 224.672L520.516 227.736Z" fill="#FFD400"/>
<path d="M516.487 232.039L519.598 228.729L515.749 225.665L512.637 228.975L516.487 232.039Z" fill="#FFD400"/>
<path d="M512.455 236.319L515.567 233.009L511.717 229.945L508.606 233.255L512.455 236.319Z" fill="#FFD400"/>
<path d="M508.42 240.61L511.531 237.3L507.682 234.236L504.57 237.546L508.42 240.61Z" fill="#FFD400"/>
<path d="M504.377 244.902L507.488 241.592L503.639 238.528L500.527 241.838L504.377 244.902Z" fill="#FFD400"/>
<path d="M500.345 249.183L503.457 245.873L499.607 242.809L496.496 246.119L500.345 249.183Z" fill="#FFD400"/>
<path d="M496.327 253.473L499.439 250.163L495.589 247.099L492.478 250.409L496.327 253.473Z" fill="#FFD400"/>
<path d="M492.296 257.754L495.407 254.444L491.558 251.38L488.446 254.69L492.296 257.754Z" fill="#FFD400"/>
<path opacity="0.66" d="M564.268 125.582C564.268 125.582 532.818 138.89 512.109 153.425C491.4 167.96 485.959 174.711 485.959 174.711L481.958 169.397C481.958 169.397 506.528 147.643 534.731 135.063C562.934 122.482 571.393 119.252 570.551 121.093C569.708 122.934 564.268 125.582 564.268 125.582Z" fill="url(#paint10_linear)"/>
<path opacity="0.66" d="M486.907 179.055C486.907 179.055 470.515 193.412 458.932 204.475C447.349 215.538 432.818 231.446 432.818 231.446L422.288 224.986C422.288 224.986 446.735 202.521 462.074 188.761C475.938 176.293 481.274 172.208 481.274 172.208L486.907 179.055Z" fill="url(#paint11_linear)"/>
<path d="M411.267 267.638L441.102 290.748C441.285 290.886 441.519 290.953 441.755 290.935C441.99 290.917 442.209 290.815 442.365 290.652C442.441 290.569 442.499 290.473 442.535 290.37C442.571 290.267 442.585 290.158 442.575 290.05C442.565 289.942 442.532 289.837 442.478 289.741C442.424 289.644 442.35 289.559 442.26 289.489L412.425 266.378C412.334 266.309 412.229 266.257 412.116 266.225C412.004 266.193 411.885 266.182 411.768 266.193C411.65 266.203 411.536 266.235 411.432 266.286C411.328 266.338 411.236 266.407 411.161 266.491C411.086 266.572 411.028 266.667 410.993 266.769C410.957 266.871 410.943 266.978 410.953 267.085C410.963 267.192 410.996 267.295 411.05 267.39C411.103 267.485 411.177 267.569 411.267 267.638Z" fill="#004345"/>
<path d="M356.221 322.216L392.307 350.101L439.335 298.564L403.248 270.679L356.221 322.216Z" fill="url(#paint12_linear)"/>
<path opacity="0.32" d="M418.357 282.351C418.618 287.309 417.405 292.24 414.847 296.611C410.582 303.556 374.306 336.146 374.306 336.146L392.365 350.1L439.382 298.549L418.357 282.351Z" fill="#00898D"/>
<path d="M402.527 271.433L438.627 299.308C438.846 299.478 439.13 299.562 439.416 299.54C439.702 299.519 439.967 299.395 440.154 299.195C440.333 298.989 440.418 298.728 440.391 298.466C440.365 298.204 440.23 297.962 440.014 297.79L403.913 269.899C403.805 269.816 403.68 269.753 403.546 269.715C403.411 269.677 403.27 269.663 403.129 269.675C402.989 269.687 402.853 269.724 402.729 269.785C402.604 269.846 402.494 269.928 402.404 270.028C402.219 270.23 402.128 270.491 402.151 270.754C402.174 271.017 402.309 271.261 402.527 271.433Z" fill="#004345"/>
<path d="M351.453 324.984L390.147 354.883L431.317 309.765L392.623 279.865L351.453 324.984Z" fill="url(#paint13_linear)"/>
<path opacity="0.32" d="M408.915 292.412C409.688 296.941 408.98 301.579 406.879 305.736C403.369 311.986 370.867 339.941 370.867 339.941L390.172 354.896L431.344 309.773L408.915 292.412Z" fill="#00898D"/>
<path d="M353.387 326.634C352.58 327.538 360.056 334.499 370.077 342.17C380.098 349.841 388.89 355.348 389.715 354.444C390.54 353.54 383.046 346.579 373.025 338.891C363.004 331.204 354.212 325.729 353.387 326.634Z" fill="#004345"/>
<path d="M391.856 280.687L430.554 310.597C430.672 310.686 430.807 310.753 430.953 310.794C431.098 310.835 431.251 310.849 431.403 310.836C431.555 310.822 431.702 310.781 431.836 310.715C431.971 310.649 432.09 310.56 432.186 310.451C432.286 310.345 432.363 310.222 432.41 310.088C432.457 309.954 432.475 309.813 432.462 309.673C432.449 309.533 432.405 309.397 432.334 309.272C432.262 309.148 432.164 309.038 432.046 308.949L393.348 279.056C393.112 278.908 392.825 278.845 392.541 278.881C392.258 278.916 391.999 279.046 391.814 279.247C391.629 279.447 391.531 279.703 391.539 279.966C391.547 280.229 391.66 280.48 391.856 280.671V280.687Z" fill="#004345"/>
<path d="M478.009 206.349C483.099 200.244 490.294 201.084 495.981 205.767C501.667 210.451 503.896 217.25 498.806 223.355C498.419 223.818 498.003 224.26 497.56 224.679C496.539 225.744 495.298 226.611 493.91 227.231C493.44 227.47 492.953 227.68 492.453 227.86C490.066 228.813 483.924 230.622 481.519 231.72C478.495 233.329 475.794 235.405 473.534 237.857C473.135 238.274 472.637 238.601 472.077 238.81L471.358 239.085C470.959 239.234 470.525 239.282 470.099 239.225C469.674 239.169 469.272 239.009 468.936 238.762L463.46 234.789C463.248 234.63 463.076 234.429 462.958 234.201C462.841 233.974 462.78 233.725 462.78 233.473C462.78 233.22 462.841 232.971 462.958 232.744C463.076 232.516 463.248 232.315 463.46 232.156C466.497 229.75 472.586 224.598 473.446 221.142C474.605 216.507 474.306 211.371 476.956 207.915C477.275 207.375 477.627 206.852 478.009 206.349Z" fill="#BA2700"/>
<path d="M474.798 203.781C479.887 197.676 487.083 198.5 492.769 203.199C498.455 207.899 500.684 214.666 495.594 220.771C495.211 221.237 494.795 221.679 494.348 222.095C493.322 223.165 492.075 224.038 490.68 224.663C490.217 224.902 489.736 225.112 489.241 225.293C486.855 226.245 484.205 226.908 481.8 228.07C477.413 230.073 477.202 231.09 477.202 231.09L472.621 227.344L468.023 223.581C468.023 223.581 469.024 223.209 470.182 218.574C471.34 213.939 471.042 208.787 473.692 205.331C474.028 204.796 474.398 204.278 474.798 203.781Z" fill="#FFD400"/>
<path d="M468.761 222.644C469.651 224.447 470.956 226.05 472.586 227.343C474.122 228.658 475.966 229.63 477.974 230.186C477.974 230.186 478.431 232.544 477.676 232.721C476.921 232.899 476.781 232.721 476.781 232.721C476.781 232.721 473.113 237.647 470.796 237.889C468.48 238.132 466.005 235.854 465.637 235.531C464.096 234.422 463.003 232.87 462.53 231.123C462.32 228.845 466.532 224.34 466.532 224.34C466.532 224.34 466.268 224.259 466.304 223.484C466.339 222.708 468.761 222.644 468.761 222.644Z" fill="url(#paint14_linear)"/>
<path d="M475.026 229.217C475.623 228.555 478.904 224.969 482.046 221.901C481.712 221.315 481.486 220.682 481.379 220.028C480.989 220.145 480.578 220.194 480.168 220.173C479.9 220.166 479.637 220.103 479.4 219.988C479.163 219.873 478.957 219.71 478.799 219.511L479.641 218.962C479.712 219.05 479.805 219.121 479.912 219.168C480.019 219.216 480.137 219.239 480.256 219.236C480.61 219.242 480.963 219.182 481.291 219.059C481.307 218.367 481.552 217.696 481.993 217.137C482.695 216.2 484.011 214.633 484.889 214.666C485.017 214.67 485.141 214.703 485.251 214.762C485.361 214.821 485.454 214.905 485.521 215.005C486.047 215.829 484.871 217.573 483.854 218.558C483.419 218.986 482.916 219.351 482.362 219.64C482.424 220.169 482.572 220.686 482.801 221.174C484.243 219.656 485.944 218.363 487.837 217.347C489.329 216.878 489.838 217.492 489.996 217.783C490.645 219.042 488.873 221.416 486.03 223.096C485.669 223.339 485.243 223.487 484.798 223.524C484.352 223.561 483.905 223.486 483.502 223.306C483.175 223.156 482.882 222.947 482.643 222.692C480.01 225.244 477.184 228.232 475.745 229.814L475.026 229.217ZM488.241 218.251C486.438 219.271 484.816 220.54 483.432 222.014C483.6 222.197 483.802 222.35 484.029 222.466C484.273 222.569 484.544 222.607 484.811 222.576C485.078 222.545 485.33 222.445 485.538 222.289C488.434 220.674 489.382 218.655 489.048 218.203C489.014 218.192 488.977 218.192 488.943 218.203C488.708 218.166 488.467 218.183 488.241 218.251ZM482.976 217.67C482.79 217.917 482.648 218.189 482.555 218.477C482.809 218.305 483.044 218.111 483.257 217.896C483.897 217.295 484.399 216.581 484.731 215.796C484.032 216.341 483.418 216.971 482.906 217.67H482.976Z" fill="black"/>
<path d="M469.831 225.034C471.147 223.306 473.604 219.979 475.64 216.959C475.387 216.811 475.162 216.625 474.973 216.41C474.66 216.049 474.457 215.618 474.386 215.161C474.315 214.703 474.378 214.237 474.57 213.81C475.675 210.79 477.658 208.626 479.062 208.965C479.519 209.046 480.186 209.433 479.992 210.935C479.354 212.952 478.377 214.865 477.097 216.604C477.615 216.741 478.155 216.795 478.694 216.765C478.875 216.196 479.141 215.653 479.484 215.15C480.256 213.971 481.853 212.518 482.765 212.857C482.877 212.899 482.977 212.965 483.056 213.049C483.136 213.133 483.192 213.234 483.222 213.342C483.432 214.198 481.976 215.893 481.326 216.572C480.88 217.09 480.265 217.464 479.571 217.637C479.481 218.01 479.481 218.396 479.571 218.768C479.614 218.983 479.746 219.174 479.94 219.301L479.466 220.141C479.243 220.02 479.048 219.86 478.894 219.668C478.74 219.476 478.63 219.258 478.571 219.026C478.46 218.604 478.431 218.166 478.483 217.734C477.822 217.744 477.163 217.652 476.535 217.46C473.973 221.352 470.884 225.422 470.656 225.696L469.831 225.034ZM478.834 209.772C478.36 209.676 476.658 211.016 475.552 214.052C475.423 214.327 475.375 214.628 475.412 214.926C475.449 215.223 475.57 215.507 475.763 215.748C475.88 215.877 476.016 215.991 476.167 216.087C477.376 214.433 478.322 212.627 478.975 210.725C479.062 210.047 478.975 209.789 478.834 209.772ZM480.344 215.506C480.167 215.779 480.014 216.066 479.887 216.362C480.138 216.217 480.363 216.037 480.554 215.829C481.169 215.186 481.693 214.475 482.116 213.713C481.396 214.19 480.792 214.801 480.344 215.506Z" fill="black"/>
<path d="M476.465 232.948C476.587 232.968 476.713 232.946 476.819 232.887C476.926 232.827 477.004 232.734 477.041 232.625C477.078 232.516 477.07 232.398 477.019 232.294C476.967 232.19 476.877 232.106 476.763 232.06C474.82 231.225 473.017 230.137 471.41 228.83C469.634 227.465 468.132 225.826 466.97 223.985C466.907 223.872 466.797 223.787 466.666 223.747C466.535 223.708 466.392 223.718 466.268 223.775C466.149 223.836 466.06 223.938 466.021 224.058C465.982 224.179 465.995 224.309 466.058 224.421C467.28 226.363 468.874 228.086 470.761 229.508C472.437 230.891 474.338 232.025 476.395 232.867L476.465 232.948Z" fill="black"/>
<path d="M473.499 234.175C473.562 234.195 473.629 234.204 473.696 234.2C473.763 234.196 473.829 234.18 473.889 234.153C473.949 234.126 474.003 234.089 474.048 234.043C474.092 233.996 474.126 233.943 474.148 233.884C474.17 233.826 474.179 233.764 474.175 233.703C474.171 233.641 474.154 233.581 474.125 233.525C474.096 233.47 474.055 233.42 474.004 233.379C473.954 233.338 473.896 233.307 473.832 233.287C472.132 232.559 470.582 231.564 469.252 230.347C468.202 229.396 467.309 228.307 466.602 227.117C466.574 227.061 466.533 227.01 466.483 226.968C466.434 226.926 466.375 226.893 466.311 226.872C466.248 226.851 466.18 226.842 466.112 226.845C466.045 226.848 465.978 226.864 465.917 226.891C465.798 226.944 465.705 227.038 465.659 227.152C465.613 227.267 465.618 227.393 465.672 227.505C466.445 228.782 467.428 229.943 468.585 230.945C469.992 232.285 471.651 233.379 473.481 234.175H473.499Z" fill="black"/>
<path d="M472.657 235.192C472.72 235.213 472.787 235.221 472.854 235.217C472.921 235.214 472.986 235.198 473.047 235.171C473.107 235.144 473.161 235.106 473.205 235.06C473.25 235.014 473.284 234.96 473.306 234.902C473.328 234.843 473.337 234.782 473.333 234.72C473.329 234.659 473.312 234.598 473.282 234.543C473.253 234.487 473.212 234.438 473.162 234.397C473.112 234.356 473.053 234.324 472.99 234.304C471.29 233.576 469.74 232.582 468.41 231.365C467.374 230.402 466.483 229.315 465.759 228.135C465.732 228.079 465.692 228.028 465.643 227.986C465.595 227.944 465.537 227.911 465.474 227.889C465.412 227.867 465.345 227.857 465.278 227.859C465.211 227.861 465.145 227.875 465.084 227.901C465.023 227.926 464.968 227.962 464.922 228.007C464.876 228.052 464.84 228.105 464.817 228.163C464.793 228.221 464.782 228.282 464.784 228.344C464.786 228.406 464.802 228.466 464.829 228.523C465.584 229.814 466.542 230.995 467.672 232.027C469.08 233.373 470.746 234.468 472.586 235.257L472.657 235.192Z" fill="black"/>
<path d="M471.814 236.194C471.933 236.225 472.06 236.215 472.171 236.164C472.282 236.113 472.367 236.026 472.411 235.919C472.44 235.863 472.456 235.803 472.458 235.741C472.46 235.679 472.448 235.617 472.424 235.56C472.399 235.502 472.362 235.45 472.314 235.406C472.267 235.363 472.21 235.328 472.148 235.305C470.456 234.571 468.913 233.577 467.585 232.366C466.536 231.41 465.638 230.322 464.917 229.136C464.891 229.08 464.852 229.03 464.804 228.988C464.755 228.946 464.698 228.913 464.636 228.892C464.574 228.871 464.507 228.861 464.441 228.865C464.375 228.868 464.31 228.883 464.25 228.91C464.126 228.963 464.029 229.058 463.98 229.176C463.931 229.293 463.933 229.424 463.987 229.54C465.724 232.471 468.445 234.805 471.744 236.194H471.814Z" fill="black"/>
<path d="M472.621 211.274C472.621 211.274 475.605 199.453 485.749 201.762C488 202.254 490.077 203.27 491.779 204.712C493.481 206.154 494.753 207.974 495.472 209.999C492.528 208.219 489.219 207.015 485.749 206.462C476.5 205.347 473.955 210.079 472.621 211.274Z" fill="url(#paint15_linear)"/>
<path d="M502.93 192.266L505.458 194.188C527.799 210.984 536.574 213.018 536.925 213.099C537.157 213.151 537.403 213.115 537.607 213C537.811 212.885 537.957 212.7 538.013 212.486C538.069 212.271 538.03 212.046 537.905 211.858C537.78 211.67 537.579 211.536 537.346 211.484C537.258 211.484 528.483 209.369 506.598 192.912C484.713 176.455 481.467 168.412 481.432 168.331C481.394 168.228 481.335 168.133 481.257 168.051C481.179 167.969 481.084 167.902 480.978 167.854C480.872 167.806 480.757 167.778 480.639 167.771C480.521 167.764 480.403 167.779 480.291 167.815C480.07 167.891 479.891 168.043 479.789 168.239C479.688 168.434 479.673 168.659 479.747 168.864C479.87 169.187 482.853 176.729 502.93 192.266Z" fill="#004345"/>
<path d="M375.307 359.854L384.38 368.834L396.191 373.889C396.779 374.157 397.301 374.533 397.726 374.993C398.151 375.453 398.47 375.988 398.664 376.565C398.857 377.142 398.922 377.749 398.853 378.349C398.784 378.95 398.583 379.531 398.262 380.058L374.763 418.737C374.763 418.737 363.074 408.902 358.16 405.591C353.246 402.28 338.961 394.69 338.961 394.69L368.673 360.145C369.054 359.679 369.543 359.296 370.103 359.023C370.664 358.751 371.282 358.595 371.916 358.567C372.549 358.539 373.181 358.64 373.767 358.863C374.353 359.085 374.879 359.424 375.307 359.854Z" fill="url(#paint16_linear)"/>
<path d="M416.83 324.13C416.953 346.627 398.806 378.621 398.806 378.621C387.302 374.865 377.238 368.102 369.849 359.16C369.849 359.16 395.788 331.075 416.83 324.13Z" fill="#FF3C00"/>
<path d="M330.817 320.335L338.136 330.025L349.069 336.485C349.606 336.799 350.061 337.218 350.401 337.713C350.74 338.207 350.957 338.765 351.034 339.346C351.111 339.927 351.047 340.516 350.847 341.071C350.647 341.627 350.316 342.134 349.877 342.558L317.901 375.294C317.901 375.294 308.108 364.36 303.861 360.533C299.614 356.705 286.662 347.484 286.662 347.484L324.078 319.496C324.574 319.129 325.146 318.858 325.759 318.701C326.372 318.544 327.013 318.504 327.644 318.582C328.275 318.661 328.881 318.857 329.427 319.158C329.972 319.46 330.446 319.86 330.817 320.335Z" fill="url(#paint17_linear)"/>
<path d="M380.484 293.042C375.886 314.118 350.754 341.379 350.754 341.379C340.067 336.367 331.249 328.533 325.43 318.882C325.43 318.882 357.669 296.385 380.484 293.042Z" fill="#FF3C00"/>
<path opacity="0.32" d="M398.806 378.621C403.458 370.128 407.463 361.348 410.793 352.344C407.071 362.851 402.331 373.029 396.63 382.755C378.413 414.102 374.763 418.737 374.763 418.737C369.745 413.831 364.18 409.425 358.16 405.591L381.66 373.937C382.292 373.081 382.906 372.209 383.538 371.321C388.233 374.396 393.372 376.853 398.806 378.621Z" fill="#00898D"/>
<path opacity="0.58" d="M472.095 361.758V361.195C472.107 361.382 472.107 361.57 472.095 361.758Z" fill="#00898D"/>
<path d="M383.538 371.321C396.665 352.877 408.652 328.232 409.67 327.167C411.963 325.978 414.358 324.963 416.83 324.13V324.696C416.83 327.118 416.075 337.115 410.793 352.344C407.463 361.348 403.458 370.128 398.806 378.621C393.372 376.853 388.233 374.396 383.538 371.321Z" fill="#DD2400"/>
<path opacity="0.58" d="M326.202 320.125L321.955 323C291.067 343.43 286.609 347.645 286.609 347.645C292.406 351.223 297.776 355.353 302.632 359.967L332.467 334.03C333.275 333.336 334.959 332.222 335.784 331.527C331.98 328.196 328.749 324.351 326.202 320.125Z" fill="#00898D"/>
<path d="M335.802 331.463C349.403 320.077 364.408 309.967 370.902 305.542C372.758 304.266 374.325 302.67 375.517 300.842C375.771 300.448 375.894 299.995 375.874 299.537C375.853 299.079 375.69 298.637 375.402 298.263C375.114 297.889 374.716 297.6 374.253 297.43C373.791 297.26 373.285 297.217 372.797 297.305C369.129 298.016 362.653 299.679 351.737 305.041C342.875 309.58 334.339 314.64 326.184 320.19C328.754 324.372 331.997 328.173 335.802 331.463Z" fill="#DD2400"/>
<path d="M286.539 347.774C285.609 348.598 291.804 355.445 300.421 363.084C309.038 370.723 316.742 376.247 317.655 375.439C318.568 374.632 312.39 367.768 303.773 360.129C295.156 352.49 287.469 346.967 286.539 347.774Z" fill="#FF3C00"/>
<path d="M338.838 394.835C338.136 395.804 345.56 401.99 355.44 408.627C365.321 415.265 373.92 419.932 374.622 418.882C375.324 417.833 367.918 411.728 358.038 405.09C348.157 398.453 339.557 393.85 338.838 394.835Z" fill="#FF3C00"/>
<path d="M353.861 384.661C354.053 384.773 354.284 384.812 354.507 384.769C354.73 384.727 354.926 384.607 355.054 384.435C362.043 375.399 369.559 366.719 377.571 358.433C383.706 352.18 390.759 346.744 398.525 342.283C398.729 342.175 398.878 341.997 398.94 341.789C399.003 341.58 398.973 341.358 398.859 341.169C398.741 340.978 398.546 340.837 398.316 340.776C398.087 340.716 397.84 340.741 397.63 340.846C389.712 345.383 382.513 350.904 376.237 357.254C368.178 365.595 360.62 374.334 353.597 383.433C353.46 383.611 353.406 383.832 353.445 384.047C353.485 384.262 353.615 384.453 353.808 384.58L353.861 384.661Z" fill="white"/>
<path d="M495.84 161.112C496.006 161.244 496.218 161.317 496.437 161.317C496.656 161.317 496.868 161.244 497.034 161.112C524.64 137.065 565.479 124.323 565.9 124.194C566.012 124.159 566.115 124.104 566.204 124.033C566.293 123.961 566.366 123.874 566.418 123.776C566.471 123.679 566.501 123.573 566.509 123.464C566.516 123.356 566.5 123.247 566.461 123.144C566.382 122.938 566.218 122.769 566.005 122.673C565.792 122.576 565.546 122.56 565.321 122.627C564.917 122.756 523.692 135.547 495.805 159.917C495.72 159.993 495.653 160.083 495.606 160.183C495.56 160.283 495.537 160.39 495.537 160.499C495.537 160.607 495.56 160.715 495.606 160.815C495.653 160.915 495.72 161.005 495.805 161.08L495.84 161.112Z" fill="white"/>
<path d="M411.863 253.442C412.051 253.576 412.288 253.637 412.524 253.613C412.76 253.589 412.976 253.481 413.127 253.313C417.374 248.468 424.464 240.393 425.412 239.779C425.514 239.731 425.606 239.665 425.68 239.585C425.754 239.504 425.81 239.41 425.844 239.31C425.879 239.209 425.891 239.103 425.88 238.997C425.869 238.892 425.835 238.79 425.781 238.697C425.668 238.5 425.476 238.353 425.246 238.286C425.016 238.219 424.766 238.239 424.552 238.342C423.499 238.826 416.075 247.289 411.741 252.279C411.665 252.363 411.609 252.459 411.574 252.563C411.54 252.667 411.528 252.776 411.539 252.884C411.551 252.992 411.585 253.097 411.641 253.193C411.696 253.289 411.772 253.373 411.863 253.442Z" fill="white"/>
<path opacity="0.58" d="M411.53 257.189L429.764 239.601L427.009 237.421L406.037 252.812L411.53 257.189Z" fill="#00898D"/>
<path d="M315.742 197.385C315.742 197.385 313.847 215.651 316.005 228.539C318.164 241.426 320.919 264.521 317.322 278.717C313.724 292.912 305.774 323.081 304.756 323.937C303.738 324.793 317.462 321.821 317.462 321.821C317.462 321.821 338.188 286.291 340.54 268.187C342.892 250.083 342.295 219.107 345.068 215.538C347.841 211.969 356.511 208.916 358.704 201.245C361.565 191.345 353.65 180.654 353.65 180.654C353.65 180.654 318.111 191.797 315.742 197.385Z" fill="url(#paint18_linear)"/>
<path d="M343.682 191.684C340.969 194.664 337.821 197.284 334.328 199.469C329.449 202.263 325.096 209.918 324.219 214.456C323.341 218.994 328.834 255.412 329.08 258.061C329.326 260.709 336.679 263.568 335.03 264.069C333.38 264.569 324.184 267.153 326.255 267.153C328.325 267.153 335.205 268.365 333.029 269.511C330.853 270.658 322.148 273.016 323.745 273.662C325.342 274.308 332.116 275.923 328.747 276.746C325.377 277.57 319.199 298.064 317.269 305.72C316.171 311.027 316.213 316.48 317.392 321.773L304.457 324.292C304.457 324.292 318.111 276.827 318.497 271.352C318.884 265.877 314.987 227.909 313.987 219.882C313.27 215.186 313.1 210.432 313.478 205.703C313.478 205.703 329.94 191.862 335.416 190.861C340.891 189.859 343.682 191.684 343.682 191.684Z" fill="url(#paint19_linear)"/>
<path d="M235.217 179.914L233.728 179.262L231.813 182.966L233.303 183.618L235.217 179.914Z" fill="#FFB600"/>
<path d="M252.597 189.481L251.107 188.829L249.924 191.119L251.414 191.771L252.597 189.481Z" fill="#FFB600"/>
<path d="M262.428 197.166L216.635 177.138L202.728 204.065L248.522 224.092L262.428 197.166Z" fill="#FF3C00"/>
<path d="M264.371 195.953L216.564 175.045L208.421 190.813L256.227 211.721L264.371 195.953Z" fill="#FF3C00"/>
<path d="M205.546 198.645C205.546 198.645 212.302 202.602 228.027 205.929C241.418 208.771 246.279 207.414 246.279 207.414L209.424 191.264L205.546 198.645Z" fill="#CE2C00"/>
<path d="M237.375 199.608L231.874 197.203L228.597 203.548L234.098 205.954L237.375 199.608Z" fill="#FFB600"/>
<path d="M232.169 197.321C231.644 198.943 231.512 200.652 231.783 202.327C231.884 203.025 232.156 203.694 232.578 204.281C233.001 204.869 233.563 205.36 234.222 205.719L237.381 199.598L232.169 197.321Z" fill="white"/>
<path d="M256.669 184.95L234.433 175.228L231.642 180.638L235.293 182.237L237.065 178.99L251.86 185.45L250.087 188.713L253.878 190.36L256.669 184.95Z" fill="#FF3C00"/>
<path d="M234.639 183.667L234.141 184.63L248.93 191.098L249.428 190.135L234.639 183.667Z" fill="#FF3C00"/>
<path d="M354.282 185.58L363.899 153.829L364.426 182.075L354.282 185.58Z" fill="#020023"/>
<path d="M355.107 184.643C360.647 172.539 364.372 159.799 366.181 146.771C368.831 126.18 354.966 123.418 353.896 122.966C346.876 119.881 319.515 121.626 317.901 124.791C313.97 132.446 328.431 149.274 328.887 167.33C329.221 179.717 312.267 205.266 309.424 207.802C304.773 211.969 319.077 211.63 333.099 193.638C334.626 191.684 336.434 193.735 341.874 191.668C343.572 190.887 345.163 189.922 346.613 188.793C349.224 187.059 352.082 185.662 355.107 184.643Z" fill="url(#paint20_linear)"/>
<path d="M349.824 128.699L360.863 147.013L349.473 122.982L349.824 128.699Z" fill="#FF9100"/>
<path d="M328.834 191.135C328.834 191.135 342.471 172.191 346.753 161.226C349.665 153.32 350.27 144.85 348.508 136.661C348.137 134.161 348.185 131.623 348.648 129.135L342.629 126.697L336.118 126.584C336.118 126.584 329.712 186.726 328.834 191.135Z" fill="#FF9100"/>
<path d="M334.521 121.69C334.521 121.69 340.558 109.933 340.681 105.782C340.803 101.632 340.681 92.9754 347.841 91.7642C355.001 90.5529 357.055 96.9806 357.441 99.5C357.827 102.019 358.441 108.915 357.985 109.012C357.529 109.109 356.037 108.027 356.037 108.027C356.037 108.027 356.265 112.388 354.282 113.712C352.919 114.515 351.268 114.793 349.684 114.487C349.684 114.487 347.086 120.382 347.402 122.207C348.026 124.265 348.842 126.27 349.842 128.199C349.842 128.199 335.977 128.392 334.521 121.69Z" fill="#FFB68E"/>
<path d="M333.45 120.867C333.45 120.867 343.805 133.787 346.174 142.491C348.543 151.196 330.8 192.233 324.464 197.401C318.129 202.569 308.055 204.782 308.055 204.782C308.055 204.782 318.339 172.773 319.621 156.413C320.902 140.053 314.496 128.457 319.006 123.725C323.517 118.993 333.45 120.867 333.45 120.867Z" fill="#19437F"/>
<path d="M349.069 121.125C349.069 121.125 354.335 134.659 359.178 141.926C364.022 149.194 364.32 182.124 364.32 182.124L366.075 181.187C366.075 181.187 369.761 142.911 368.848 135.66C367.936 128.409 362.723 122.74 360.073 122.579C357.423 122.417 349.069 121.125 349.069 121.125Z" fill="#19437F"/>
<path d="M307.967 204.701C307.967 204.701 322.306 202.763 327.501 193.396C332.695 184.029 338.329 156.913 337.522 149.484C336.714 142.055 335.767 141.409 335.767 141.409L340.856 140.473L335.012 137.905C335.012 137.905 335.293 135.498 331.958 130.993C329.277 127.616 326.295 124.45 323.043 121.529C323.043 121.529 316.111 121.432 317.374 130.379C318.517 140.474 318.839 150.634 318.339 160.773C317.831 166.345 310.477 199.985 307.967 204.701Z" fill="url(#paint21_linear)"/>
<path d="M356.265 122.094C356.265 122.094 363.864 134.513 364.777 136.161C365.689 137.808 361.039 137.776 361.039 137.776L365.426 138.922C366.362 141.998 367.043 145.135 367.462 148.305C367.883 152.391 364.9 166.716 364.9 166.716L364.285 182.091L367.374 180.864C367.374 180.864 371.569 143.557 369.621 134.852C367.673 126.148 362.741 123.418 361.407 122.982C359.717 122.581 357.999 122.284 356.265 122.094Z" fill="url(#paint22_linear)"/>
<path d="M369.129 138.083C369.129 138.083 404.229 143.687 407.529 137.695C410.828 131.703 405.949 106.348 404.703 104.41C403.457 102.472 401.93 102.795 401.93 102.795L396.665 104.604C396.665 104.604 397.402 125.599 396.823 126.81C396.244 128.021 370.393 122.385 361.53 122.966C361.53 122.966 368.041 137.614 369.129 138.083Z" fill="url(#paint23_linear)"/>
<path d="M321.165 121.916C321.165 121.916 276.676 137.275 266.497 150.195C256.318 163.115 250.403 171.19 250.403 171.19L257.002 176.746C257.002 176.746 273.166 158.528 284.31 151.81C295.454 145.092 320.34 140.376 324.131 135.66C327.922 130.944 321.165 121.916 321.165 121.916Z" fill="url(#paint24_linear)"/>
<path d="M250.403 171.19C250.403 171.19 259.02 169.737 264.057 164.875C271.656 157.511 275.553 155.428 274.359 154.168C273.166 152.908 272.025 149.743 273.78 150.454C275.535 151.164 280.08 154.362 279.993 152.892C279.905 151.422 275.114 146.141 277.606 147.175C280.098 148.209 283.941 151.277 283.661 149.969C283.38 148.661 280.765 143.283 283.52 145.56C286.276 147.837 294.173 143.606 300.702 141.345C307.23 139.084 319.761 128.812 319.761 128.812C319.761 128.812 321.393 137.905 318.392 139.035C309.424 142.427 290.47 148.257 284.363 151.794C278.255 155.331 257.072 176.81 257.072 176.81L250.403 171.19Z" fill="#020023"/>
<path d="M370.165 138.89C370.165 138.89 368.919 135.66 367.111 131.687C366.066 129.522 364.784 127.46 363.285 125.534C363.285 125.534 376.132 131.994 380.659 133.286C385.187 134.578 395.366 137.226 397.911 137.178C400.456 137.13 398.876 134.707 397.525 132.333C396.174 129.959 400.14 133.948 401.649 134.481C403.159 135.014 397.174 127.859 398.771 128.021C400.368 128.182 405.387 132.866 405.212 131.606C405.036 130.347 400.526 125.938 401.316 126.277C402.749 126.688 404.208 127.017 405.686 127.262C405.686 127.262 402.772 111.29 401.632 108.463C401.13 107.538 400.432 106.714 399.579 106.04C398.726 105.366 397.735 104.856 396.665 104.539C396.665 104.539 401.298 101.729 403.281 102.456C405.265 103.182 404.65 104.361 404.65 104.361C404.65 104.361 408.564 118.46 409.108 126.438C409.652 134.416 408.301 136.354 407.353 138.276C405.493 141.91 378.185 141.425 370.165 138.89Z" fill="#020023"/>
<path d="M255.791 175.777C255.267 178.461 254.352 181.069 253.071 183.529C251.158 186.936 250.316 185.838 250.807 183.383C251.102 182.094 251.197 180.773 251.088 179.459C249.967 180.296 249.052 181.341 248.403 182.527C248.104 183.238 249.877 184.142 249.456 184.449C247.297 185.677 245.016 183.141 245.016 183.141C245.016 183.141 244.138 184.401 243.261 184.223C241.277 183.819 242.716 181.897 242.716 181.897C242.716 181.897 240.961 183.254 240.61 181.801C240.259 180.347 240.365 180.412 240.365 180.412C240.365 180.412 235.907 183.48 236.1 181.542C236.293 179.604 250.456 171.255 250.456 171.255L255.791 175.777Z" fill="#FFB68E"/>
<path d="M349.069 121.125L348.297 121.787C348.297 121.787 356.704 137.291 358.687 142.039C360.586 146.452 361.917 151.053 362.653 155.751C362.881 156.8 363.285 161.694 363.285 161.694L364.303 181.881C364.303 181.881 367.006 160.24 362.548 147.966C360.705 142.944 349.069 121.125 349.069 121.125Z" fill="#020023"/>
<path d="M252.72 172.143L252.211 171.82C252.931 170.851 269.41 148.306 273.271 146.481H273.447C274.938 145.98 283.977 141.151 293.594 136.048C308.02 128.376 317.55 123.338 318.673 123.257C318.756 123.256 318.838 123.271 318.913 123.302C318.989 123.333 319.057 123.378 319.112 123.435C320.042 124.371 320.656 130.847 320.217 133.27L319.621 133.173C320.094 130.573 319.322 124.242 318.638 123.806C317.655 123.903 304.493 130.912 293.91 136.532C284.292 141.652 275.202 146.497 273.657 147.014H273.517C270.393 148.435 257.458 165.538 252.72 172.143Z" fill="#020023"/>
<path d="M314.25 177.085L323.429 175.389L324.412 172.611L314.742 174.888L314.25 177.085Z" fill="#020023"/>
<path d="M315.9 174.888C315.863 174.908 315.82 174.919 315.777 174.919C315.734 174.919 315.692 174.908 315.654 174.888C315.578 174.86 315.517 174.805 315.485 174.735C315.452 174.666 315.45 174.588 315.479 174.517C315.479 174.388 321.498 160.789 323.043 153.247C323.902 149.831 324.338 146.337 324.342 142.831C324.341 142.757 324.368 142.685 324.42 142.629C324.471 142.573 324.543 142.535 324.622 142.524C324.663 142.519 324.704 142.522 324.743 142.533C324.782 142.544 324.819 142.562 324.85 142.586C324.881 142.611 324.907 142.64 324.925 142.674C324.943 142.708 324.954 142.745 324.956 142.782C324.966 146.343 324.524 149.893 323.64 153.36C322.095 160.951 316.111 174.598 316.04 174.727C316.033 174.762 316.016 174.795 315.991 174.823C315.967 174.851 315.936 174.874 315.9 174.888Z" fill="#020023"/>
<path d="M318.884 160.386H318.708C318.631 160.374 318.561 160.336 318.512 160.279C318.463 160.222 318.439 160.151 318.445 160.079L320.2 143.525C320.189 143.482 320.188 143.438 320.198 143.395C320.208 143.352 320.229 143.312 320.259 143.277C320.288 143.243 320.326 143.215 320.369 143.195C320.412 143.176 320.459 143.166 320.507 143.166C320.555 143.166 320.602 143.176 320.645 143.195C320.688 143.215 320.725 143.243 320.755 143.277C320.785 143.312 320.805 143.352 320.815 143.395C320.826 143.438 320.825 143.482 320.814 143.525L319.059 160.079C319.073 160.141 319.063 160.205 319.031 160.261C318.999 160.317 318.947 160.361 318.884 160.386Z" fill="#020023"/>
<path d="M344.524 142.524C344.434 142.556 344.334 142.556 344.243 142.524L334.714 138.099V137.953C334.008 135.573 332.994 133.28 331.695 131.122C329.453 127.509 326.473 124.328 322.92 121.755C322.863 121.701 322.831 121.628 322.831 121.553C322.831 121.478 322.863 121.405 322.92 121.351C322.976 121.3 323.052 121.271 323.131 121.271C323.21 121.271 323.285 121.3 323.341 121.351C326.932 123.954 329.946 127.167 332.221 130.815C333.487 133.006 334.488 135.319 335.205 137.711L344.471 142.023C344.507 142.039 344.54 142.061 344.567 142.088C344.593 142.115 344.614 142.147 344.627 142.182C344.64 142.216 344.645 142.253 344.643 142.289C344.64 142.326 344.63 142.362 344.612 142.395C344.594 142.443 344.564 142.488 344.524 142.524Z" fill="#020023"/>
<path d="M333.801 175.712C333.749 175.742 333.688 175.756 333.626 175.752C333.565 175.749 333.506 175.728 333.458 175.693C333.41 175.657 333.375 175.609 333.358 175.555C333.341 175.501 333.342 175.443 333.362 175.389C335.211 169.265 336.416 162.991 336.96 156.655C337.277 151.52 336.971 146.369 336.047 141.296C336.031 141.224 336.046 141.148 336.088 141.085C336.131 141.022 336.198 140.976 336.276 140.957C336.356 140.947 336.439 140.964 336.507 141.006C336.574 141.048 336.623 141.111 336.644 141.183C337.589 146.303 337.901 151.504 337.574 156.687C337.05 163.041 335.874 169.335 334.064 175.486C334.044 175.541 334.009 175.59 333.963 175.629C333.917 175.668 333.862 175.697 333.801 175.712Z" fill="#020023"/>
<path d="M364.707 137.275C363.555 137.681 362.341 137.916 361.109 137.969C361.068 137.974 361.027 137.971 360.988 137.96C360.949 137.949 360.912 137.931 360.881 137.907C360.85 137.883 360.824 137.853 360.806 137.819C360.788 137.785 360.777 137.749 360.775 137.711C360.77 137.675 360.774 137.637 360.786 137.602C360.798 137.567 360.817 137.535 360.844 137.507C360.871 137.48 360.903 137.458 360.94 137.443C360.977 137.428 361.016 137.42 361.056 137.42C362.312 137.418 363.549 137.147 364.671 136.629C364.25 135.789 357.248 124.161 357.178 124.048C357.14 123.981 357.131 123.904 357.154 123.832C357.177 123.759 357.229 123.698 357.3 123.661C357.374 123.629 357.457 123.624 357.534 123.644C357.612 123.665 357.678 123.711 357.722 123.774C358.002 124.258 364.742 135.531 365.215 136.403C365.263 136.482 365.288 136.571 365.288 136.661C365.288 136.752 365.263 136.841 365.215 136.92C365.088 137.082 364.911 137.206 364.707 137.275Z" fill="#020023"/>
<path d="M366.462 162.081C366.434 162.093 366.404 162.099 366.374 162.099C366.344 162.099 366.314 162.093 366.286 162.081C366.245 162.078 366.205 162.066 366.169 162.047C366.134 162.029 366.102 162.003 366.078 161.973C366.053 161.943 366.035 161.908 366.026 161.871C366.016 161.834 366.015 161.796 366.023 161.758C366.648 157.753 367.052 153.721 367.234 149.678C367.075 146.209 366.432 142.773 365.321 139.455C365.307 139.421 365.302 139.385 365.304 139.349C365.307 139.313 365.318 139.278 365.336 139.246C365.354 139.214 365.379 139.186 365.41 139.164C365.441 139.141 365.476 139.125 365.514 139.116C365.591 139.095 365.673 139.102 365.745 139.135C365.817 139.168 365.872 139.225 365.9 139.294C367.036 142.668 367.691 146.164 367.848 149.694C367.665 153.759 367.254 157.813 366.62 161.839C366.627 161.89 366.615 161.942 366.587 161.986C366.558 162.03 366.514 162.063 366.462 162.081Z" fill="#020023"/>
<path d="M338.803 110.87C340.758 109.829 342.441 108.407 343.734 106.703C345.138 104.393 345.489 103.101 345.033 102.068C344.05 99.9038 345.402 95.8501 346.349 96.9968C347.297 98.1434 346.753 101.163 347.578 100.421C348.403 99.6777 348.192 95.7694 350.667 94.7358C353.141 93.7022 354.721 95.6079 357.581 95.2203C360.708 94.7863 363.727 93.8458 366.497 92.4425C371.376 89.2125 373.236 85.6918 371.428 82.8655C368.655 78.5212 363.145 79.151 355.633 81.5412C347.823 84.0445 337.837 88.7603 338.188 90.8921C338.539 93.0239 342.611 95.0426 340.4 95.0103C339.958 94.9508 339.508 94.9854 339.084 95.1113C338.659 95.2373 338.271 95.4513 337.951 95.7369C337.63 96.0224 337.386 96.3719 337.235 96.7584C337.085 97.1448 337.032 97.5579 337.083 97.9658C337.346 101.6 340.47 106.59 338.803 110.87Z" fill="#172755"/>
<path d="M332.292 119.413C334.977 119.95 337.565 120.836 339.979 122.046C342.595 123.237 345.016 124.759 347.174 126.568C347.174 126.568 346.858 127.197 347.964 128.183C349.069 129.168 348.683 129.152 348.683 129.152C348.683 129.152 347.718 129.781 347.174 129.442C346.63 129.103 345.279 127.94 345.279 127.94L343.664 130.815C340.907 129.28 338.273 127.563 335.784 125.679C332.836 123.418 328.764 120.495 328.764 120.495L332.292 119.413Z" fill="url(#paint25_linear)"/>
<path d="M347.49 120.382H351.281C352.363 121.399 353.032 122.728 353.176 124.145C353.169 125.838 352.704 127.503 351.825 128.99C351.825 128.877 350.245 126.907 350.07 127.165C349.911 127.574 349.833 128.006 349.842 128.441C348.814 126.423 347.98 124.326 347.35 122.175C347.355 121.575 347.402 120.976 347.49 120.382Z" fill="url(#paint26_linear)"/>
<path d="M347.49 129.507L351.474 133.431L351 127.989C349.873 128.576 348.7 129.083 347.49 129.507Z" fill="#FF3C00"/>
<path d="M322.341 181.93L327.272 174.678C327.272 174.678 338.82 163.826 344.91 152.876C348.573 146.221 350.336 138.818 350.035 131.364L351.456 132.979C351.456 132.979 353.211 150.114 345.7 163.454C338.188 176.794 331.783 180.185 322.341 181.93Z" fill="#FF3C00"/>
<path d="M349.561 114.503L345.507 111.806C345.507 111.806 345.156 116.748 345.209 119.332C345.438 121.121 346.382 122.768 347.859 123.951C347.464 123.005 347.343 121.981 347.508 120.98C348.028 118.78 348.714 116.616 349.561 114.503Z" fill="#EF8B59"/>
<path d="M345.226 103.085C343.576 101.913 342.091 100.557 340.803 99.0478C339.852 97.9298 339.246 96.5964 339.048 95.188C338.697 95.2513 338.364 95.3786 338.067 95.5623C337.77 95.746 337.516 95.9825 337.319 96.2578C337.123 96.5332 336.989 96.8418 336.924 97.1656C336.859 97.4894 336.866 97.8219 336.942 98.1434C337.241 100.857 338.908 104.943 339.048 107.107C339.139 108.366 339.056 109.63 338.803 110.87C338.803 110.87 345.331 107.785 345.226 103.085Z" fill="#020023"/>
<path d="M353.211 94.0737C353.172 94.0832 353.131 94.0853 353.091 94.0798C353.051 94.0743 353.012 94.0614 352.978 94.0417C352.943 94.022 352.914 93.9961 352.89 93.9655C352.867 93.9349 352.851 93.9003 352.843 93.8637C352.832 93.8287 352.829 93.7921 352.834 93.7561C352.839 93.72 352.851 93.6852 352.871 93.6537C352.891 93.6221 352.917 93.5945 352.948 93.5723C352.979 93.5501 353.015 93.5339 353.053 93.5246C353.299 93.5246 360.495 91.6512 363.583 86.8385C364.18 85.8856 364.303 85.1266 363.899 84.5936C362.829 83.1078 358.213 83.3016 356.511 83.5116C356.432 83.5166 356.355 83.4945 356.293 83.4497C356.231 83.4049 356.19 83.3406 356.177 83.2693C356.17 83.232 356.171 83.1937 356.18 83.1568C356.19 83.1198 356.207 83.0851 356.232 83.0547C356.257 83.0244 356.288 82.9991 356.324 82.9804C356.36 82.9618 356.399 82.9502 356.44 82.9463C356.704 82.9463 362.916 82.2034 364.408 84.2706C364.669 84.7214 364.78 85.2329 364.727 85.7412C364.674 86.2496 364.459 86.7323 364.11 87.1292C360.898 92.0549 353.826 93.9283 353.211 94.0737Z" fill="#020023"/>
<path d="M351.509 94.3C351.458 94.3269 351.401 94.3411 351.342 94.3411C351.284 94.3411 351.226 94.3269 351.175 94.3C351.12 94.2485 351.088 94.1788 351.088 94.1062C351.088 94.0335 351.12 93.9638 351.175 93.9124C354.685 89.778 357.23 85.8374 356.809 85.369C356.388 84.9007 353.983 85.369 352.667 85.9343C352.595 85.9632 352.513 85.9659 352.438 85.942C352.363 85.9181 352.301 85.8692 352.264 85.8051C352.227 85.7365 352.221 85.6573 352.247 85.5847C352.274 85.5122 352.33 85.4521 352.404 85.4175C352.79 85.256 356.283 83.8025 357.3 85.0299C358.318 86.2573 353.229 92.3781 351.649 94.2515C351.611 94.283 351.561 94.3002 351.509 94.3Z" fill="#020023"/>
<path d="M347.736 97.9983C347.695 97.9944 347.655 97.9828 347.619 97.9642C347.583 97.9455 347.552 97.9202 347.527 97.8899C347.502 97.8595 347.485 97.8248 347.475 97.7878C347.466 97.7509 347.465 97.7126 347.472 97.6753C347.424 96.0153 346.682 94.4364 345.402 93.2663C344.725 92.5211 343.867 91.9326 342.897 91.5483C341.928 91.164 340.874 90.9946 339.821 91.0538C339.78 91.0607 339.738 91.0597 339.698 91.0511C339.658 91.0424 339.62 91.0262 339.587 91.0034C339.554 90.9807 339.527 90.9519 339.507 90.9188C339.486 90.8858 339.474 90.8493 339.47 90.8115C339.464 90.7394 339.488 90.668 339.537 90.6113C339.586 90.5546 339.655 90.5166 339.733 90.5047C340.869 90.4404 342.005 90.625 343.049 91.0433C344.092 91.4616 345.013 92.1017 345.735 92.911C347.135 94.1975 347.935 95.9356 347.964 97.756C347.954 97.8118 347.927 97.864 347.887 97.9067C347.847 97.9495 347.794 97.9812 347.736 97.9983Z" fill="#020023"/>
<path d="M363.847 92.6527C361.496 93.7573 358.964 94.4993 356.353 94.8491C356.284 94.8338 356.222 94.7976 356.179 94.7463C356.135 94.6951 356.111 94.6317 356.111 94.5664C356.111 94.5012 356.135 94.4378 356.179 94.3865C356.222 94.3353 356.284 94.2991 356.353 94.2838C356.353 94.2838 364.531 93.331 368.339 88.6313C369.305 87.4524 369.638 86.5157 369.322 85.9343C369.006 85.3529 367.234 85.1268 367.216 85.1268C367.138 85.1229 367.065 85.0927 367.01 85.0421C366.955 84.9914 366.922 84.9238 366.918 84.8522C366.915 84.8148 366.921 84.7774 366.935 84.7422C366.949 84.707 366.971 84.6748 366.999 84.6476C367.027 84.6203 367.06 84.5987 367.098 84.5839C367.135 84.5691 367.175 84.5615 367.216 84.5615C367.304 84.5615 369.252 84.5615 369.866 85.6759C370.305 86.4672 369.866 87.5816 368.831 88.9059C367.502 90.4886 365.797 91.7703 363.847 92.6527Z" fill="#020023"/>
<path d="M415.308 90.2859L363.482 99.0046L364.274 102.992L416.1 94.2735L415.308 90.2859Z" fill="#FF3C00"/>
<path d="M434.994 93.6862L382.959 101.341L381.607 94.526L433.187 84.5938L434.994 93.6862Z" fill="#FF3C00"/>
<path d="M455.44 93.0562L410.565 98.7248L408.406 87.8074L452.544 78.4404L455.44 93.0562Z" fill="#FF3C00"/>
<path d="M451.035 78.5374L410.565 98.7249L453.948 93.2339L451.035 78.5374Z" fill="#DD2400"/>
<path d="M408.511 89.3418L410.301 97.3199L382.959 101.341L408.511 89.3418Z" fill="#DD2400"/>
<path d="M381.941 96.2056L382.678 99.9362L365.97 102.633L381.941 96.2056Z" fill="#DD2400"/>
<path d="M453.473 74.7678L448.864 75.5469L453.053 96.5335L457.662 95.7544L453.473 74.7678Z" fill="#FF3C00"/>
<path d="M364.975 97.699L361.539 98.2764L362.753 104.393L366.189 103.816L364.975 97.699Z" fill="#FF3C00"/>
<path d="M395.612 92.055C395.612 92.055 397.244 95.1881 397.929 95.3981C398.613 95.608 398.543 94.2353 398.543 94.2353C398.543 94.2353 399.192 95.8503 399.859 95.5919C400.526 95.3335 400.351 94.0738 400.351 94.0738C400.351 94.0738 400.93 95.3496 401.439 94.962C401.948 94.5744 401.895 93.347 401.895 93.347C401.895 93.347 402.053 94.4937 402.79 94.5421C403.527 94.5906 403.281 92.9271 402.79 91.4898C402.299 90.0524 401.772 89.5518 401.333 89.6325C400.895 89.7133 400.807 89.9232 400.807 89.9232C400.807 89.9232 400 89.2772 399.508 89.6002C399.017 89.9232 399.034 90.2301 399.034 90.2301C399.034 90.2301 397.771 89.4226 397.279 89.8102C397.005 90.0359 396.815 90.3353 396.735 90.6661C396.735 90.6661 395.63 89.9878 395.314 90.4077C395.028 90.9256 394.793 91.4661 394.612 92.0227L395.612 92.055Z" fill="#FFB68E"/>
<path d="M397.437 104.151C397.437 104.151 392.453 99.7425 392.295 98.5797C392.639 96.8156 393.394 95.1409 394.506 93.6701C394.945 93.2179 395.015 97.5622 394.98 98.5151C394.945 99.4679 396.858 99.048 398.929 98.9188C401.702 98.7412 403.036 98.5797 403.369 98.9188C403.703 99.258 402.193 102.779 402.193 102.779L397.437 104.151Z" fill="#FFB68E"/>
<path d="M402.193 102.714C400.904 102.79 399.615 102.574 398.438 102.084C397.07 101.418 395.992 100.341 395.384 99.0318C397.009 98.4997 398.714 98.2054 400.438 98.1597C401.47 98.1646 402.501 98.2185 403.527 98.3212C403.589 99.8774 403.123 101.413 402.193 102.714Z" fill="#EF8B59"/>
<path d="M365.97 102.633L381.941 96.1733L365.97 102.633Z" fill="#DD2400"/>
<path opacity="0.66" d="M410.459 87.3716C410.459 87.3716 419.234 86.984 427.132 86.7579C435.029 86.5318 444.401 80.1687 444.401 80.1687L410.459 87.3716Z" fill="url(#paint27_linear)"/>
<path opacity="0.66" d="M450.526 75.905C450.526 75.905 453.422 83.657 455.001 87.0808C455.952 89.1284 457.185 91.0552 458.669 92.8141L455.159 75.0491L450.526 75.905Z" fill="url(#paint28_linear)"/>
<path d="M355.107 184.643C360.372 181.074 411.372 171.109 415.917 178.183C420.463 185.257 412.285 238.099 412.285 238.099L400.456 241.329C400.456 241.329 400.895 230.638 400.456 218.542C399.894 198.984 400.175 196.352 400.175 196.352C396.823 194.737 341.19 213.406 341.19 213.406C341.19 213.406 349.105 188.696 355.107 184.643Z" fill="#19437F"/>
<path d="M345.068 215.522C343.453 215.877 349.561 210.499 349.017 203.878C348.816 200.369 348.851 196.852 349.122 193.348C348.859 193.865 352.895 202.182 354.019 201.423C355.142 200.664 364.303 193.606 389.592 187.518C400.263 184.95 401.877 186.807 402.913 186.678C403.948 186.549 412.232 180.67 410.881 182.527C409.529 184.384 403.597 191.329 404.878 190.812C406.16 190.295 411.705 188.034 409.371 190.57C407.037 193.105 402.106 198.29 403.72 197.708C405.335 197.127 408.827 196.239 407.406 198.08C405.984 199.921 406.089 219.22 407.406 224.323C408.774 229.006 410.42 233.615 412.337 238.132L400.509 241.362C400.509 241.362 400.737 197.579 398.385 196.836C394.647 195.641 362.021 206.268 357.739 208.335C354.089 209.95 351.72 214.02 345.068 215.522Z" fill="url(#paint29_linear)"/>
<path d="M315.496 329.751C315.496 329.751 313.741 329.508 313.741 327.151C313.713 325.619 313.842 324.089 314.127 322.58L305.458 324.195C305.458 324.195 306.37 335.403 309.687 335.968C311.899 336.308 313.285 331.85 315.496 329.751Z" fill="white"/>
<path d="M306.686 335.096C306.686 335.096 309.073 338.084 311.6 336.711C314.127 335.339 332.257 324.502 331.484 324.082C330.712 323.662 330.326 322.338 329.817 322.564C329.308 322.79 320.779 327.086 317.883 326.036C317.092 325.813 316.384 325.393 315.836 324.823C315.288 324.254 314.921 323.555 314.777 322.806L310.811 325.261C310.811 325.261 313.285 328.023 313.145 329.573C313.004 331.123 306.686 335.096 306.686 335.096Z" fill="#050023"/>
<path d="M413.425 245.48C413.425 245.48 411.67 245.335 411.512 242.977C411.358 241.457 411.358 239.926 411.512 238.406L402.966 240.506C402.966 240.506 404.721 251.649 408.02 252.005C410.284 252.263 411.354 247.741 413.425 245.48Z" fill="white"/>
<path d="M405.001 251.375C405.001 251.375 407.581 254.217 410.003 252.699C412.425 251.181 429.764 239.278 428.975 238.907C428.185 238.536 427.693 237.292 427.22 237.502C426.746 237.712 418.445 242.541 415.549 241.669C414.744 241.486 414.008 241.103 413.424 240.562C412.839 240.021 412.426 239.342 412.232 238.6L408.441 241.297C408.441 241.297 411.091 243.897 411.074 245.464C411.056 247.03 405.001 251.375 405.001 251.375Z" fill="#050023"/>
<path d="M309.828 210.386H309.635C309.578 210.397 309.52 210.397 309.464 210.384C309.408 210.372 309.355 210.349 309.31 210.315C309.266 210.282 309.229 210.24 309.205 210.192C309.18 210.144 309.167 210.092 309.167 210.039C309.167 209.986 309.18 209.933 309.205 209.885C309.229 209.838 309.266 209.795 309.31 209.762C309.355 209.729 309.408 209.705 309.464 209.693C309.52 209.681 309.578 209.68 309.635 209.691C309.635 209.691 312.636 209.885 319.077 206.171C323.552 203.619 328.08 198.548 330.8 195.528C332.467 193.671 333.152 192.912 333.573 192.782C334.149 192.662 334.737 192.592 335.328 192.572C337.539 192.379 341.225 192.056 343.366 190.457C345.372 189.037 347.53 187.809 349.807 186.791C350.421 186.516 350.965 186.258 351.421 186.016C353.176 185.079 354.931 184.401 354.931 184.401C354.977 184.371 355.029 184.35 355.084 184.34C355.139 184.331 355.196 184.332 355.251 184.345C355.305 184.358 355.356 184.381 355.4 184.414C355.443 184.446 355.478 184.487 355.503 184.534C355.528 184.58 355.541 184.631 355.542 184.683C355.543 184.735 355.532 184.786 355.509 184.833C355.486 184.88 355.453 184.923 355.411 184.957C355.368 184.991 355.319 185.016 355.265 185.03C355.265 185.03 353.51 185.773 351.755 186.645C351.298 186.888 350.737 187.146 350.105 187.437C347.876 188.429 345.765 189.631 343.804 191.022C341.47 192.766 337.644 193.089 335.345 193.283C334.839 193.314 334.335 193.374 333.836 193.461C332.96 194.248 332.15 195.096 331.414 195.996C328.659 199.049 324.078 204.168 319.498 206.801C313.671 210.144 310.635 210.386 309.828 210.386Z" fill="#020023"/>
<path d="M329.133 195.415H329.01C328.961 195.4 328.916 195.377 328.878 195.346C328.839 195.316 328.807 195.278 328.784 195.236C328.761 195.194 328.748 195.148 328.744 195.101C328.741 195.054 328.748 195.007 328.764 194.963C329.764 192.155 331.251 189.516 333.169 187.146C335.036 184.807 337.218 182.696 339.663 180.864C339.735 180.798 339.833 180.761 339.935 180.761C340.037 180.761 340.134 180.798 340.207 180.864C340.242 180.895 340.27 180.933 340.289 180.975C340.308 181.016 340.317 181.061 340.317 181.106C340.317 181.151 340.308 181.196 340.289 181.238C340.27 181.279 340.242 181.317 340.207 181.348C337.837 183.16 335.71 185.226 333.871 187.502C332.015 189.807 330.57 192.369 329.589 195.092C329.572 195.189 329.515 195.276 329.43 195.336C329.345 195.396 329.239 195.425 329.133 195.415Z" fill="#020023"/>
<path d="M338.82 192.621C338.721 192.621 338.625 192.586 338.553 192.523C338.481 192.46 338.439 192.373 338.434 192.282C338.432 191.175 338.665 190.078 339.119 189.052C340.196 186.981 341.403 184.97 342.734 183.028C342.788 182.95 342.874 182.894 342.972 182.873C343.071 182.851 343.174 182.867 343.26 182.915C343.346 182.965 343.406 183.044 343.429 183.134C343.452 183.225 343.436 183.32 343.383 183.4C342.093 185.307 340.921 187.281 339.873 189.31C339.445 190.262 339.23 191.284 339.242 192.314C339.244 192.361 339.236 192.408 339.219 192.452C339.202 192.495 339.175 192.536 339.141 192.57C339.107 192.605 339.065 192.633 339.019 192.653C338.973 192.672 338.924 192.684 338.873 192.686L338.82 192.621Z" fill="#020023"/>
<path d="M316.76 216.41L316.479 212.776L316.742 212.679C316.742 212.679 323.552 210.241 326.904 208.593C328.306 208.02 329.607 207.258 330.765 206.332L331.291 205.751L332.046 209.465L331.835 209.595C331.835 209.595 327.781 212.098 324.815 213.568C322.374 214.688 319.824 215.596 317.199 216.281L316.76 216.41ZM317.286 213.18L317.462 215.409C319.879 214.764 322.229 213.921 324.482 212.889C327.009 211.613 330.344 209.659 331.204 209.078L330.817 207.172C329.71 207.923 328.535 208.587 327.307 209.159C324.254 210.741 318.585 212.825 317.286 213.293V213.18Z" fill="#020023"/>
<path d="M328.676 276.165C327.083 276.078 325.533 275.653 324.149 274.921C322.051 274.052 320.086 272.934 318.304 271.594L318.199 271.498V271.352C318.199 271.352 318.111 267.266 317.883 263.374C317.655 259.482 314.496 226.972 313.689 219.898C313.195 216.309 313.131 212.68 313.496 209.078C313.513 208.985 313.568 208.902 313.649 208.845C313.731 208.788 313.833 208.761 313.934 208.771C314.034 208.787 314.123 208.838 314.182 208.913C314.241 208.989 314.266 209.083 314.25 209.175C313.906 212.719 313.977 216.287 314.461 219.818C315.251 226.907 318.41 259.466 318.655 263.326C318.866 266.814 318.936 270.399 318.954 271.191C320.678 272.402 322.537 273.441 324.5 274.291C328.624 276.246 330.08 275.147 330.098 275.131C330.175 275.067 330.276 275.034 330.38 275.038C330.484 275.043 330.581 275.085 330.651 275.156C330.721 275.226 330.757 275.32 330.752 275.415C330.747 275.51 330.701 275.6 330.624 275.664C330.059 276.036 329.369 276.213 328.676 276.165Z" fill="#020023"/>
<path d="M329.94 269.883H329.817C327.097 269.043 320.726 266.976 320.393 265.942C320.354 265.872 320.334 265.795 320.334 265.716C320.334 265.637 320.354 265.56 320.393 265.49C321.095 264.65 329.958 263.584 333.731 263.164C333.781 263.158 333.831 263.16 333.88 263.172C333.929 263.184 333.974 263.205 334.014 263.234C334.053 263.263 334.086 263.299 334.109 263.339C334.133 263.38 334.148 263.425 334.152 263.471C334.159 263.517 334.156 263.564 334.143 263.608C334.13 263.653 334.108 263.695 334.076 263.731C334.045 263.768 334.006 263.798 333.962 263.82C333.917 263.842 333.869 263.855 333.819 263.859C329.554 264.229 325.325 264.887 321.165 265.829C323.96 267.222 326.899 268.353 329.94 269.204C330.018 269.236 330.082 269.291 330.123 269.361C330.163 269.43 330.177 269.51 330.163 269.587C330.149 269.665 330.108 269.736 330.045 269.789C329.982 269.843 329.902 269.876 329.817 269.883H329.94Z" fill="#020023"/>
<path d="M331.781 259.692L323.193 262.435L323.446 263.106L332.034 260.363L331.781 259.692Z" fill="#020023"/>
<path d="M304.984 324.13H304.879C304.829 324.119 304.783 324.099 304.742 324.071C304.702 324.042 304.668 324.006 304.643 323.965C304.618 323.924 304.603 323.879 304.598 323.833C304.594 323.786 304.599 323.739 304.615 323.694L306.37 318.026L318.252 317.283C318.302 317.278 318.354 317.283 318.402 317.297C318.451 317.311 318.496 317.334 318.535 317.364C318.575 317.394 318.607 317.43 318.631 317.472C318.654 317.514 318.669 317.559 318.673 317.606C318.674 317.701 318.637 317.793 318.569 317.864C318.501 317.936 318.407 317.982 318.304 317.993L306.967 318.688L305.423 323.888C305.394 323.971 305.334 324.041 305.253 324.086C305.172 324.13 305.077 324.146 304.984 324.13Z" fill="#020023"/>
<path d="M345.068 215.877H344.91C344.817 215.838 344.745 215.767 344.709 215.68C344.672 215.592 344.676 215.494 344.717 215.409C344.717 215.409 346.314 212.179 348.034 208.448C348.967 206.561 349.189 204.441 348.666 202.424C348.576 202.008 348.518 201.588 348.49 201.164C348.49 199.549 348.719 193.622 348.736 193.364C348.735 193.317 348.746 193.271 348.767 193.228C348.788 193.185 348.818 193.147 348.857 193.117C348.895 193.086 348.94 193.063 348.989 193.05C349.038 193.037 349.089 193.034 349.14 193.041C349.19 193.041 349.239 193.05 349.285 193.068C349.331 193.086 349.372 193.113 349.407 193.146C349.441 193.179 349.468 193.219 349.485 193.262C349.503 193.305 349.511 193.35 349.508 193.396C349.508 193.396 349.192 199.63 349.263 201.148C349.286 201.54 349.345 201.929 349.438 202.311C349.982 204.477 349.735 206.747 348.736 208.771C346.981 212.453 345.419 215.732 345.419 215.732C345.378 215.781 345.325 215.82 345.264 215.845C345.202 215.871 345.135 215.882 345.068 215.877Z" fill="#020023"/>
<path d="M345.068 215.877C344.974 215.878 344.883 215.847 344.812 215.791C344.741 215.734 344.695 215.656 344.682 215.57C344.667 215.478 344.691 215.384 344.75 215.309C344.809 215.233 344.898 215.182 344.998 215.166C348.494 214.527 351.668 212.854 354.036 210.402C356.44 207.689 359.494 206.801 365.566 205.04C368.778 204.12 372.762 202.973 377.974 201.164C383.601 199.071 389.446 197.518 395.419 196.529C396.457 196.397 397.48 196.175 398.473 195.867C400.491 195.157 404.843 188.131 406.37 185.483C406.392 185.442 406.423 185.405 406.461 185.376C406.499 185.346 406.543 185.324 406.591 185.31C406.639 185.296 406.689 185.292 406.738 185.296C406.788 185.301 406.836 185.315 406.879 185.337C406.924 185.359 406.964 185.389 406.997 185.426C407.029 185.462 407.054 185.504 407.068 185.549C407.083 185.594 407.088 185.642 407.082 185.688C407.077 185.735 407.062 185.781 407.037 185.822C406.476 186.807 401.404 195.512 398.736 196.529C397.703 196.852 396.64 197.085 395.559 197.224C389.629 198.205 383.824 199.748 378.238 201.827C372.973 203.635 369.006 204.798 365.795 205.719C359.863 207.431 356.897 208.303 354.633 210.854C352.157 213.452 348.809 215.214 345.121 215.861L345.068 215.877Z" fill="#020023"/>
<path d="M401.895 198.806C401.105 198.806 400.982 198.58 400.93 198.467C400.579 197.773 403.211 194.721 408.739 189.375C408.811 189.315 408.905 189.282 409.002 189.282C409.099 189.283 409.193 189.317 409.264 189.378C409.334 189.439 409.378 189.523 409.385 189.612C409.392 189.701 409.362 189.79 409.301 189.859C406.497 192.399 403.948 195.167 401.684 198.128C404.471 197.78 407.203 197.135 409.828 196.206C409.923 196.175 410.028 196.179 410.12 196.219C410.212 196.258 410.283 196.329 410.319 196.416C410.353 196.504 410.348 196.601 410.306 196.685C410.263 196.77 410.186 196.836 410.091 196.868C407.468 197.855 404.71 198.508 401.895 198.806Z" fill="#020023"/>
<path d="M400.035 241.782L400.473 234.966L404.843 233.804L413.513 232.382L412.636 238.422H412.372C412.372 238.422 410.424 238.875 408.862 239.391C407.3 239.908 400.895 241.539 400.631 241.604L400.035 241.782ZM401.211 235.515L400.86 240.845C402.457 240.425 407.178 239.23 408.529 238.778C409.88 238.326 411.354 237.986 411.934 237.841L412.618 233.254L405.036 234.482L401.211 235.515Z" fill="#020023"/>
<path d="M364.759 181.09H363.987C363.987 180.961 365.11 167.879 365.9 161.807C366.058 160.58 366.058 160.499 366.462 160.547C366.865 160.596 366.707 160.547 366.742 160.983C366.731 161.091 366.731 161.199 366.742 161.306C366.742 162.372 366.462 164.908 365.812 170.996C365.303 176.035 364.759 181.09 364.759 181.09Z" fill="#020023"/>
<path d="M351.193 210.79H351.035C350.942 210.751 350.87 210.68 350.834 210.592C350.797 210.505 350.8 210.407 350.842 210.321C350.842 210.321 353.352 205.476 354.668 201.988C355.446 199.841 355.786 197.579 355.668 195.318C355.663 195.271 355.669 195.224 355.684 195.18C355.699 195.135 355.723 195.093 355.756 195.057C355.789 195.021 355.829 194.991 355.874 194.97C355.919 194.948 355.969 194.935 356.019 194.931C356.069 194.926 356.119 194.931 356.167 194.945C356.215 194.959 356.259 194.982 356.297 195.012C356.334 195.042 356.365 195.079 356.387 195.121C356.408 195.162 356.421 195.208 356.423 195.254C356.575 197.614 356.223 199.978 355.387 202.214C354.071 205.719 351.562 210.564 351.544 210.628C351.504 210.679 351.451 210.721 351.39 210.749C351.329 210.777 351.261 210.791 351.193 210.79Z" fill="#020023"/>
<path d="M358.283 103.683C358.12 103.704 357.955 103.704 357.792 103.683H357.529L357.107 99.8876L357.388 99.7907C357.94 99.5692 358.554 99.5127 359.143 99.6292C359.271 99.6925 359.371 99.7955 359.424 99.9199C359.531 101.163 359.376 102.413 358.968 103.602C358.758 103.704 358.514 103.733 358.283 103.683ZM358.283 102.972H358.441C358.633 102.046 358.733 101.105 358.74 100.162C358.483 100.177 358.23 100.22 357.985 100.291L358.283 102.972Z" fill="#020023"/>
<path d="M349.929 104.119C349.403 104.119 349.298 104.022 349.227 103.974L349.087 103.861V103.635C349.087 103.231 349.368 100.986 349.368 100.889V100.614H349.649C356.265 99.6132 356.3 99.7262 356.423 100.082C356.385 101.05 356.116 101.998 355.633 102.859C355.556 103.009 355.446 103.142 355.31 103.251C355.174 103.359 355.015 103.44 354.843 103.489C353.227 103.823 351.583 104.034 349.929 104.119ZM349.929 103.408C351.56 103.304 353.18 103.083 354.773 102.746C355.107 102.746 355.616 101.228 355.738 100.485C354.843 100.485 352.422 100.889 350.158 101.228C350.017 101.923 349.894 102.908 349.859 103.36L349.929 103.408Z" fill="#020023"/>
<path d="M357.616 102.213L355.703 102.116C355.653 102.114 355.603 102.103 355.557 102.083C355.511 102.063 355.47 102.036 355.435 102.001C355.401 101.967 355.375 101.926 355.357 101.882C355.34 101.838 355.332 101.792 355.335 101.745C355.337 101.699 355.349 101.654 355.371 101.612C355.393 101.571 355.423 101.534 355.461 101.504C355.499 101.473 355.543 101.451 355.591 101.437C355.638 101.423 355.689 101.418 355.738 101.422L357.651 101.519C357.702 101.521 357.752 101.532 357.798 101.552C357.844 101.572 357.885 101.6 357.919 101.634C357.954 101.669 357.98 101.709 357.997 101.753C358.015 101.797 358.022 101.844 358.02 101.89C358.011 101.982 357.964 102.066 357.889 102.127C357.814 102.187 357.716 102.218 357.616 102.213Z" fill="#020023"/>
<path d="M349.736 100.921C349.736 100.921 346.648 96.6902 345.647 96.4802C344.647 96.2703 342.962 97.7238 342.962 97.7238L343.366 97.9983C343.366 97.9983 344.7 96.9163 345.296 97.5138C345.893 98.1114 349.14 103.828 349.14 103.828L349.736 100.921Z" fill="#020023"/>
<defs>
<linearGradient id="paint0_linear" x1="568.018" y1="210.101" x2="622.008" y2="206.121" gradientUnits="userSpaceOnUse">
<stop offset="0.06" stop-color="white"/>
<stop offset="0.43" stop-color="white"/>
<stop offset="1" stop-color="white"/>
</linearGradient>
<linearGradient id="paint1_linear" x1="6509.73" y1="1922.98" x2="7538.39" y2="1922.98" gradientUnits="userSpaceOnUse">
<stop offset="0.06" stop-color="white"/>
<stop offset="0.43" stop-color="white"/>
<stop offset="1" stop-color="white"/>
</linearGradient>
<linearGradient id="paint2_linear" x1="7212.74" y1="11004" x2="15961.1" y2="12295" gradientUnits="userSpaceOnUse">
<stop offset="0.06" stop-color="white"/>
<stop offset="0.43" stop-color="white"/>
<stop offset="1" stop-color="white"/>
</linearGradient>
<linearGradient id="paint3_linear" x1="31715.5" y1="14177.6" x2="38876.5" y2="14255.4" gradientUnits="userSpaceOnUse">
<stop offset="0.06" stop-color="white"/>
<stop offset="0.43" stop-color="white"/>
<stop offset="1" stop-color="white"/>
</linearGradient>
<linearGradient id="paint4_linear" x1="444.779" y1="2031.56" x2="449.659" y2="2029.13" gradientUnits="userSpaceOnUse">
<stop offset="0.06" stop-color="white"/>
<stop offset="0.43" stop-color="white"/>
<stop offset="1" stop-color="white"/>
</linearGradient>
<linearGradient id="paint5_linear" x1="427.254" y1="426" x2="-164.989" y2="453.091" gradientUnits="userSpaceOnUse">
<stop stop-color="#4758A5" stop-opacity="0.55"/>
<stop offset="0.66124" stop-color="#4758A5" stop-opacity="0"/>
</linearGradient>
<linearGradient id="paint6_linear" x1="612.358" y1="376" x2="-484.298" y2="376" gradientUnits="userSpaceOnUse">
<stop offset="0.0549233" stop-color="#4758A5" stop-opacity="0.43"/>
<stop offset="0.528143" stop-color="#4758A5" stop-opacity="0"/>
<stop offset="1" stop-color="#4758A5" stop-opacity="0"/>
</linearGradient>
<linearGradient id="paint7_linear" x1="476.218" y1="273.284" x2="427.633" y2="229.401" gradientUnits="userSpaceOnUse">
<stop offset="0.09" stop-color="#9CD9C7"/>
<stop offset="0.87" stop-color="#DAFFC8"/>
</linearGradient>
<linearGradient id="paint8_linear" x1="-12324.1" y1="2975.38" x2="-12596.6" y2="1976.67" gradientUnits="userSpaceOnUse">
<stop offset="0.09" stop-color="#9CD9C7"/>
<stop offset="0.87" stop-color="#DAFFC8"/>
</linearGradient>
<linearGradient id="paint9_linear" x1="23561.4" y1="6065.36" x2="26664.5" y2="6065.36" gradientUnits="userSpaceOnUse">
<stop offset="0.09" stop-color="#9CD9C7"/>
<stop offset="0.87" stop-color="#DAFFC8"/>
</linearGradient>
<linearGradient id="paint10_linear" x1="-13920.3" y1="-10571.2" x2="-13930.6" y2="-11496.6" gradientUnits="userSpaceOnUse">
<stop offset="0.06" stop-color="white"/>
<stop offset="0.43" stop-color="white"/>
<stop offset="1" stop-color="white"/>
</linearGradient>
<linearGradient id="paint11_linear" x1="-12722.1" y1="-5544.63" x2="-12935.5" y2="-6610.53" gradientUnits="userSpaceOnUse">
<stop offset="0.06" stop-color="white"/>
<stop offset="0.43" stop-color="white"/>
<stop offset="1" stop-color="white"/>
</linearGradient>
<linearGradient id="paint12_linear" x1="-12769.3" y1="1150.91" x2="-12892.1" y2="115.816" gradientUnits="userSpaceOnUse">
<stop offset="0.09" stop-color="#9CD9C7"/>
<stop offset="0.87" stop-color="#DAFFC8"/>
</linearGradient>
<linearGradient id="paint13_linear" x1="-12802.8" y1="230.065" x2="-12826.3" y2="-712.716" gradientUnits="userSpaceOnUse">
<stop offset="0.09" stop-color="#9CD9C7"/>
<stop offset="0.87" stop-color="#DAFFC8"/>
</linearGradient>
<linearGradient id="paint14_linear" x1="489.832" y1="229.632" x2="461.628" y2="227.122" gradientUnits="userSpaceOnUse">
<stop offset="0.17" stop-color="#E0F3F4"/>
<stop offset="0.79" stop-color="#4D98A0"/>
</linearGradient>
<linearGradient id="paint15_linear" x1="491.054" y1="195.974" x2="481.627" y2="213.457" gradientUnits="userSpaceOnUse">
<stop offset="0.06" stop-color="white"/>
<stop offset="1" stop-color="white"/>
</linearGradient>
<linearGradient id="paint16_linear" x1="-14250.2" y1="3443.63" x2="-14671.2" y2="2266.28" gradientUnits="userSpaceOnUse">
<stop offset="0.09" stop-color="#9CD9C7"/>
<stop offset="0.87" stop-color="#DAFFC8"/>
</linearGradient>
<linearGradient id="paint17_linear" x1="335.95" y1="360.997" x2="300.539" y2="322.516" gradientUnits="userSpaceOnUse">
<stop offset="0.25" stop-color="#9CD9C7"/>
<stop offset="0.62" stop-color="#DAFFC8"/>
</linearGradient>
<linearGradient id="paint18_linear" x1="299.586" y1="254.21" x2="363.286" y2="249.515" gradientUnits="userSpaceOnUse">
<stop offset="0.12" stop-color="#0A2D51"/>
<stop offset="0.86" stop-color="#19437F"/>
<stop offset="1" stop-color="#0A2D51"/>
</linearGradient>
<linearGradient id="paint19_linear" x1="299.73" y1="258.782" x2="348.384" y2="255.196" gradientUnits="userSpaceOnUse">
<stop offset="0.12" stop-color="#0A2D51"/>
<stop offset="1" stop-color="#0A2D51"/>
</linearGradient>
<linearGradient id="paint20_linear" x1="305.456" y1="166.789" x2="368.124" y2="162.171" gradientUnits="userSpaceOnUse">
<stop offset="0.11" stop-color="#FFFFA4"/>
<stop offset="0.41" stop-color="#FFD234"/>
<stop offset="0.8" stop-color="#FF9200"/>
</linearGradient>
<linearGradient id="paint21_linear" x1="310.941" y1="169.604" x2="368.862" y2="110.431" gradientUnits="userSpaceOnUse">
<stop offset="0.12" stop-color="#0A2D51"/>
<stop offset="0.49" stop-color="#19437F"/>
</linearGradient>
<linearGradient id="paint22_linear" x1="3389.86" y1="5971.83" x2="3489.18" y2="5971.83" gradientUnits="userSpaceOnUse">
<stop offset="0.12" stop-color="#0A2D51"/>
<stop offset="1" stop-color="#0A2D51"/>
</linearGradient>
<linearGradient id="paint23_linear" x1="10803.4" y1="3125.32" x2="12057.9" y2="3125.32" gradientUnits="userSpaceOnUse">
<stop offset="0.12" stop-color="#0A2D51"/>
<stop offset="1" stop-color="#0A2D51"/>
</linearGradient>
<linearGradient id="paint24_linear" x1="12638.9" y1="5540.14" x2="15214.9" y2="3666.03" gradientUnits="userSpaceOnUse">
<stop offset="0.12" stop-color="#0A2D51"/>
<stop offset="0.49" stop-color="#19437F"/>
</linearGradient>
<linearGradient id="paint25_linear" x1="4553.29" y1="997.816" x2="4477.18" y2="1131.4" gradientUnits="userSpaceOnUse">
<stop offset="0.11" stop-color="#FFFFA4"/>
<stop offset="0.41" stop-color="#FFD234"/>
<stop offset="0.8" stop-color="#FF9200"/>
</linearGradient>
<linearGradient id="paint26_linear" x1="1610.57" y1="787.239" x2="1568.68" y2="825.814" gradientUnits="userSpaceOnUse">
<stop offset="0.11" stop-color="#FFFFA4"/>
<stop offset="0.41" stop-color="#FFD234"/>
<stop offset="0.8" stop-color="#FF9200"/>
</linearGradient>
<linearGradient id="paint27_linear" x1="8927.78" y1="498.081" x2="9593.04" y2="498.081" gradientUnits="userSpaceOnUse">
<stop offset="0.06" stop-color="white"/>
<stop offset="0.43" stop-color="white"/>
<stop offset="1" stop-color="white"/>
</linearGradient>
<linearGradient id="paint28_linear" x1="2683.32" y1="1126.03" x2="2715.25" y2="1126.03" gradientUnits="userSpaceOnUse">
<stop offset="0.06" stop-color="white"/>
<stop offset="0.43" stop-color="white"/>
<stop offset="1" stop-color="white"/>
</linearGradient>
<linearGradient id="paint29_linear" x1="14410.4" y1="8238.86" x2="17047.2" y2="8238.86" gradientUnits="userSpaceOnUse">
<stop offset="0.12" stop-color="#0A2D51"/>
<stop offset="1" stop-color="#0A2D51"/>
</linearGradient>
</defs>
</svg>
