<svg width="1206" height="600" viewBox="0 0 1206 600" fill="none" xmlns="http://www.w3.org/2000/svg">
<path d="M649.202 14.4128C649.06 15.916 648.505 17.0903 647.537 17.9354C646.569 18.7742 645.282 19.1936 643.676 19.1936C642.553 19.1936 641.563 18.929 640.705 18.4C639.853 17.8645 639.195 17.1064 638.73 16.1257C638.266 15.145 638.024 14.0063 638.005 12.7095V11.3933C638.005 10.0642 638.24 8.89322 638.711 7.88028C639.182 6.86735 639.856 6.08668 640.734 5.53827C641.618 4.98987 642.637 4.71566 643.792 4.71566C645.347 4.71566 646.598 5.13826 647.547 5.98345C648.495 6.82864 649.047 8.02222 649.202 9.56421H646.763C646.647 8.55127 646.35 7.82222 645.873 7.37704C645.402 6.92541 644.708 6.6996 643.792 6.6996C642.727 6.6996 641.908 7.08994 641.334 7.87061C640.766 8.64482 640.476 9.78357 640.463 11.2868V12.5353C640.463 14.0579 640.734 15.2192 641.276 16.0193C641.824 16.8193 642.624 17.2193 643.676 17.2193C644.637 17.2193 645.36 17.0032 645.844 16.5709C646.327 16.1386 646.634 15.4192 646.763 14.4128H649.202ZM650.295 13.6676C650.295 12.6417 650.498 11.7191 650.904 10.8997C651.311 10.0739 651.882 9.44162 652.617 9.0029C653.353 8.55772 654.198 8.33514 655.153 8.33514C656.566 8.33514 657.711 8.78999 658.589 9.6997C659.472 10.6094 659.95 11.8159 660.021 13.3192L660.031 13.8708C660.031 14.9031 659.831 15.8257 659.43 16.6386C659.037 17.4516 658.469 18.0806 657.727 18.5258C656.992 18.971 656.14 19.1936 655.172 19.1936C653.695 19.1936 652.511 18.7032 651.621 17.7225C650.737 16.7354 650.295 15.4225 650.295 13.7837V13.6676ZM652.646 13.8708C652.646 14.9483 652.869 15.7934 653.314 16.4064C653.759 17.0128 654.379 17.3161 655.172 17.3161C655.966 17.3161 656.582 17.0064 657.021 16.387C657.466 15.7676 657.689 14.8612 657.689 13.6676C657.689 12.6095 657.459 11.7707 657.001 11.1514C656.55 10.532 655.934 10.2223 655.153 10.2223C654.385 10.2223 653.775 10.5288 653.324 11.1417C652.872 11.7482 652.646 12.6579 652.646 13.8708ZM664.085 19H661.733V4.135H664.085V19ZM668.72 19H666.368V4.135H668.72V19ZM675.465 19.1936C673.975 19.1936 672.765 18.7258 671.836 17.7903C670.913 16.8483 670.452 15.5967 670.452 14.0353V13.745C670.452 12.6998 670.652 11.7675 671.052 10.9481C671.458 10.1223 672.026 9.48034 672.755 9.02226C673.484 8.56418 674.297 8.33514 675.194 8.33514C676.62 8.33514 677.72 8.78999 678.494 9.6997C679.275 10.6094 679.665 11.8965 679.665 13.5611V14.5095H672.823C672.894 15.3741 673.181 16.058 673.684 16.5612C674.194 17.0645 674.833 17.3161 675.6 17.3161C676.678 17.3161 677.555 16.8806 678.233 16.0096L679.5 17.2193C679.081 17.8451 678.52 18.3322 677.817 18.6806C677.12 19.0226 676.336 19.1936 675.465 19.1936ZM675.184 10.2223C674.539 10.2223 674.016 10.4481 673.616 10.8997C673.223 11.3514 672.971 11.9804 672.862 12.7869H677.342V12.6127C677.291 11.8256 677.081 11.232 676.713 10.832C676.346 10.4255 675.836 10.2223 675.184 10.2223ZM685.365 17.3161C685.952 17.3161 686.439 17.1451 686.826 16.8032C687.213 16.4612 687.42 16.0386 687.445 15.5354H689.662C689.636 16.187 689.433 16.7967 689.052 17.3645C688.671 17.9258 688.155 18.3709 687.503 18.7C686.852 19.029 686.149 19.1936 685.394 19.1936C683.929 19.1936 682.768 18.7193 681.91 17.7709C681.052 16.8225 680.623 15.5128 680.623 13.8418V13.5998C680.623 12.0062 681.048 10.732 681.9 9.77712C682.752 8.8158 683.913 8.33514 685.384 8.33514C686.629 8.33514 687.642 8.69966 688.423 9.42872C689.21 10.1513 689.623 11.103 689.662 12.2837H687.445C687.42 11.6836 687.213 11.1901 686.826 10.803C686.445 10.4158 685.958 10.2223 685.365 10.2223C684.603 10.2223 684.016 10.4997 683.603 11.0546C683.19 11.603 682.981 12.4385 682.974 13.5611V13.9385C682.974 15.0741 683.177 15.9225 683.584 16.4838C683.997 17.0386 684.59 17.3161 685.365 17.3161ZM693.948 5.98345V8.52869H695.797V10.2707H693.948V16.116C693.948 16.516 694.026 16.8064 694.181 16.987C694.342 17.1612 694.626 17.2483 695.032 17.2483C695.303 17.2483 695.577 17.2161 695.855 17.1516V18.971C695.319 19.1194 694.803 19.1936 694.306 19.1936C692.5 19.1936 691.597 18.1967 691.597 16.2031V10.2707H689.874V8.52869H691.597V5.98345H693.948ZM699.667 19H697.316V8.52869H699.667V19ZM697.17 5.80925C697.17 5.44795 697.283 5.14794 697.509 4.90922C697.741 4.6705 698.07 4.55114 698.496 4.55114C698.922 4.55114 699.251 4.6705 699.483 4.90922C699.716 5.14794 699.832 5.44795 699.832 5.80925C699.832 6.1641 699.716 6.46088 699.483 6.6996C699.251 6.93187 698.922 7.048 698.496 7.048C698.07 7.048 697.741 6.93187 697.509 6.6996C697.283 6.46088 697.17 6.1641 697.17 5.80925ZM705.493 16.0193L707.709 8.52869H710.138L706.509 19H704.467L700.809 8.52869H703.247L705.493 16.0193ZM715.654 19.1936C714.163 19.1936 712.954 18.7258 712.025 17.7903C711.102 16.8483 710.641 15.5967 710.641 14.0353V13.745C710.641 12.6998 710.841 11.7675 711.241 10.9481C711.647 10.1223 712.215 9.48034 712.944 9.02226C713.673 8.56418 714.486 8.33514 715.383 8.33514C716.809 8.33514 717.909 8.78999 718.683 9.6997C719.464 10.6094 719.854 11.8965 719.854 13.5611V14.5095H713.012C713.083 15.3741 713.37 16.058 713.873 16.5612C714.383 17.0645 715.022 17.3161 715.789 17.3161C716.867 17.3161 717.744 16.8806 718.422 16.0096L719.689 17.2193C719.27 17.8451 718.709 18.3322 718.005 18.6806C717.309 19.0226 716.525 19.1936 715.654 19.1936ZM715.373 10.2223C714.728 10.2223 714.205 10.4481 713.805 10.8997C713.412 11.3514 713.16 11.9804 713.05 12.7869H717.531V12.6127C717.48 11.8256 717.27 11.232 716.902 10.832C716.534 10.4255 716.025 10.2223 715.373 10.2223ZM655.709 31.8835H651.315V44H648.886V31.8835H644.531V29.9092H655.709V31.8835ZM659.222 34.6707C659.989 33.7803 660.96 33.3351 662.135 33.3351C664.367 33.3351 665.499 34.6094 665.531 37.1578V44H663.18V37.2449C663.18 36.5223 663.022 36.0126 662.706 35.7159C662.396 35.4126 661.938 35.261 661.331 35.261C660.389 35.261 659.686 35.6804 659.222 36.5191V44H656.87V29.135H659.222V34.6707ZM669.983 44H667.631V33.5287H669.983V44ZM667.486 30.8092C667.486 30.4479 667.599 30.1479 667.825 29.9092C668.057 29.6705 668.386 29.5511 668.812 29.5511C669.238 29.5511 669.567 29.6705 669.799 29.9092C670.031 30.1479 670.147 30.4479 670.147 30.8092C670.147 31.1641 670.031 31.4609 669.799 31.6996C669.567 31.9319 669.238 32.048 668.812 32.048C668.386 32.048 668.057 31.9319 667.825 31.6996C667.599 31.4609 667.486 31.1641 667.486 30.8092ZM674.298 33.5287L674.366 34.7384C675.14 33.8029 676.157 33.3351 677.415 33.3351C679.595 33.3351 680.705 34.5836 680.744 37.0804V44H678.392V37.2159C678.392 36.5514 678.247 36.061 677.957 35.7449C677.673 35.4223 677.205 35.261 676.553 35.261C675.605 35.261 674.898 35.6901 674.434 36.5481V44H672.082V33.5287H674.298ZM686.114 39.5095L685.069 40.5838V44H682.718V29.135H685.069V37.7095L685.805 36.7901L688.698 33.5287H691.524L687.634 37.8933L691.94 44H689.221L686.114 39.5095ZM695.134 44H692.782V33.5287H695.134V44ZM692.637 30.8092C692.637 30.4479 692.75 30.1479 692.975 29.9092C693.208 29.6705 693.537 29.5511 693.963 29.5511C694.388 29.5511 694.717 29.6705 694.95 29.9092C695.182 30.1479 695.298 30.4479 695.298 30.8092C695.298 31.1641 695.182 31.4609 694.95 31.6996C694.717 31.9319 694.388 32.048 693.963 32.048C693.537 32.048 693.208 31.9319 692.975 31.6996C692.75 31.4609 692.637 31.1641 692.637 30.8092ZM699.449 33.5287L699.517 34.7384C700.291 33.8029 701.307 33.3351 702.565 33.3351C704.746 33.3351 705.856 34.5836 705.895 37.0804V44H703.543V37.2159C703.543 36.5514 703.398 36.061 703.107 35.7449C702.824 35.4223 702.356 35.261 701.704 35.261C700.756 35.261 700.049 35.6901 699.585 36.5481V44H697.233V33.5287H699.449ZM707.452 38.6869C707.452 37.0611 707.833 35.7642 708.594 34.7965C709.362 33.8222 710.378 33.3351 711.643 33.3351C712.836 33.3351 713.775 33.7513 714.459 34.5836L714.565 33.5287H716.685V43.6806C716.685 45.0549 716.256 46.1388 715.398 46.9324C714.546 47.7259 713.394 48.1227 711.943 48.1227C711.175 48.1227 710.423 47.9614 709.688 47.6388C708.959 47.3227 708.404 46.9065 708.023 46.3904L709.136 44.9775C709.859 45.8355 710.749 46.2646 711.807 46.2646C712.588 46.2646 713.204 46.0517 713.656 45.6259C714.107 45.2065 714.333 44.5871 714.333 43.7677V43.0613C713.656 43.8161 712.752 44.1936 711.623 44.1936C710.397 44.1936 709.394 43.7064 708.614 42.7322C707.839 41.758 707.452 40.4096 707.452 38.6869ZM709.794 38.8902C709.794 39.9418 710.007 40.7709 710.433 41.3773C710.865 41.9774 711.462 42.2774 712.223 42.2774C713.172 42.2774 713.875 41.8709 714.333 41.058V36.4514C713.888 35.6578 713.191 35.261 712.243 35.261C711.468 35.261 710.865 35.5675 710.433 36.1804C710.007 36.7933 709.794 37.6966 709.794 38.8902Z" fill="#ED6859"/>
<path d="M945.976 38H943.527L937.246 28.0029V38H934.798V23.9092H937.246L943.547 33.945V23.9092H945.976V38ZM952.817 38.1936C951.327 38.1936 950.117 37.7258 949.188 36.7903C948.266 35.8483 947.804 34.5967 947.804 33.0353V32.745C947.804 31.6998 948.004 30.7675 948.404 29.9481C948.811 29.1223 949.378 28.4803 950.108 28.0223C950.837 27.5642 951.65 27.3351 952.546 27.3351C953.972 27.3351 955.072 27.79 955.846 28.6997C956.627 29.6094 957.017 30.8965 957.017 32.5611V33.5095H950.175C950.246 34.3741 950.533 35.058 951.037 35.5612C951.546 36.0645 952.185 36.3161 952.953 36.3161C954.03 36.3161 954.908 35.8806 955.585 35.0096L956.853 36.2193C956.434 36.8451 955.872 37.3322 955.169 37.6806C954.472 38.0226 953.688 38.1936 952.817 38.1936ZM952.537 29.2223C951.891 29.2223 951.369 29.4481 950.969 29.8997C950.575 30.3514 950.324 30.9804 950.214 31.7869H954.695V31.6127C954.643 30.8256 954.433 30.232 954.066 29.832C953.698 29.4255 953.188 29.2223 952.537 29.2223ZM958.004 32.6869C958.004 31.0611 958.385 29.7642 959.146 28.7965C959.914 27.8222 960.93 27.3351 962.194 27.3351C963.388 27.3351 964.327 27.7513 965.011 28.5836L965.117 27.5287H967.237V37.6806C967.237 39.0549 966.808 40.1388 965.949 40.9324C965.098 41.7259 963.946 42.1227 962.495 42.1227C961.727 42.1227 960.975 41.9614 960.24 41.6388C959.511 41.3227 958.956 40.9065 958.575 40.3904L959.688 38.9775C960.411 39.8355 961.301 40.2646 962.359 40.2646C963.14 40.2646 963.756 40.0517 964.207 39.6259C964.659 39.2065 964.885 38.5871 964.885 37.7677V37.0613C964.207 37.8161 963.304 38.1936 962.175 38.1936C960.949 38.1936 959.946 37.7064 959.165 36.7322C958.391 35.758 958.004 34.4096 958.004 32.6869ZM960.346 32.8902C960.346 33.9418 960.559 34.7709 960.985 35.3773C961.417 35.9774 962.014 36.2774 962.775 36.2774C963.724 36.2774 964.427 35.8709 964.885 35.058V30.4514C964.44 29.6578 963.743 29.261 962.795 29.261C962.02 29.261 961.417 29.5675 960.985 30.1804C960.559 30.7933 960.346 31.6966 960.346 32.8902ZM968.784 32.6676C968.784 31.6417 968.988 30.7191 969.394 29.8997C969.801 29.0739 970.372 28.4416 971.107 28.0029C971.843 27.5577 972.688 27.3351 973.643 27.3351C975.056 27.3351 976.201 27.79 977.078 28.6997C977.962 29.6094 978.44 30.8159 978.511 32.3192L978.52 32.8708C978.52 33.9031 978.32 34.8257 977.92 35.6386C977.527 36.4516 976.959 37.0806 976.217 37.5258C975.481 37.971 974.63 38.1936 973.662 38.1936C972.185 38.1936 971.001 37.7032 970.11 36.7225C969.226 35.7354 968.784 34.4225 968.784 32.7837V32.6676ZM971.136 32.8708C971.136 33.9483 971.359 34.7934 971.804 35.4064C972.249 36.0128 972.868 36.3161 973.662 36.3161C974.456 36.3161 975.072 36.0064 975.511 35.387C975.956 34.7676 976.178 33.8612 976.178 32.6676C976.178 31.6095 975.949 30.7707 975.491 30.1514C975.04 29.532 974.423 29.2223 973.643 29.2223C972.875 29.2223 972.265 29.5288 971.814 30.1417C971.362 30.7482 971.136 31.6579 971.136 32.8708ZM983.02 24.9834V27.5287H984.868V29.2707H983.02V35.116C983.02 35.516 983.097 35.8064 983.252 35.987C983.413 36.1612 983.697 36.2483 984.104 36.2483C984.375 36.2483 984.649 36.2161 984.926 36.1516V37.971C984.391 38.1194 983.875 38.1936 983.378 38.1936C981.571 38.1936 980.668 37.1967 980.668 35.2031V29.2707H978.946V27.5287H980.668V24.9834H983.02ZM992.494 38C992.391 37.8 992.3 37.4742 992.223 37.0225C991.474 37.8032 990.558 38.1936 989.474 38.1936C988.423 38.1936 987.565 37.8935 986.9 37.2935C986.236 36.6935 985.903 35.9515 985.903 35.0676C985.903 33.9515 986.316 33.0966 987.142 32.503C987.974 31.903 989.161 31.603 990.703 31.603H992.145V30.9159C992.145 30.3739 991.994 29.9417 991.691 29.6191C991.387 29.29 990.926 29.1255 990.307 29.1255C989.771 29.1255 989.332 29.261 988.991 29.532C988.649 29.7965 988.478 30.1352 988.478 30.5481H986.126C986.126 29.9739 986.316 29.4384 986.697 28.9416C987.078 28.4384 987.594 28.0448 988.245 27.761C988.903 27.4771 989.636 27.3351 990.442 27.3351C991.668 27.3351 992.645 27.6448 993.375 28.2642C994.104 28.8771 994.478 29.7417 994.497 30.8578V35.5806C994.497 36.5225 994.629 37.2742 994.894 37.8355V38H992.494ZM989.91 36.3064C990.374 36.3064 990.81 36.1935 991.216 35.9677C991.629 35.7419 991.939 35.4386 992.145 35.058V33.0837H990.878C990.007 33.0837 989.352 33.2353 988.913 33.5386C988.474 33.8418 988.255 34.2708 988.255 34.8257C988.255 35.2773 988.403 35.6386 988.7 35.9096C989.003 36.1741 989.407 36.3064 989.91 36.3064ZM999.026 38H996.674V27.5287H999.026V38ZM996.529 24.8092C996.529 24.4479 996.642 24.1479 996.868 23.9092C997.1 23.6705 997.429 23.5511 997.855 23.5511C998.281 23.5511 998.61 23.6705 998.842 23.9092C999.074 24.1479 999.19 24.4479 999.19 24.8092C999.19 25.1641 999.074 25.4609 998.842 25.6996C998.61 25.9319 998.281 26.048 997.855 26.048C997.429 26.048 997.1 25.9319 996.868 25.6996C996.642 25.4609 996.529 25.1641 996.529 24.8092ZM1004.11 24.9834V27.5287H1005.95V29.2707H1004.11V35.116C1004.11 35.516 1004.18 35.8064 1004.34 35.987C1004.5 36.1612 1004.78 36.2483 1005.19 36.2483C1005.46 36.2483 1005.74 36.2161 1006.01 36.1516V37.971C1005.48 38.1194 1004.96 38.1936 1004.46 38.1936C1002.66 38.1936 1001.75 37.1967 1001.75 35.2031V29.2707H1000.03V27.5287H1001.75V24.9834H1004.11ZM1009.83 38H1007.47V27.5287H1009.83V38ZM1007.33 24.8092C1007.33 24.4479 1007.44 24.1479 1007.67 23.9092C1007.9 23.6705 1008.23 23.5511 1008.65 23.5511C1009.08 23.5511 1009.41 23.6705 1009.64 23.9092C1009.87 24.1479 1009.99 24.4479 1009.99 24.8092C1009.99 25.1641 1009.87 25.4609 1009.64 25.6996C1009.41 25.9319 1009.08 26.048 1008.65 26.048C1008.23 26.048 1007.9 25.9319 1007.67 25.6996C1007.44 25.4609 1007.33 25.1641 1007.33 24.8092ZM1011.52 32.6676C1011.52 31.6417 1011.72 30.7191 1012.13 29.8997C1012.53 29.0739 1013.11 28.4416 1013.84 28.0029C1014.58 27.5577 1015.42 27.3351 1016.38 27.3351C1017.79 27.3351 1018.93 27.79 1019.81 28.6997C1020.7 29.6094 1021.17 30.8159 1021.24 32.3192L1021.25 32.8708C1021.25 33.9031 1021.05 34.8257 1020.65 35.6386C1020.26 36.4516 1019.69 37.0806 1018.95 37.5258C1018.22 37.971 1017.36 38.1936 1016.4 38.1936C1014.92 38.1936 1013.73 37.7032 1012.84 36.7225C1011.96 35.7354 1011.52 34.4225 1011.52 32.7837V32.6676ZM1013.87 32.8708C1013.87 33.9483 1014.09 34.7934 1014.54 35.4064C1014.98 36.0128 1015.6 36.3161 1016.4 36.3161C1017.19 36.3161 1017.81 36.0064 1018.24 35.387C1018.69 34.7676 1018.91 33.8612 1018.91 32.6676C1018.91 31.6095 1018.68 30.7707 1018.22 30.1514C1017.77 29.532 1017.16 29.2223 1016.38 29.2223C1015.61 29.2223 1015 29.5288 1014.55 30.1417C1014.1 30.7482 1013.87 31.6579 1013.87 32.8708ZM1024.99 27.5287L1025.06 28.7384C1025.83 27.8029 1026.85 27.3351 1028.11 27.3351C1030.29 27.3351 1031.4 28.5836 1031.43 31.0804V38H1029.08V31.2159C1029.08 30.5514 1028.94 30.061 1028.65 29.7449C1028.36 29.4223 1027.9 29.261 1027.24 29.261C1026.3 29.261 1025.59 29.6901 1025.12 30.5481V38H1022.77V27.5287H1024.99Z" fill="#2A5698"/>
<line x1="680" y1="61.9894" x2="681" y2="155.989" stroke="#ED6859" stroke-width="2" stroke-dasharray="2 2"/>
<line x1="980" y1="61.9894" x2="981" y2="155.989" stroke="#2A5698" stroke-width="2" stroke-dasharray="2 2"/>
<circle cx="680" cy="56" r="3" fill="#ED6859"/>
<circle cx="980" cy="56" r="3" fill="#2A5698"/>
<path d="M351.39 14.4128C351.248 15.916 350.693 17.0903 349.726 17.9354C348.758 18.7742 347.471 19.1936 345.864 19.1936C344.742 19.1936 343.751 18.929 342.893 18.4C342.041 17.8645 341.383 17.1064 340.919 16.1257C340.454 15.145 340.212 14.0063 340.193 12.7095V11.3933C340.193 10.0642 340.429 8.89322 340.9 7.88028C341.37 6.86735 342.045 6.08668 342.922 5.53827C343.806 4.98987 344.825 4.71566 345.98 4.71566C347.535 4.71566 348.787 5.13826 349.735 5.98345C350.684 6.82864 351.235 8.02222 351.39 9.56421H348.951C348.835 8.55127 348.538 7.82222 348.061 7.37704C347.59 6.92541 346.896 6.6996 345.98 6.6996C344.916 6.6996 344.096 7.08994 343.522 7.87061C342.954 8.64482 342.664 9.78357 342.651 11.2868V12.5353C342.651 14.0579 342.922 15.2192 343.464 16.0193C344.013 16.8193 344.813 17.2193 345.864 17.2193C346.826 17.2193 347.548 17.0032 348.032 16.5709C348.516 16.1386 348.822 15.4192 348.951 14.4128H351.39ZM352.483 13.6676C352.483 12.6417 352.686 11.7191 353.093 10.8997C353.499 10.0739 354.07 9.44162 354.806 9.0029C355.541 8.55772 356.387 8.33514 357.341 8.33514C358.754 8.33514 359.9 8.78999 360.777 9.6997C361.661 10.6094 362.138 11.8159 362.209 13.3192L362.219 13.8708C362.219 14.9031 362.019 15.8257 361.619 16.6386C361.225 17.4516 360.658 18.0806 359.916 18.5258C359.18 18.971 358.329 19.1936 357.361 19.1936C355.883 19.1936 354.699 18.7032 353.809 17.7225C352.925 16.7354 352.483 15.4225 352.483 13.7837V13.6676ZM354.835 13.8708C354.835 14.9483 355.057 15.7934 355.503 16.4064C355.948 17.0128 356.567 17.3161 357.361 17.3161C358.154 17.3161 358.771 17.0064 359.209 16.387C359.654 15.7676 359.877 14.8612 359.877 13.6676C359.877 12.6095 359.648 11.7707 359.19 11.1514C358.738 10.532 358.122 10.2223 357.341 10.2223C356.574 10.2223 355.964 10.5288 355.512 11.1417C355.061 11.7482 354.835 12.6579 354.835 13.8708ZM363.36 13.6869C363.36 12.0611 363.741 10.7642 364.502 9.79647C365.27 8.82225 366.286 8.33514 367.551 8.33514C368.744 8.33514 369.683 8.75128 370.367 9.58356L370.474 8.52869H372.593V18.6806C372.593 20.0549 372.164 21.1388 371.306 21.9324C370.454 22.7259 369.303 23.1227 367.851 23.1227C367.083 23.1227 366.332 22.9614 365.596 22.6388C364.867 22.3227 364.312 21.9065 363.931 21.3904L365.044 19.9775C365.767 20.8355 366.657 21.2646 367.715 21.2646C368.496 21.2646 369.112 21.0517 369.564 20.6259C370.015 20.2065 370.241 19.5871 370.241 18.7677V18.0613C369.564 18.8161 368.661 19.1936 367.532 19.1936C366.306 19.1936 365.302 18.7064 364.522 17.7322C363.748 16.758 363.36 15.4096 363.36 13.6869ZM365.702 13.8902C365.702 14.9418 365.915 15.7709 366.341 16.3773C366.773 16.9774 367.37 17.2774 368.132 17.2774C369.08 17.2774 369.783 16.8709 370.241 16.058V11.4514C369.796 10.6578 369.099 10.261 368.151 10.261C367.377 10.261 366.773 10.5675 366.341 11.1804C365.915 11.7933 365.702 12.6966 365.702 13.8902ZM376.764 8.52869L376.831 9.73841C377.606 8.80289 378.622 8.33514 379.88 8.33514C382.061 8.33514 383.17 9.58356 383.209 12.0804V19H380.857V12.2159C380.857 11.5514 380.712 11.061 380.422 10.7449C380.138 10.4223 379.67 10.261 379.018 10.261C378.07 10.261 377.364 10.6901 376.899 11.5481V19H374.547V8.52869H376.764ZM387.68 19H385.328V8.52869H387.68V19ZM385.183 5.80925C385.183 5.44795 385.296 5.14794 385.521 4.90922C385.754 4.6705 386.083 4.55114 386.508 4.55114C386.934 4.55114 387.263 4.6705 387.496 4.90922C387.728 5.14794 387.844 5.44795 387.844 5.80925C387.844 6.1641 387.728 6.46088 387.496 6.6996C387.263 6.93187 386.934 7.048 386.508 7.048C386.083 7.048 385.754 6.93187 385.521 6.6996C385.296 6.46088 385.183 6.1641 385.183 5.80925ZM392.76 5.98345V8.52869H394.608V10.2707H392.76V16.116C392.76 16.516 392.837 16.8064 392.992 16.987C393.153 17.1612 393.437 17.2483 393.844 17.2483C394.115 17.2483 394.389 17.2161 394.666 17.1516V18.971C394.131 19.1194 393.615 19.1936 393.118 19.1936C391.311 19.1936 390.408 18.1967 390.408 16.2031V10.2707H388.685V8.52869H390.408V5.98345H392.76ZM398.479 19H396.127V8.52869H398.479V19ZM395.982 5.80925C395.982 5.44795 396.095 5.14794 396.321 4.90922C396.553 4.6705 396.882 4.55114 397.308 4.55114C397.734 4.55114 398.063 4.6705 398.295 4.90922C398.527 5.14794 398.643 5.44795 398.643 5.80925C398.643 6.1641 398.527 6.46088 398.295 6.6996C398.063 6.93187 397.734 7.048 397.308 7.048C396.882 7.048 396.553 6.93187 396.321 6.6996C396.095 6.46088 395.982 6.1641 395.982 5.80925ZM404.304 16.0193L406.52 8.52869H408.95L405.32 19H403.278L399.62 8.52869H402.059L404.304 16.0193ZM414.465 19.1936C412.975 19.1936 411.765 18.7258 410.836 17.7903C409.914 16.8483 409.452 15.5967 409.452 14.0353V13.745C409.452 12.6998 409.652 11.7675 410.052 10.9481C410.459 10.1223 411.026 9.48034 411.756 9.02226C412.485 8.56418 413.298 8.33514 414.194 8.33514C415.62 8.33514 416.72 8.78999 417.494 9.6997C418.275 10.6094 418.665 11.8965 418.665 13.5611V14.5095H411.823C411.894 15.3741 412.181 16.058 412.685 16.5612C413.194 17.0645 413.833 17.3161 414.601 17.3161C415.678 17.3161 416.556 16.8806 417.233 16.0096L418.501 17.2193C418.082 17.8451 417.52 18.3322 416.817 18.6806C416.12 19.0226 415.336 19.1936 414.465 19.1936ZM414.185 10.2223C413.539 10.2223 413.017 10.4481 412.617 10.8997C412.223 11.3514 411.972 11.9804 411.862 12.7869H416.343V12.6127C416.291 11.8256 416.081 11.232 415.714 10.832C415.346 10.4255 414.836 10.2223 414.185 10.2223ZM351.086 38.0288H345.414V44H342.966V29.9092H351.918V31.8835H345.414V36.0739H351.086V38.0288ZM355.701 44H353.35V29.135H355.701V44ZM362.446 44.1936C360.956 44.1936 359.746 43.7258 358.817 42.7903C357.894 41.8483 357.433 40.5967 357.433 39.0353V38.745C357.433 37.6998 357.633 36.7675 358.033 35.9481C358.44 35.1223 359.007 34.4803 359.736 34.0223C360.465 33.5642 361.278 33.3351 362.175 33.3351C363.601 33.3351 364.701 33.79 365.475 34.6997C366.256 35.6094 366.646 36.8965 366.646 38.5611V39.5095H359.804C359.875 40.3741 360.162 41.058 360.665 41.5612C361.175 42.0645 361.814 42.3161 362.582 42.3161C363.659 42.3161 364.537 41.8806 365.214 41.0096L366.482 42.2193C366.062 42.8451 365.501 43.3322 364.798 43.6806C364.101 44.0226 363.317 44.1936 362.446 44.1936ZM362.166 35.2223C361.52 35.2223 360.998 35.4481 360.598 35.8997C360.204 36.3514 359.953 36.9804 359.843 37.7869H364.324V37.6127C364.272 36.8256 364.062 36.232 363.695 35.832C363.327 35.4255 362.817 35.2223 362.166 35.2223ZM371.804 36.974L373.798 33.5287H376.411L373.207 38.6869L376.517 44H373.923L371.833 40.4192L369.752 44H367.139L370.449 38.6869L367.255 33.5287H369.849L371.804 36.974ZM380.078 44H377.726V33.5287H380.078V44ZM377.581 30.8092C377.581 30.4479 377.694 30.1479 377.92 29.9092C378.152 29.6705 378.481 29.5511 378.907 29.5511C379.333 29.5511 379.662 29.6705 379.894 29.9092C380.126 30.1479 380.242 30.4479 380.242 30.8092C380.242 31.1641 380.126 31.4609 379.894 31.6996C379.662 31.9319 379.333 32.048 378.907 32.048C378.481 32.048 378.152 31.9319 377.92 31.6996C377.694 31.4609 377.581 31.1641 377.581 30.8092ZM391.4 38.8708C391.4 40.4967 391.036 41.7903 390.307 42.7516C389.584 43.7129 388.587 44.1936 387.316 44.1936C386.09 44.1936 385.136 43.7516 384.452 42.8677L384.336 44H382.206V29.135H384.558V34.5352C385.236 33.7351 386.149 33.3351 387.297 33.3351C388.574 33.3351 389.578 33.8093 390.307 34.7578C391.036 35.7062 391.4 37.032 391.4 38.7353V38.8708ZM389.049 38.6676C389.049 37.532 388.849 36.6804 388.449 36.1126C388.049 35.5449 387.468 35.261 386.707 35.261C385.687 35.261 384.971 35.7062 384.558 36.5965V40.9128C384.978 41.8225 385.7 42.2774 386.726 42.2774C387.461 42.2774 388.029 42.0032 388.429 41.4548C388.829 40.9064 389.036 40.0773 389.049 38.9676V38.6676ZM395.445 44H393.093V33.5287H395.445V44ZM392.948 30.8092C392.948 30.4479 393.061 30.1479 393.287 29.9092C393.519 29.6705 393.848 29.5511 394.274 29.5511C394.7 29.5511 395.029 29.6705 395.261 29.9092C395.493 30.1479 395.61 30.4479 395.61 30.8092C395.61 31.1641 395.493 31.4609 395.261 31.6996C395.029 31.9319 394.7 32.048 394.274 32.048C393.848 32.048 393.519 31.9319 393.287 31.6996C393.061 31.4609 392.948 31.1641 392.948 30.8092ZM400.08 44H397.728V29.135H400.08V44ZM404.715 44H402.364V33.5287H404.715V44ZM402.218 30.8092C402.218 30.4479 402.331 30.1479 402.557 29.9092C402.789 29.6705 403.118 29.5511 403.544 29.5511C403.97 29.5511 404.299 29.6705 404.531 29.9092C404.764 30.1479 404.88 30.4479 404.88 30.8092C404.88 31.1641 404.764 31.4609 404.531 31.6996C404.299 31.9319 403.97 32.048 403.544 32.048C403.118 32.048 402.789 31.9319 402.557 31.6996C402.331 31.4609 402.218 31.1641 402.218 30.8092ZM409.796 30.9834V33.5287H411.644V35.2707H409.796V41.116C409.796 41.516 409.873 41.8064 410.028 41.987C410.189 42.1612 410.473 42.2483 410.879 42.2483C411.15 42.2483 411.425 42.2161 411.702 42.1516V43.971C411.167 44.1194 410.65 44.1936 410.154 44.1936C408.347 44.1936 407.444 43.1967 407.444 41.2031V35.2707H405.721V33.5287H407.444V30.9834H409.796ZM416.676 40.6321L418.805 33.5287H421.311L417.15 45.5871C416.511 47.3485 415.427 48.2292 413.898 48.2292C413.556 48.2292 413.179 48.1711 412.766 48.055V46.2356L413.211 46.2646C413.805 46.2646 414.25 46.1549 414.547 45.9355C414.85 45.7226 415.089 45.3613 415.263 44.8516L415.602 43.9516L411.924 33.5287H414.46L416.676 40.6321Z" fill="#4098BE"/>
<line x1="380" y1="61.9894" x2="381" y2="155.989" stroke="#4098BE" stroke-width="2" stroke-dasharray="2 2"/>
<circle cx="380" cy="56" r="3" fill="#4098BE"/>
<path d="M51.3266 17.4128C51.1847 18.916 50.6298 20.0903 49.662 20.9354C48.6943 21.7742 47.4071 22.1936 45.8006 22.1936C44.678 22.1936 43.6876 21.929 42.8295 21.4C41.9779 20.8645 41.3198 20.1064 40.8553 19.1257C40.3908 18.145 40.1488 17.0063 40.1295 15.7095V14.3933C40.1295 13.0642 40.365 11.8932 40.8359 10.8803C41.3069 9.86735 41.9811 9.08668 42.8586 8.53827C43.7425 7.98987 44.7619 7.71566 45.9167 7.71566C47.4716 7.71566 48.7233 8.13826 49.6717 8.98345C50.6201 9.82864 51.1718 11.0222 51.3266 12.5642H48.8878C48.7717 11.5513 48.4749 10.8222 47.9975 10.377C47.5265 9.92541 46.8329 9.6996 45.9167 9.6996C44.8522 9.6996 44.0328 10.0899 43.4586 10.8706C42.8908 11.6448 42.6005 12.7836 42.5876 14.2868V15.5353C42.5876 17.0579 42.8586 18.2192 43.4005 19.0193C43.9489 19.8193 44.749 20.2193 45.8006 20.2193C46.7619 20.2193 47.4845 20.0032 47.9684 19.5709C48.4523 19.1386 48.7588 18.4192 48.8878 17.4128H51.3266ZM52.4196 16.6676C52.4196 15.6417 52.6229 14.7191 53.0293 13.8997C53.4358 13.0739 54.0068 12.4416 54.7423 12.0029C55.4778 11.5577 56.323 11.3351 57.2779 11.3351C58.6908 11.3351 59.836 11.79 60.7135 12.6997C61.5974 13.6094 62.0748 14.8159 62.1458 16.3192L62.1554 16.8708C62.1554 17.9031 61.9554 18.8257 61.5554 19.6386C61.1619 20.4516 60.5941 21.0806 59.8521 21.5258C59.1166 21.971 58.265 22.1936 57.2972 22.1936C55.8197 22.1936 54.6358 21.7032 53.7455 20.7225C52.8616 19.7354 52.4196 18.4225 52.4196 16.7837V16.6676ZM54.7713 16.8708C54.7713 17.9483 54.9939 18.7934 55.4391 19.4064C55.8843 20.0128 56.5036 20.3161 57.2972 20.3161C58.0908 20.3161 58.7069 20.0064 59.1457 19.387C59.5908 18.7676 59.8134 17.8612 59.8134 16.6676C59.8134 15.6095 59.5844 14.7707 59.1263 14.1514C58.6747 13.532 58.0585 13.2223 57.2779 13.2223C56.5101 13.2223 55.9004 13.5288 55.4488 14.1417C54.9971 14.7482 54.7713 15.6579 54.7713 16.8708ZM65.9195 11.5287L65.9873 12.6223C66.7228 11.7642 67.7293 11.3351 69.0067 11.3351C70.4068 11.3351 71.3649 11.8706 71.881 12.9416C72.6423 11.8706 73.7133 11.3351 75.094 11.3351C76.2489 11.3351 77.107 11.6545 77.6683 12.2932C78.2361 12.932 78.5264 13.8739 78.5393 15.1191V22H76.1876V15.1869C76.1876 14.5223 76.0424 14.0352 75.7521 13.7255C75.4618 13.4158 74.9811 13.261 74.3101 13.261C73.7746 13.261 73.3359 13.4062 72.994 13.6965C72.6585 13.9804 72.423 14.3546 72.2875 14.8191L72.2972 22H69.9455V15.1095C69.9132 13.8772 69.2842 13.261 68.0583 13.261C67.1163 13.261 66.4486 13.6449 66.055 14.4127V22H63.7033V11.5287H65.9195ZM89.6875 16.8708C89.6875 18.4902 89.3198 19.7838 88.5842 20.7516C87.8487 21.7129 86.8616 22.1936 85.6229 22.1936C84.4744 22.1936 83.555 21.8161 82.8647 21.0613V26.0259H80.513V11.5287H82.6808L82.7776 12.5932C83.4679 11.7545 84.4067 11.3351 85.5938 11.3351C86.8713 11.3351 87.8713 11.8126 88.5939 12.7674C89.323 13.7159 89.6875 15.0353 89.6875 16.7256V16.8708ZM87.3455 16.6676C87.3455 15.6224 87.1358 14.7933 86.7164 14.1804C86.3035 13.5675 85.71 13.261 84.9357 13.261C83.9744 13.261 83.2841 13.6578 82.8647 14.4514V19.0967C83.2905 19.9096 83.9873 20.3161 84.9551 20.3161C85.7035 20.3161 86.2874 20.0161 86.7068 19.416C87.1326 18.8096 87.3455 17.8934 87.3455 16.6676ZM93.7516 22H91.3999V7.135H93.7516V22ZM100.496 22.1936C99.0061 22.1936 97.7964 21.7258 96.8673 20.7903C95.9447 19.8483 95.4834 18.5967 95.4834 17.0353V16.745C95.4834 15.6998 95.6834 14.7675 96.0834 13.9481C96.4899 13.1223 97.0576 12.4803 97.7867 12.0223C98.5157 11.5642 99.3287 11.3351 100.225 11.3351C101.651 11.3351 102.751 11.79 103.526 12.6997C104.306 13.6094 104.697 14.8965 104.697 16.5611V17.5095H97.8544C97.9254 18.3741 98.2125 19.058 98.7158 19.5612C99.2254 20.0645 99.8642 20.3161 100.632 20.3161C101.709 20.3161 102.587 19.8806 103.264 19.0096L104.532 20.2193C104.113 20.8451 103.551 21.3322 102.848 21.6806C102.151 22.0226 101.367 22.1936 100.496 22.1936ZM100.216 13.2223C99.5706 13.2223 99.048 13.4481 98.648 13.8997C98.2544 14.3514 98.0028 14.9804 97.8931 15.7869H102.374V15.6127C102.322 14.8256 102.113 14.232 101.745 13.832C101.377 13.4255 100.867 13.2223 100.216 13.2223ZM109.854 14.974L111.848 11.5287H114.461L111.258 16.6869L114.567 22H111.974L109.883 18.4192L107.803 22H105.19L108.499 16.6869L105.306 11.5287H107.899L109.854 14.974ZM13.6192 41.7643V47H11.1707V32.9092H16.5612C18.1355 32.9092 19.3839 33.3189 20.3065 34.1383C21.2356 34.9577 21.7001 36.0416 21.7001 37.39C21.7001 38.7707 21.2453 39.8449 20.3356 40.6127C19.4323 41.3805 18.1645 41.7643 16.5322 41.7643H13.6192ZM13.6192 39.7998H16.5612C17.4322 39.7998 18.0968 39.5965 18.5549 39.1901C19.0129 38.7772 19.242 38.1836 19.242 37.4094C19.242 36.6481 19.0097 36.0416 18.5452 35.59C18.0806 35.1319 17.4419 34.8964 16.629 34.8835H13.6192V39.7998ZM28.6675 38.6771C28.3579 38.6255 28.0385 38.5997 27.7094 38.5997C26.632 38.5997 25.9062 39.0126 25.532 39.8385V47H23.1803V36.5287H25.4255L25.4836 37.6997C26.0513 36.79 26.8384 36.3351 27.8449 36.3351C28.1804 36.3351 28.4579 36.3803 28.6772 36.4706L28.6675 38.6771ZM28.9283 41.6676C28.9283 40.6417 29.1315 39.7191 29.538 38.8997C29.9445 38.0739 30.5154 37.4416 31.251 37.0029C31.9865 36.5577 32.8317 36.3351 33.7865 36.3351C35.1995 36.3351 36.3447 36.79 37.2221 37.6997C38.106 38.6094 38.5835 39.8159 38.6544 41.3192L38.6641 41.8708C38.6641 42.9031 38.4641 43.8257 38.0641 44.6386C37.6705 45.4516 37.1028 46.0806 36.3608 46.5258C35.6253 46.971 34.7736 47.1936 33.8059 47.1936C32.3284 47.1936 31.1445 46.7032 30.2541 45.7225C29.3702 44.7354 28.9283 43.4225 28.9283 41.7837V41.6676ZM31.28 41.8708C31.28 42.9483 31.5026 43.7934 31.9478 44.4064C32.3929 45.0128 33.0123 45.3161 33.8059 45.3161C34.5995 45.3161 35.2156 45.0064 35.6543 44.387C36.0995 43.7676 36.3221 42.8612 36.3221 41.6676C36.3221 40.6095 36.093 39.7707 35.635 39.1514C35.1833 38.532 34.5672 38.2223 33.7865 38.2223C33.0188 38.2223 32.4091 38.5288 31.9574 39.1417C31.5058 39.7482 31.28 40.6579 31.28 41.8708ZM49.4058 41.8708C49.4058 43.4967 49.0413 44.7903 48.3123 45.7516C47.5897 46.7129 46.5928 47.1936 45.3218 47.1936C44.096 47.1936 43.1411 46.7516 42.4572 45.8677L42.3411 47H40.212V32.135H42.5637V37.5352C43.2411 36.7351 44.1541 36.3351 45.3025 36.3351C46.5799 36.3351 47.5832 36.8093 48.3123 37.7578C49.0413 38.7062 49.4058 40.032 49.4058 41.7353V41.8708ZM47.0542 41.6676C47.0542 40.532 46.8541 39.6804 46.4541 39.1126C46.0541 38.5449 45.4735 38.261 44.7121 38.261C43.6928 38.261 42.9766 38.7062 42.5637 39.5965V43.9128C42.9831 44.8225 43.7057 45.2774 44.7315 45.2774C45.467 45.2774 46.0348 45.0032 46.4348 44.4548C46.8348 43.9064 47.0412 43.0773 47.0542 41.9676V41.6676ZM53.4506 47H51.0989V32.135H53.4506V47ZM60.1954 47.1936C58.7051 47.1936 57.4953 46.7258 56.5663 45.7903C55.6437 44.8483 55.1824 43.5967 55.1824 42.0353V41.745C55.1824 40.6998 55.3824 39.7675 55.7824 38.9481C56.1888 38.1223 56.7566 37.4803 57.4857 37.0223C58.2147 36.5642 59.0277 36.3351 59.9245 36.3351C61.3503 36.3351 62.4503 36.79 63.2246 37.6997C64.0052 38.6094 64.3956 39.8965 64.3956 41.5611V42.5095H57.5534C57.6244 43.3741 57.9115 44.058 58.4147 44.5612C58.9244 45.0645 59.5632 45.3161 60.3309 45.3161C61.4084 45.3161 62.2858 44.8806 62.9633 44.0096L64.231 45.2193C63.8117 45.8451 63.2504 46.3322 62.5471 46.6806C61.8503 47.0226 61.0664 47.1936 60.1954 47.1936ZM59.9148 38.2223C59.2696 38.2223 58.747 38.4481 58.347 38.8997C57.9534 39.3514 57.7018 39.9804 57.5921 40.7869H62.0729V40.6127C62.0213 39.8256 61.8116 39.232 61.4439 38.832C61.0761 38.4255 60.5664 38.2223 59.9148 38.2223ZM68.0048 36.5287L68.0726 37.6223C68.8081 36.7642 69.8146 36.3351 71.092 36.3351C72.4921 36.3351 73.4502 36.8706 73.9663 37.9416C74.7276 36.8706 75.7986 36.3351 77.1793 36.3351C78.3342 36.3351 79.1923 36.6545 79.7536 37.2932C80.3214 37.932 80.6117 38.8739 80.6246 40.1191V47H78.2729V40.1869C78.2729 39.5223 78.1277 39.0352 77.8374 38.7255C77.5471 38.4158 77.0664 38.261 76.3954 38.261C75.8599 38.261 75.4212 38.4062 75.0792 38.6965C74.7438 38.9804 74.5083 39.3546 74.3728 39.8191L74.3824 47H72.0308V40.1095C71.9985 38.8772 71.3694 38.261 70.1436 38.261C69.2016 38.261 68.5339 38.6449 68.1403 39.4127V47H65.7886V36.5287H68.0048ZM94.6949 43.3708C94.6949 42.7515 94.4756 42.274 94.0368 41.9385C93.6046 41.6031 92.8207 41.2643 91.6852 40.9224C90.5496 40.5804 89.6464 40.1998 88.9754 39.7804C87.6915 38.9739 87.0495 37.9223 87.0495 36.6255C87.0495 35.4899 87.5108 34.5544 88.4334 33.8189C89.3625 33.0834 90.5658 32.7157 92.0432 32.7157C93.0239 32.7157 93.8981 32.8963 94.6659 33.2576C95.4337 33.6189 96.0369 34.1351 96.4756 34.8061C96.9144 35.4706 97.1337 36.2093 97.1337 37.0223H94.6949C94.6949 36.2867 94.4627 35.7125 93.9981 35.2996C93.54 34.8803 92.882 34.6706 92.0239 34.6706C91.2238 34.6706 90.6012 34.8415 90.1561 35.1835C89.7173 35.5254 89.498 36.0029 89.498 36.6158C89.498 37.1319 89.7367 37.5642 90.2141 37.9126C90.6916 38.2546 91.4787 38.59 92.5755 38.9191C93.6723 39.2417 94.553 39.6127 95.2175 40.032C95.8821 40.4449 96.3692 40.9224 96.6789 41.4643C96.9885 41.9998 97.1434 42.6289 97.1434 43.3515C97.1434 44.5257 96.6918 45.4612 95.7885 46.158C94.8917 46.8484 93.6723 47.1936 92.1303 47.1936C91.1109 47.1936 90.1722 47.0065 89.3141 46.6322C88.4625 46.2516 87.7979 45.729 87.3205 45.0645C86.8495 44.3999 86.614 43.6257 86.614 42.7418H89.0625C89.0625 43.5418 89.327 44.1612 89.8561 44.5999C90.3851 45.0386 91.1432 45.258 92.1303 45.258C92.982 45.258 93.6207 45.087 94.0465 44.7451C94.4788 44.3967 94.6949 43.9386 94.6949 43.3708ZM98.188 41.6676C98.188 40.6417 98.3913 39.7191 98.7977 38.8997C99.2042 38.0739 99.7752 37.4416 100.511 37.0029C101.246 36.5577 102.091 36.3351 103.046 36.3351C104.459 36.3351 105.604 36.79 106.482 37.6997C107.366 38.6094 107.843 39.8159 107.914 41.3192L107.924 41.8708C107.924 42.9031 107.724 43.8257 107.324 44.6386C106.93 45.4516 106.363 46.0806 105.621 46.5258C104.885 46.971 104.033 47.1936 103.066 47.1936C101.588 47.1936 100.404 46.7032 99.5139 45.7225C98.63 44.7354 98.188 43.4225 98.188 41.7837V41.6676ZM100.54 41.8708C100.54 42.9483 100.762 43.7934 101.208 44.4064C101.653 45.0128 102.272 45.3161 103.066 45.3161C103.859 45.3161 104.475 45.0064 104.914 44.387C105.359 43.7676 105.582 42.8612 105.582 41.6676C105.582 40.6095 105.353 39.7707 104.895 39.1514C104.443 38.532 103.827 38.2223 103.046 38.2223C102.279 38.2223 101.669 38.5288 101.217 39.1417C100.766 39.7482 100.54 40.6579 100.54 41.8708ZM111.978 47H109.627V32.135H111.978V47ZM117.804 44.0193L120.02 36.5287H122.449L118.82 47H116.778L113.12 36.5287H115.558L117.804 44.0193ZM125.991 47H123.639V36.5287H125.991V47ZM123.494 33.8092C123.494 33.4479 123.607 33.1479 123.832 32.9092C124.065 32.6705 124.394 32.5511 124.82 32.5511C125.245 32.5511 125.574 32.6705 125.807 32.9092C126.039 33.1479 126.155 33.4479 126.155 33.8092C126.155 34.1641 126.039 34.4609 125.807 34.6996C125.574 34.9319 125.245 35.048 124.82 35.048C124.394 35.048 124.065 34.9319 123.832 34.6996C123.607 34.4609 123.494 34.1641 123.494 33.8092ZM130.306 36.5287L130.374 37.7384C131.148 36.8029 132.164 36.3351 133.423 36.3351C135.603 36.3351 136.713 37.5836 136.752 40.0804V47H134.4V40.2159C134.4 39.5514 134.255 39.061 133.964 38.7449C133.681 38.4223 133.213 38.261 132.561 38.261C131.613 38.261 130.906 38.6901 130.442 39.5481V47H128.09V36.5287H130.306ZM138.309 41.6869C138.309 40.0611 138.69 38.7642 139.451 37.7965C140.219 36.8222 141.235 36.3351 142.5 36.3351C143.693 36.3351 144.632 36.7513 145.316 37.5836L145.422 36.5287H147.542V46.6806C147.542 48.0549 147.113 49.1388 146.255 49.9324C145.403 50.7259 144.251 51.1227 142.8 51.1227C142.032 51.1227 141.28 50.9614 140.545 50.6388C139.816 50.3227 139.261 49.9065 138.88 49.3904L139.993 47.9775C140.716 48.8355 141.606 49.2646 142.664 49.2646C143.445 49.2646 144.061 49.0517 144.513 48.6259C144.964 48.2065 145.19 47.5871 145.19 46.7677V46.0613C144.513 46.8161 143.609 47.1936 142.48 47.1936C141.254 47.1936 140.251 46.7064 139.471 45.7322C138.696 44.758 138.309 43.4096 138.309 41.6869ZM140.651 41.8902C140.651 42.9418 140.864 43.7709 141.29 44.3773C141.722 44.9774 142.319 45.2774 143.08 45.2774C144.029 45.2774 144.732 44.8709 145.19 44.058V39.4514C144.745 38.6578 144.048 38.261 143.1 38.261C142.325 38.261 141.722 38.5675 141.29 39.1804C140.864 39.7933 140.651 40.6966 140.651 41.8902Z" fill="#2A5698"/>
<line x1="75.9999" y1="64.9894" x2="77" y2="158.989" stroke="#2A5698" stroke-width="2" stroke-dasharray="2 2"/>
<circle cx="76" cy="59" r="3" fill="#2A5698"/>
<path d="M217.296 560.413C217.155 561.916 216.6 563.09 215.632 563.935C214.664 564.774 213.377 565.194 211.77 565.194C210.648 565.194 209.658 564.929 208.799 564.4C207.948 563.864 207.29 563.106 206.825 562.126C206.361 561.145 206.119 560.006 206.099 558.709V557.393C206.099 556.064 206.335 554.893 206.806 553.88C207.277 552.867 207.951 552.087 208.828 551.538C209.712 550.99 210.732 550.716 211.887 550.716C213.442 550.716 214.693 551.138 215.642 551.983C216.59 552.829 217.142 554.022 217.296 555.564H214.858C214.742 554.551 214.445 553.822 213.967 553.377C213.496 552.925 212.803 552.7 211.887 552.7C210.822 552.7 210.003 553.09 209.428 553.871C208.861 554.645 208.57 555.784 208.557 557.287V558.535C208.557 560.058 208.828 561.219 209.37 562.019C209.919 562.819 210.719 563.219 211.77 563.219C212.732 563.219 213.454 563.003 213.938 562.571C214.422 562.139 214.729 561.419 214.858 560.413H217.296ZM224.312 556.677C224.003 556.626 223.683 556.6 223.354 556.6C222.277 556.6 221.551 557.013 221.177 557.838V565H218.825V554.529H221.07L221.128 555.7C221.696 554.79 222.483 554.335 223.49 554.335C223.825 554.335 224.103 554.38 224.322 554.471L224.312 556.677ZM227.863 565H225.512V554.529H227.863V565ZM225.367 551.809C225.367 551.448 225.48 551.148 225.705 550.909C225.938 550.671 226.267 550.551 226.692 550.551C227.118 550.551 227.447 550.671 227.68 550.909C227.912 551.148 228.028 551.448 228.028 551.809C228.028 552.164 227.912 552.461 227.68 552.7C227.447 552.932 227.118 553.048 226.692 553.048C226.267 553.048 225.938 552.932 225.705 552.7C225.48 552.461 225.367 552.164 225.367 551.809ZM232.944 551.983V554.529H234.792V556.271H232.944V562.116C232.944 562.516 233.021 562.806 233.176 562.987C233.337 563.161 233.621 563.248 234.028 563.248C234.299 563.248 234.573 563.216 234.85 563.152V564.971C234.315 565.119 233.799 565.194 233.302 565.194C231.495 565.194 230.592 564.197 230.592 562.203V556.271H228.869V554.529H230.592V551.983H232.944ZM238.663 565H236.311V554.529H238.663V565ZM236.166 551.809C236.166 551.448 236.279 551.148 236.505 550.909C236.737 550.671 237.066 550.551 237.492 550.551C237.918 550.551 238.247 550.671 238.479 550.909C238.711 551.148 238.827 551.448 238.827 551.809C238.827 552.164 238.711 552.461 238.479 552.7C238.247 552.932 237.918 553.048 237.492 553.048C237.066 553.048 236.737 552.932 236.505 552.7C236.279 552.461 236.166 552.164 236.166 551.809ZM245.098 563.316C245.685 563.316 246.172 563.145 246.559 562.803C246.946 562.461 247.153 562.039 247.179 561.535H249.395C249.369 562.187 249.166 562.797 248.785 563.364C248.404 563.926 247.888 564.371 247.237 564.7C246.585 565.029 245.882 565.194 245.127 565.194C243.662 565.194 242.501 564.719 241.643 563.771C240.785 562.823 240.356 561.513 240.356 559.842V559.6C240.356 558.006 240.782 556.732 241.633 555.777C242.485 554.816 243.646 554.335 245.117 554.335C246.362 554.335 247.375 554.7 248.156 555.429C248.943 556.151 249.356 557.103 249.395 558.284H247.179C247.153 557.684 246.946 557.19 246.559 556.803C246.179 556.416 245.691 556.222 245.098 556.222C244.337 556.222 243.749 556.5 243.337 557.055C242.924 557.603 242.714 558.438 242.708 559.561V559.939C242.708 561.074 242.911 561.922 243.317 562.484C243.73 563.039 244.324 563.316 245.098 563.316ZM256.991 565C256.888 564.8 256.798 564.474 256.72 564.023C255.972 564.803 255.056 565.194 253.972 565.194C252.92 565.194 252.062 564.894 251.398 564.294C250.733 563.694 250.401 562.952 250.401 562.068C250.401 560.951 250.814 560.097 251.64 559.503C252.472 558.903 253.659 558.603 255.201 558.603H256.643V557.916C256.643 557.374 256.491 556.942 256.188 556.619C255.885 556.29 255.424 556.126 254.804 556.126C254.269 556.126 253.83 556.261 253.488 556.532C253.146 556.797 252.975 557.135 252.975 557.548H250.623C250.623 556.974 250.814 556.438 251.194 555.942C251.575 555.438 252.091 555.045 252.743 554.761C253.401 554.477 254.133 554.335 254.94 554.335C256.165 554.335 257.143 554.645 257.872 555.264C258.601 555.877 258.975 556.742 258.995 557.858V562.581C258.995 563.523 259.127 564.274 259.391 564.835V565H256.991ZM254.407 563.306C254.872 563.306 255.307 563.193 255.714 562.968C256.127 562.742 256.436 562.439 256.643 562.058V560.084H255.375C254.504 560.084 253.849 560.235 253.411 560.539C252.972 560.842 252.752 561.271 252.752 561.826C252.752 562.277 252.901 562.639 253.198 562.91C253.501 563.174 253.904 563.306 254.407 563.306ZM263.523 565H261.172V550.135H263.523V565ZM209.709 577.883H205.315V590H202.886V577.883H198.531V575.909H209.709V577.883ZM213.222 580.671C213.989 579.78 214.96 579.335 216.135 579.335C218.367 579.335 219.499 580.609 219.531 583.158V590H217.18V583.245C217.18 582.522 217.022 582.013 216.706 581.716C216.396 581.413 215.938 581.261 215.331 581.261C214.389 581.261 213.686 581.68 213.222 582.519V590H210.87V575.135H213.222V580.671ZM223.983 590H221.631V579.529H223.983V590ZM221.486 576.809C221.486 576.448 221.599 576.148 221.825 575.909C222.057 575.671 222.386 575.551 222.812 575.551C223.238 575.551 223.567 575.671 223.799 575.909C224.031 576.148 224.147 576.448 224.147 576.809C224.147 577.164 224.031 577.461 223.799 577.7C223.567 577.932 223.238 578.048 222.812 578.048C222.386 578.048 222.057 577.932 221.825 577.7C221.599 577.461 221.486 577.164 221.486 576.809ZM228.298 579.529L228.366 580.738C229.14 579.803 230.157 579.335 231.415 579.335C233.595 579.335 234.705 580.584 234.744 583.08V590H232.392V583.216C232.392 582.551 232.247 582.061 231.957 581.745C231.673 581.422 231.205 581.261 230.553 581.261C229.605 581.261 228.898 581.69 228.434 582.548V590H226.082V579.529H228.298ZM240.114 585.51L239.069 586.584V590H236.718V575.135H239.069V583.709L239.805 582.79L242.698 579.529H245.524L241.634 583.893L245.94 590H243.221L240.114 585.51ZM249.134 590H246.782V579.529H249.134V590ZM246.637 576.809C246.637 576.448 246.75 576.148 246.975 575.909C247.208 575.671 247.537 575.551 247.963 575.551C248.388 575.551 248.717 575.671 248.95 575.909C249.182 576.148 249.298 576.448 249.298 576.809C249.298 577.164 249.182 577.461 248.95 577.7C248.717 577.932 248.388 578.048 247.963 578.048C247.537 578.048 247.208 577.932 246.975 577.7C246.75 577.461 246.637 577.164 246.637 576.809ZM253.449 579.529L253.517 580.738C254.291 579.803 255.307 579.335 256.565 579.335C258.746 579.335 259.856 580.584 259.895 583.08V590H257.543V583.216C257.543 582.551 257.398 582.061 257.107 581.745C256.824 581.422 256.356 581.261 255.704 581.261C254.756 581.261 254.049 581.69 253.585 582.548V590H251.233V579.529H253.449ZM261.452 584.687C261.452 583.061 261.833 581.764 262.594 580.796C263.362 579.822 264.378 579.335 265.643 579.335C266.836 579.335 267.775 579.751 268.459 580.584L268.565 579.529H270.685V589.681C270.685 591.055 270.256 592.139 269.398 592.932C268.546 593.726 267.394 594.123 265.943 594.123C265.175 594.123 264.423 593.961 263.688 593.639C262.959 593.323 262.404 592.907 262.023 592.39L263.136 590.977C263.859 591.836 264.749 592.265 265.807 592.265C266.588 592.265 267.204 592.052 267.656 591.626C268.107 591.206 268.333 590.587 268.333 589.768V589.061C267.656 589.816 266.752 590.194 265.623 590.194C264.397 590.194 263.394 589.706 262.614 588.732C261.839 587.758 261.452 586.41 261.452 584.687ZM263.794 584.89C263.794 585.942 264.007 586.771 264.433 587.377C264.865 587.977 265.462 588.277 266.223 588.277C267.172 588.277 267.875 587.871 268.333 587.058V582.451C267.888 581.658 267.191 581.261 266.243 581.261C265.468 581.261 264.865 581.567 264.433 582.18C264.007 582.793 263.794 583.697 263.794 584.89Z" fill="#ED6859"/>
<line y1="-1" x2="94.0053" y2="-1" transform="matrix(0.0106378 -0.999943 -0.999943 -0.0106378 231 532)" stroke="#ED6859" stroke-width="2" stroke-dasharray="2 2"/>
<circle r="3" transform="matrix(1 0 0 -1 232 538)" fill="#ED6859"/>
<path d="M798.153 552.709H792.365V557.045H799.13V559H789.917V544.909H799.062V546.883H792.365V550.774H798.153V552.709ZM802.672 548.529L802.739 549.622C803.475 548.764 804.481 548.335 805.759 548.335C807.159 548.335 808.117 548.871 808.633 549.942C809.394 548.871 810.465 548.335 811.846 548.335C813.001 548.335 813.859 548.655 814.42 549.293C814.988 549.932 815.279 550.874 815.291 552.119V559H812.94V552.187C812.94 551.522 812.795 551.035 812.504 550.726C812.214 550.416 811.733 550.261 811.062 550.261C810.527 550.261 810.088 550.406 809.746 550.697C809.411 550.98 809.175 551.355 809.04 551.819L809.049 559H806.698V552.109C806.665 550.877 806.036 550.261 804.81 550.261C803.868 550.261 803.201 550.645 802.807 551.413V559H800.455V548.529H802.672ZM816.83 553.668C816.83 552.642 817.033 551.719 817.439 550.9C817.846 550.074 818.417 549.442 819.152 549.003C819.888 548.558 820.733 548.335 821.688 548.335C823.101 548.335 824.246 548.79 825.123 549.7C826.007 550.609 826.485 551.816 826.556 553.319L826.565 553.871C826.565 554.903 826.365 555.826 825.965 556.639C825.572 557.452 825.004 558.081 824.262 558.526C823.527 558.971 822.675 559.194 821.707 559.194C820.23 559.194 819.046 558.703 818.155 557.723C817.272 556.735 816.83 555.422 816.83 553.784V553.668ZM819.181 553.871C819.181 554.948 819.404 555.793 819.849 556.406C820.294 557.013 820.914 557.316 821.707 557.316C822.501 557.316 823.117 557.006 823.556 556.387C824.001 555.768 824.223 554.861 824.223 553.668C824.223 552.609 823.994 551.771 823.536 551.151C823.085 550.532 822.469 550.222 821.688 550.222C820.92 550.222 820.31 550.529 819.859 551.142C819.407 551.748 819.181 552.658 819.181 553.871ZM831.065 545.983V548.529H832.913V550.271H831.065V556.116C831.065 556.516 831.142 556.806 831.297 556.987C831.459 557.161 831.742 557.248 832.149 557.248C832.42 557.248 832.694 557.216 832.972 557.152V558.971C832.436 559.119 831.92 559.194 831.423 559.194C829.617 559.194 828.713 558.197 828.713 556.203V550.271H826.991V548.529H828.713V545.983H831.065ZM836.784 559H834.432V548.529H836.784V559ZM834.287 545.809C834.287 545.448 834.4 545.148 834.626 544.909C834.858 544.671 835.187 544.551 835.613 544.551C836.039 544.551 836.368 544.671 836.6 544.909C836.832 545.148 836.949 545.448 836.949 545.809C836.949 546.164 836.832 546.461 836.6 546.7C836.368 546.932 836.039 547.048 835.613 547.048C835.187 547.048 834.858 546.932 834.626 546.7C834.4 546.461 834.287 546.164 834.287 545.809ZM838.477 553.668C838.477 552.642 838.68 551.719 839.087 550.9C839.493 550.074 840.064 549.442 840.8 549.003C841.535 548.558 842.38 548.335 843.335 548.335C844.748 548.335 845.893 548.79 846.771 549.7C847.655 550.609 848.132 551.816 848.203 553.319L848.213 553.871C848.213 554.903 848.013 555.826 847.613 556.639C847.219 557.452 846.652 558.081 845.91 558.526C845.174 558.971 844.322 559.194 843.355 559.194C841.877 559.194 840.693 558.703 839.803 557.723C838.919 556.735 838.477 555.422 838.477 553.784V553.668ZM840.829 553.871C840.829 554.948 841.051 555.793 841.497 556.406C841.942 557.013 842.561 557.316 843.355 557.316C844.148 557.316 844.764 557.006 845.203 556.387C845.648 555.768 845.871 554.861 845.871 553.668C845.871 552.609 845.642 551.771 845.184 551.151C844.732 550.532 844.116 550.222 843.335 550.222C842.568 550.222 841.958 550.529 841.506 551.142C841.055 551.748 840.829 552.658 840.829 553.871ZM851.948 548.529L852.016 549.738C852.79 548.803 853.806 548.335 855.064 548.335C857.245 548.335 858.355 549.584 858.393 552.08V559H856.042V552.216C856.042 551.551 855.896 551.061 855.606 550.745C855.322 550.422 854.855 550.261 854.203 550.261C853.254 550.261 852.548 550.69 852.083 551.548V559H849.732V548.529H851.948ZM866.619 559C866.516 558.8 866.425 558.474 866.348 558.023C865.599 558.803 864.683 559.194 863.599 559.194C862.548 559.194 861.69 558.894 861.025 558.294C860.361 557.694 860.028 556.952 860.028 556.068C860.028 554.951 860.441 554.097 861.267 553.503C862.099 552.903 863.286 552.603 864.828 552.603H866.27V551.916C866.27 551.374 866.119 550.942 865.816 550.619C865.512 550.29 865.051 550.126 864.432 550.126C863.896 550.126 863.457 550.261 863.116 550.532C862.774 550.797 862.603 551.135 862.603 551.548H860.251C860.251 550.974 860.441 550.438 860.822 549.942C861.203 549.438 861.719 549.045 862.37 548.761C863.028 548.477 863.761 548.335 864.567 548.335C865.793 548.335 866.77 548.645 867.5 549.264C868.229 549.877 868.603 550.742 868.622 551.858V556.581C868.622 557.523 868.754 558.274 869.019 558.835V559H866.619ZM864.035 557.306C864.499 557.306 864.935 557.193 865.341 556.968C865.754 556.742 866.064 556.439 866.27 556.058V554.084H865.003C864.132 554.084 863.477 554.235 863.038 554.539C862.599 554.842 862.38 555.271 862.38 555.826C862.38 556.277 862.528 556.639 862.825 556.91C863.128 557.174 863.532 557.306 864.035 557.306ZM873.151 559H870.799V544.135H873.151V559ZM786.4 584H783.961V569.909H786.4V584ZM790.929 573.529L790.996 574.738C791.771 573.803 792.787 573.335 794.045 573.335C796.225 573.335 797.335 574.584 797.374 577.08V584H795.022V577.216C795.022 576.551 794.877 576.061 794.587 575.745C794.303 575.422 793.835 575.261 793.183 575.261C792.235 575.261 791.529 575.69 791.064 576.548V584H788.712V573.529H790.929ZM802.29 570.983V573.529H804.138V575.271H802.29V581.116C802.29 581.516 802.367 581.806 802.522 581.987C802.683 582.161 802.967 582.248 803.374 582.248C803.645 582.248 803.919 582.216 804.196 582.152V583.971C803.661 584.119 803.145 584.194 802.648 584.194C800.841 584.194 799.938 583.197 799.938 581.203V575.271H798.215V573.529H799.938V570.983H802.29ZM810.118 584.194C808.628 584.194 807.418 583.726 806.489 582.79C805.567 581.848 805.105 580.597 805.105 579.035V578.745C805.105 577.7 805.305 576.768 805.705 575.948C806.112 575.122 806.68 574.48 807.409 574.022C808.138 573.564 808.951 573.335 809.847 573.335C811.273 573.335 812.373 573.79 813.148 574.7C813.928 575.609 814.319 576.897 814.319 578.561V579.51H807.476C807.547 580.374 807.834 581.058 808.338 581.561C808.847 582.064 809.486 582.316 810.254 582.316C811.331 582.316 812.209 581.881 812.886 581.01L814.154 582.219C813.735 582.845 813.173 583.332 812.47 583.681C811.773 584.023 810.989 584.194 810.118 584.194ZM809.838 575.222C809.193 575.222 808.67 575.448 808.27 575.9C807.876 576.351 807.625 576.98 807.515 577.787H811.996V577.613C811.944 576.826 811.735 576.232 811.367 575.832C810.999 575.426 810.489 575.222 809.838 575.222ZM818.218 584H815.866V569.135H818.218V584ZM822.853 584H820.502V569.135H822.853V584ZM827.488 584H825.137V573.529H827.488V584ZM824.991 570.809C824.991 570.448 825.104 570.148 825.33 569.909C825.562 569.671 825.891 569.551 826.317 569.551C826.743 569.551 827.072 569.671 827.304 569.909C827.537 570.148 827.653 570.448 827.653 570.809C827.653 571.164 827.537 571.461 827.304 571.7C827.072 571.932 826.743 572.048 826.317 572.048C825.891 572.048 825.562 571.932 825.33 571.7C825.104 571.461 824.991 571.164 824.991 570.809ZM829.21 578.687C829.21 577.061 829.591 575.764 830.352 574.796C831.12 573.822 832.136 573.335 833.401 573.335C834.594 573.335 835.533 573.751 836.217 574.584L836.324 573.529H838.443V583.681C838.443 585.055 838.014 586.139 837.156 586.932C836.304 587.726 835.153 588.123 833.701 588.123C832.933 588.123 832.181 587.961 831.446 587.639C830.717 587.323 830.162 586.907 829.781 586.39L830.894 584.977C831.617 585.836 832.507 586.265 833.565 586.265C834.346 586.265 834.962 586.052 835.414 585.626C835.865 585.206 836.091 584.587 836.091 583.768V583.061C835.414 583.816 834.511 584.194 833.382 584.194C832.156 584.194 831.152 583.706 830.372 582.732C829.598 581.758 829.21 580.41 829.21 578.687ZM831.552 578.89C831.552 579.942 831.765 580.771 832.191 581.377C832.623 581.977 833.22 582.277 833.982 582.277C834.93 582.277 835.633 581.871 836.091 581.058V576.451C835.646 575.658 834.949 575.261 834.001 575.261C833.227 575.261 832.623 575.567 832.191 576.18C831.765 576.793 831.552 577.697 831.552 578.89ZM845.043 584.194C843.552 584.194 842.343 583.726 841.413 582.79C840.491 581.848 840.03 580.597 840.03 579.035V578.745C840.03 577.7 840.23 576.768 840.63 575.948C841.036 575.122 841.604 574.48 842.333 574.022C843.062 573.564 843.875 573.335 844.772 573.335C846.198 573.335 847.298 573.79 848.072 574.7C848.852 575.609 849.243 576.897 849.243 578.561V579.51H842.401C842.472 580.374 842.759 581.058 843.262 581.561C843.772 582.064 844.41 582.316 845.178 582.316C846.256 582.316 847.133 581.881 847.81 581.01L849.078 582.219C848.659 582.845 848.098 583.332 847.394 583.681C846.698 584.023 845.914 584.194 845.043 584.194ZM844.762 575.222C844.117 575.222 843.594 575.448 843.194 575.9C842.801 576.351 842.549 576.98 842.439 577.787H846.92V577.613C846.868 576.826 846.659 576.232 846.291 575.832C845.923 575.426 845.414 575.222 844.762 575.222ZM852.823 573.529L852.891 574.738C853.665 573.803 854.681 573.335 855.939 573.335C858.12 573.335 859.23 574.584 859.268 577.08V584H856.917V577.216C856.917 576.551 856.771 576.061 856.481 575.745C856.197 575.422 855.73 575.261 855.078 575.261C854.129 575.261 853.423 575.69 852.958 576.548V584H850.607V573.529H852.823ZM865.539 582.316C866.126 582.316 866.613 582.145 867 581.803C867.387 581.461 867.594 581.039 867.62 580.535H869.836C869.81 581.187 869.607 581.797 869.226 582.364C868.846 582.926 868.329 583.371 867.678 583.7C867.026 584.029 866.323 584.194 865.568 584.194C864.103 584.194 862.942 583.719 862.084 582.771C861.226 581.823 860.797 580.513 860.797 578.842V578.6C860.797 577.006 861.223 575.732 862.074 574.777C862.926 573.816 864.087 573.335 865.558 573.335C866.804 573.335 867.816 573.7 868.597 574.429C869.384 575.151 869.797 576.103 869.836 577.284H867.62C867.594 576.684 867.387 576.19 867 575.803C866.62 575.416 866.133 575.222 865.539 575.222C864.778 575.222 864.191 575.5 863.778 576.055C863.365 576.603 863.155 577.438 863.149 578.561V578.939C863.149 580.074 863.352 580.922 863.758 581.484C864.171 582.039 864.765 582.316 865.539 582.316ZM875.787 584.194C874.297 584.194 873.087 583.726 872.158 582.79C871.235 581.848 870.774 580.597 870.774 579.035V578.745C870.774 577.7 870.974 576.768 871.374 575.948C871.781 575.122 872.348 574.48 873.077 574.022C873.806 573.564 874.619 573.335 875.516 573.335C876.942 573.335 878.042 573.79 878.816 574.7C879.597 575.609 879.987 576.897 879.987 578.561V579.51H873.145C873.216 580.374 873.503 581.058 874.006 581.561C874.516 582.064 875.155 582.316 875.923 582.316C877 582.316 877.878 581.881 878.555 581.01L879.823 582.219C879.403 582.845 878.842 583.332 878.139 583.681C877.442 584.023 876.658 584.194 875.787 584.194ZM875.507 575.222C874.861 575.222 874.339 575.448 873.939 575.9C873.545 576.351 873.294 576.98 873.184 577.787H877.665V577.613C877.613 576.826 877.403 576.232 877.036 575.832C876.668 575.426 876.158 575.222 875.507 575.222Z" fill="#4098BE"/>
<line y1="-1" x2="94.0053" y2="-1" transform="matrix(0.0106378 -0.999943 -0.999943 -0.0106378 827 526)" stroke="#4098BE" stroke-width="2" stroke-dasharray="2 2"/>
<circle r="3" transform="matrix(1 0 0 -1 828 532)" fill="#4098BE"/>
<path d="M1074.43 565.719H1068.97L1067.82 569H1065.28L1070.6 554.909H1072.8L1078.13 569H1075.58L1074.43 565.719ZM1069.65 563.745H1073.74L1071.7 557.9L1069.65 563.745ZM1080.79 558.529L1080.86 559.738C1081.63 558.803 1082.65 558.335 1083.91 558.335C1086.09 558.335 1087.2 559.584 1087.24 562.08V569H1084.89V562.216C1084.89 561.551 1084.74 561.061 1084.45 560.745C1084.17 560.422 1083.7 560.261 1083.05 560.261C1082.1 560.261 1081.39 560.69 1080.93 561.548V569H1078.58V558.529H1080.79ZM1095.46 569C1095.36 568.8 1095.27 568.474 1095.19 568.023C1094.44 568.803 1093.53 569.194 1092.44 569.194C1091.39 569.194 1090.53 568.894 1089.87 568.294C1089.21 567.694 1088.87 566.952 1088.87 566.068C1088.87 564.951 1089.29 564.097 1090.11 563.503C1090.94 562.903 1092.13 562.603 1093.67 562.603H1095.11V561.916C1095.11 561.374 1094.96 560.942 1094.66 560.619C1094.36 560.29 1093.9 560.126 1093.28 560.126C1092.74 560.126 1092.3 560.261 1091.96 560.532C1091.62 560.797 1091.45 561.135 1091.45 561.548H1089.1C1089.1 560.974 1089.29 560.438 1089.67 559.942C1090.05 559.438 1090.56 559.045 1091.21 558.761C1091.87 558.477 1092.61 558.335 1093.41 558.335C1094.64 558.335 1095.61 558.645 1096.34 559.264C1097.07 559.877 1097.45 560.742 1097.47 561.858V566.581C1097.47 567.523 1097.6 568.274 1097.86 568.835V569H1095.46ZM1092.88 567.306C1093.34 567.306 1093.78 567.193 1094.19 566.968C1094.6 566.742 1094.91 566.439 1095.11 566.058V564.084H1093.85C1092.98 564.084 1092.32 564.235 1091.88 564.539C1091.44 564.842 1091.22 565.271 1091.22 565.826C1091.22 566.277 1091.37 566.639 1091.67 566.91C1091.97 567.174 1092.38 567.306 1092.88 567.306ZM1102 569H1099.64V554.135H1102V569ZM1107.79 565.632L1109.92 558.529H1112.43L1108.27 570.587C1107.63 572.348 1106.54 573.229 1105.01 573.229C1104.67 573.229 1104.29 573.171 1103.88 573.055V571.236L1104.33 571.265C1104.92 571.265 1105.37 571.155 1105.66 570.936C1105.97 570.723 1106.2 570.361 1106.38 569.852L1106.72 568.952L1103.04 558.529H1105.58L1107.79 565.632ZM1116.3 555.983V558.529H1118.15V560.271H1116.3V566.116C1116.3 566.516 1116.38 566.806 1116.53 566.987C1116.69 567.161 1116.98 567.248 1117.38 567.248C1117.65 567.248 1117.93 567.216 1118.2 567.152V568.971C1117.67 569.119 1117.15 569.194 1116.66 569.194C1114.85 569.194 1113.95 568.197 1113.95 566.203V560.271H1112.22V558.529H1113.95V555.983H1116.3ZM1122.02 569H1119.67V558.529H1122.02V569ZM1119.52 555.809C1119.52 555.448 1119.63 555.148 1119.86 554.909C1120.09 554.671 1120.42 554.551 1120.85 554.551C1121.27 554.551 1121.6 554.671 1121.83 554.909C1122.07 555.148 1122.18 555.448 1122.18 555.809C1122.18 556.164 1122.07 556.461 1121.83 556.7C1121.6 556.932 1121.27 557.048 1120.85 557.048C1120.42 557.048 1120.09 556.932 1119.86 556.7C1119.63 556.461 1119.52 556.164 1119.52 555.809ZM1128.45 567.316C1129.04 567.316 1129.53 567.145 1129.91 566.803C1130.3 566.461 1130.51 566.039 1130.53 565.535H1132.75C1132.72 566.187 1132.52 566.797 1132.14 567.364C1131.76 567.926 1131.24 568.371 1130.59 568.7C1129.94 569.029 1129.24 569.194 1128.48 569.194C1127.02 569.194 1125.86 568.719 1125 567.771C1124.14 566.823 1123.71 565.513 1123.71 563.842V563.6C1123.71 562.006 1124.14 560.732 1124.99 559.777C1125.84 558.816 1127 558.335 1128.47 558.335C1129.72 558.335 1130.73 558.7 1131.51 559.429C1132.3 560.151 1132.71 561.103 1132.75 562.284H1130.53C1130.51 561.684 1130.3 561.19 1129.91 560.803C1129.53 560.416 1129.05 560.222 1128.45 560.222C1127.69 560.222 1127.1 560.5 1126.69 561.055C1126.28 561.603 1126.07 562.438 1126.06 563.561V563.939C1126.06 565.074 1126.26 565.922 1126.67 566.484C1127.08 567.039 1127.68 567.316 1128.45 567.316ZM1140.35 569C1140.24 568.8 1140.15 568.474 1140.07 568.023C1139.33 568.803 1138.41 569.194 1137.33 569.194C1136.27 569.194 1135.42 568.894 1134.75 568.294C1134.09 567.694 1133.75 566.952 1133.75 566.068C1133.75 564.951 1134.17 564.097 1134.99 563.503C1135.83 562.903 1137.01 562.603 1138.56 562.603H1140V561.916C1140 561.374 1139.85 560.942 1139.54 560.619C1139.24 560.29 1138.78 560.126 1138.16 560.126C1137.62 560.126 1137.18 560.261 1136.84 560.532C1136.5 560.797 1136.33 561.135 1136.33 561.548H1133.98C1133.98 560.974 1134.17 560.438 1134.55 559.942C1134.93 559.438 1135.45 559.045 1136.1 558.761C1136.76 558.477 1137.49 558.335 1138.29 558.335C1139.52 558.335 1140.5 558.645 1141.23 559.264C1141.96 559.877 1142.33 560.742 1142.35 561.858V566.581C1142.35 567.523 1142.48 568.274 1142.75 568.835V569H1140.35ZM1137.76 567.306C1138.23 567.306 1138.66 567.193 1139.07 566.968C1139.48 566.742 1139.79 566.439 1140 566.058V564.084H1138.73C1137.86 564.084 1137.2 564.235 1136.76 564.539C1136.33 564.842 1136.11 565.271 1136.11 565.826C1136.11 566.277 1136.25 566.639 1136.55 566.91C1136.86 567.174 1137.26 567.306 1137.76 567.306ZM1146.88 569H1144.53V554.135H1146.88V569ZM1161.1 565.371C1161.1 564.751 1160.88 564.274 1160.44 563.939C1160.01 563.603 1159.23 563.264 1158.09 562.922C1156.96 562.58 1156.05 562.2 1155.38 561.78C1154.1 560.974 1153.46 559.922 1153.46 558.625C1153.46 557.49 1153.92 556.554 1154.84 555.819C1155.77 555.083 1156.97 554.716 1158.45 554.716C1159.43 554.716 1160.31 554.896 1161.07 555.258C1161.84 555.619 1162.44 556.135 1162.88 556.806C1163.32 557.471 1163.54 558.209 1163.54 559.022H1161.1C1161.1 558.287 1160.87 557.713 1160.41 557.3C1159.95 556.88 1159.29 556.671 1158.43 556.671C1157.63 556.671 1157.01 556.842 1156.56 557.183C1156.12 557.525 1155.91 558.003 1155.91 558.616C1155.91 559.132 1156.14 559.564 1156.62 559.913C1157.1 560.255 1157.89 560.59 1158.98 560.919C1160.08 561.242 1160.96 561.613 1161.63 562.032C1162.29 562.445 1162.78 562.922 1163.09 563.464C1163.4 564 1163.55 564.629 1163.55 565.351C1163.55 566.526 1163.1 567.461 1162.2 568.158C1161.3 568.848 1160.08 569.194 1158.54 569.194C1157.52 569.194 1156.58 569.006 1155.72 568.632C1154.87 568.252 1154.21 567.729 1153.73 567.064C1153.26 566.4 1153.02 565.626 1153.02 564.742H1155.47C1155.47 565.542 1155.73 566.161 1156.26 566.6C1156.79 567.039 1157.55 567.258 1158.54 567.258C1159.39 567.258 1160.03 567.087 1160.45 566.745C1160.89 566.397 1161.1 565.939 1161.1 565.371ZM1168.44 564.51L1167.39 565.584V569H1165.04V554.135H1167.39V562.709L1168.13 561.79L1171.02 558.529H1173.85L1169.96 562.893L1174.26 569H1171.54L1168.44 564.51ZM1177.46 569H1175.11V558.529H1177.46V569ZM1174.96 555.809C1174.96 555.448 1175.07 555.148 1175.3 554.909C1175.53 554.671 1175.86 554.551 1176.29 554.551C1176.71 554.551 1177.04 554.671 1177.27 554.909C1177.51 555.148 1177.62 555.448 1177.62 555.809C1177.62 556.164 1177.51 556.461 1177.27 556.7C1177.04 556.932 1176.71 557.048 1176.29 557.048C1175.86 557.048 1175.53 556.932 1175.3 556.7C1175.07 556.461 1174.96 556.164 1174.96 555.809ZM1182.09 569H1179.74V554.135H1182.09V569ZM1186.73 569H1184.38V554.135H1186.73V569ZM1194.73 566.155C1194.73 565.735 1194.56 565.416 1194.21 565.197C1193.87 564.977 1193.29 564.784 1192.49 564.616C1191.69 564.448 1191.03 564.235 1190.49 563.977C1189.32 563.409 1188.73 562.587 1188.73 561.509C1188.73 560.606 1189.11 559.851 1189.87 559.245C1190.63 558.638 1191.6 558.335 1192.78 558.335C1194.03 558.335 1195.04 558.645 1195.8 559.264C1196.58 559.884 1196.97 560.687 1196.97 561.674H1194.61C1194.61 561.222 1194.45 560.848 1194.11 560.551C1193.78 560.248 1193.33 560.096 1192.78 560.096C1192.26 560.096 1191.84 560.216 1191.51 560.455C1191.18 560.693 1191.02 561.013 1191.02 561.413C1191.02 561.774 1191.18 562.055 1191.48 562.255C1191.78 562.455 1192.39 562.658 1193.32 562.864C1194.24 563.064 1194.96 563.306 1195.48 563.59C1196.01 563.868 1196.4 564.203 1196.66 564.597C1196.91 564.99 1197.04 565.468 1197.04 566.029C1197.04 566.971 1196.65 567.735 1195.87 568.323C1195.09 568.903 1194.07 569.194 1192.8 569.194C1191.95 569.194 1191.18 569.039 1190.51 568.729C1189.84 568.419 1189.32 567.994 1188.94 567.452C1188.57 566.91 1188.38 566.326 1188.38 565.7H1190.67C1190.7 566.255 1190.91 566.684 1191.29 566.987C1191.68 567.284 1192.19 567.432 1192.83 567.432C1193.45 567.432 1193.92 567.316 1194.25 567.084C1194.57 566.845 1194.73 566.535 1194.73 566.155Z" fill="#ED6859"/>
<line y1="-1" x2="94.0053" y2="-1" transform="matrix(0.0106378 -0.999943 -0.999943 -0.0106378 1127 536)" stroke="#ED6859" stroke-width="2" stroke-dasharray="2 2"/>
<circle r="3" transform="matrix(1 0 0 -1 1128 542)" fill="#ED6859"/>
<circle cx="75.0286" cy="235.215" r="75.0286" fill="#C4C4C4"/>
<circle cx="75.0285" cy="235.215" r="64.4022" fill="#2A5698"/>
<circle cx="381.905" cy="231.029" r="75.0286" fill="#C4C4C4"/>
<circle cx="381.905" cy="231.029" r="64.4022" fill="#4098BE"/>
<circle cx="681.375" cy="231.029" r="75.0286" fill="#C4C4C4"/>
<circle cx="681.375" cy="231.029" r="64.4022" fill="#ED6859"/>
<circle cx="980.845" cy="233.283" r="75.0286" fill="#C4C4C4"/>
<circle cx="980.846" cy="233.283" r="64.4022" fill="#2A5698"/>
<circle cx="531.962" cy="366.595" r="75.0286" fill="#C4C4C4"/>
<circle cx="531.962" cy="366.595" r="64.4022" fill="#2A5698"/>
<circle cx="831.432" cy="366.595" r="75.0286" fill="#C4C4C4"/>
<circle cx="831.432" cy="366.595" r="64.4022" fill="#4098BE"/>
<circle cx="1130.9" cy="366.595" r="75.0286" fill="#C4C4C4"/>
<circle cx="1130.9" cy="366.595" r="64.4022" fill="#ED6859"/>
<path d="M495.243 564.413C495.101 565.916 494.547 567.09 493.579 567.935C492.611 568.774 491.324 569.194 489.717 569.194C488.595 569.194 487.604 568.929 486.746 568.4C485.895 567.865 485.237 567.106 484.772 566.126C484.308 565.145 484.066 564.006 484.046 562.71V561.393C484.046 560.064 484.282 558.893 484.753 557.88C485.224 556.867 485.898 556.087 486.775 555.538C487.659 554.99 488.679 554.716 489.834 554.716C491.388 554.716 492.64 555.138 493.589 555.983C494.537 556.829 495.089 558.022 495.243 559.564H492.805C492.689 558.551 492.392 557.822 491.914 557.377C491.443 556.925 490.75 556.7 489.834 556.7C488.769 556.7 487.95 557.09 487.375 557.871C486.808 558.645 486.517 559.784 486.504 561.287V562.535C486.504 564.058 486.775 565.219 487.317 566.019C487.866 566.819 488.666 567.219 489.717 567.219C490.679 567.219 491.401 567.003 491.885 566.571C492.369 566.139 492.676 565.419 492.805 564.413H495.243ZM496.336 563.668C496.336 562.642 496.54 561.719 496.946 560.9C497.353 560.074 497.924 559.442 498.659 559.003C499.395 558.558 500.24 558.335 501.195 558.335C502.608 558.335 503.753 558.79 504.63 559.7C505.514 560.609 505.992 561.816 506.063 563.319L506.072 563.871C506.072 564.903 505.872 565.826 505.472 566.639C505.079 567.452 504.511 568.081 503.769 568.526C503.033 568.971 502.182 569.194 501.214 569.194C499.737 569.194 498.553 568.703 497.662 567.723C496.778 566.735 496.336 565.423 496.336 563.784V563.668ZM498.688 563.871C498.688 564.948 498.911 565.793 499.356 566.406C499.801 567.013 500.42 567.316 501.214 567.316C502.008 567.316 502.624 567.006 503.063 566.387C503.508 565.768 503.73 564.861 503.73 563.668C503.73 562.61 503.501 561.771 503.043 561.151C502.592 560.532 501.975 560.222 501.195 560.222C500.427 560.222 499.817 560.529 499.366 561.142C498.914 561.748 498.688 562.658 498.688 563.871ZM512.188 563.958H507.107V562.061H512.188V563.958ZM517.994 567.316C518.581 567.316 519.068 567.145 519.455 566.803C519.843 566.461 520.049 566.039 520.075 565.535H522.291C522.265 566.187 522.062 566.797 521.681 567.365C521.301 567.926 520.785 568.371 520.133 568.7C519.481 569.029 518.778 569.194 518.023 569.194C516.559 569.194 515.397 568.719 514.539 567.771C513.681 566.823 513.252 565.513 513.252 563.842V563.6C513.252 562.006 513.678 560.732 514.53 559.777C515.381 558.816 516.543 558.335 518.014 558.335C519.259 558.335 520.272 558.7 521.052 559.429C521.839 560.151 522.252 561.103 522.291 562.284H520.075C520.049 561.684 519.843 561.19 519.455 560.803C519.075 560.416 518.588 560.222 517.994 560.222C517.233 560.222 516.646 560.5 516.233 561.055C515.82 561.603 515.61 562.439 515.604 563.561V563.939C515.604 565.074 515.807 565.923 516.213 566.484C516.626 567.039 517.22 567.316 517.994 567.316ZM529.113 560.677C528.804 560.626 528.484 560.6 528.155 560.6C527.078 560.6 526.352 561.013 525.978 561.839V569H523.626V558.529H525.871L525.929 559.7C526.497 558.79 527.284 558.335 528.291 558.335C528.626 558.335 528.904 558.38 529.123 558.471L529.113 560.677ZM534.581 569.194C533.09 569.194 531.881 568.726 530.952 567.79C530.029 566.848 529.568 565.597 529.568 564.035V563.745C529.568 562.7 529.768 561.768 530.168 560.948C530.574 560.122 531.142 559.48 531.871 559.022C532.6 558.564 533.413 558.335 534.31 558.335C535.736 558.335 536.836 558.79 537.61 559.7C538.391 560.609 538.781 561.897 538.781 563.561V564.51H531.939C532.01 565.374 532.297 566.058 532.8 566.561C533.31 567.064 533.948 567.316 534.716 567.316C535.794 567.316 536.671 566.881 537.349 566.01L538.616 567.219C538.197 567.845 537.636 568.332 536.932 568.681C536.236 569.023 535.452 569.194 534.581 569.194ZM534.3 560.222C533.655 560.222 533.132 560.448 532.732 560.9C532.339 561.351 532.087 561.98 531.977 562.787H536.458V562.613C536.407 561.826 536.197 561.232 535.829 560.832C535.461 560.426 534.952 560.222 534.3 560.222ZM546.435 569C546.332 568.8 546.242 568.474 546.164 568.023C545.416 568.803 544.5 569.194 543.416 569.194C542.364 569.194 541.506 568.894 540.842 568.294C540.177 567.694 539.845 566.952 539.845 566.068C539.845 564.952 540.258 564.097 541.084 563.503C541.916 562.903 543.103 562.603 544.645 562.603H546.087V561.916C546.087 561.374 545.935 560.942 545.632 560.619C545.329 560.29 544.868 560.126 544.248 560.126C543.713 560.126 543.274 560.261 542.932 560.532C542.59 560.797 542.419 561.135 542.419 561.548H540.067C540.067 560.974 540.258 560.438 540.638 559.942C541.019 559.438 541.535 559.045 542.187 558.761C542.845 558.477 543.577 558.335 544.384 558.335C545.61 558.335 546.587 558.645 547.316 559.264C548.045 559.877 548.419 560.742 548.439 561.858V566.581C548.439 567.523 548.571 568.274 548.835 568.836V569H546.435ZM543.851 567.306C544.316 567.306 544.751 567.194 545.158 566.968C545.571 566.742 545.881 566.439 546.087 566.058V564.084H544.819C543.948 564.084 543.293 564.235 542.855 564.539C542.416 564.842 542.197 565.271 542.197 565.826C542.197 566.277 542.345 566.639 542.642 566.91C542.945 567.174 543.348 567.306 543.851 567.306ZM553.412 555.983V558.529H555.261V560.271H553.412V566.116C553.412 566.516 553.49 566.806 553.645 566.987C553.806 567.161 554.09 567.248 554.496 567.248C554.767 567.248 555.042 567.216 555.319 567.152V568.971C554.784 569.119 554.267 569.194 553.771 569.194C551.964 569.194 551.061 568.197 551.061 566.203V560.271H549.338V558.529H551.061V555.983H553.412ZM559.131 569H556.78V558.529H559.131V569ZM556.635 555.809C556.635 555.448 556.748 555.148 556.973 554.909C557.206 554.671 557.535 554.551 557.96 554.551C558.386 554.551 558.715 554.671 558.948 554.909C559.18 555.148 559.296 555.448 559.296 555.809C559.296 556.164 559.18 556.461 558.948 556.7C558.715 556.932 558.386 557.048 557.96 557.048C557.535 557.048 557.206 556.932 556.973 556.7C556.748 556.461 556.635 556.164 556.635 555.809ZM560.825 563.668C560.825 562.642 561.028 561.719 561.434 560.9C561.841 560.074 562.412 559.442 563.147 559.003C563.883 558.558 564.728 558.335 565.683 558.335C567.096 558.335 568.241 558.79 569.118 559.7C570.002 560.609 570.48 561.816 570.551 563.319L570.56 563.871C570.56 564.903 570.36 565.826 569.96 566.639C569.567 567.452 568.999 568.081 568.257 568.526C567.522 568.971 566.67 569.194 565.702 569.194C564.225 569.194 563.041 568.703 562.15 567.723C561.267 566.735 560.825 565.423 560.825 563.784V563.668ZM563.176 563.871C563.176 564.948 563.399 565.793 563.844 566.406C564.289 567.013 564.909 567.316 565.702 567.316C566.496 567.316 567.112 567.006 567.551 566.387C567.996 565.768 568.218 564.861 568.218 563.668C568.218 562.61 567.989 561.771 567.531 561.151C567.08 560.532 566.463 560.222 565.683 560.222C564.915 560.222 564.305 560.529 563.854 561.142C563.402 561.748 563.176 562.658 563.176 563.871ZM574.295 558.529L574.363 559.738C575.137 558.803 576.154 558.335 577.412 558.335C579.592 558.335 580.702 559.584 580.741 562.08V569H578.389V562.216C578.389 561.551 578.244 561.061 577.954 560.745C577.67 560.422 577.202 560.261 576.55 560.261C575.602 560.261 574.895 560.69 574.431 561.548V569H572.079V558.529H574.295Z" fill="#2A5698"/>
<line y1="-1" x2="94.0053" y2="-1" transform="matrix(0.0106378 -0.999943 -0.999943 -0.0106378 528 536)" stroke="#ED6859" stroke-width="2" stroke-dasharray="2 2"/>
<circle r="3" transform="matrix(1 0 0 -1 529 542)" fill="#2A5698"/>
<circle cx="231.848" cy="366.595" r="75.0286" fill="#C4C4C4"/>
<circle cx="231.848" cy="366.595" r="64.4022" fill="#ED6859"/>
<path d="M199.647 301.254C163.358 303.134 149.325 296.11 144.991 257.112L113.992 296.524C153.925 296.811 164.484 305.505 167.016 332.784L199.647 301.254Z" fill="#C4C4C4"/>
<path d="M310.203 249.27C309.259 285.595 301.166 299.04 261.949 300.332L298.835 334.298C302.222 294.508 311.71 284.657 339.103 284.251L310.203 249.27Z" fill="#C4C4C4"/>
<path d="M609.673 249.27C608.729 285.595 600.636 299.04 561.419 300.332L598.305 334.298C601.692 294.508 611.18 284.657 638.574 284.251L609.673 249.27Z" fill="#C4C4C4"/>
<path d="M909.143 251.524C908.2 287.849 900.107 301.294 860.889 302.586L897.775 336.553C901.162 296.762 910.65 286.911 938.044 286.505L909.143 251.524Z" fill="#C4C4C4"/>
<path d="M504.088 303.449C467.762 304.392 453.915 297.008 450.589 257.911L418.584 296.511C458.496 297.827 468.827 306.791 470.655 334.127L504.088 303.449Z" fill="#C4C4C4"/>
<path d="M803.558 303.449C767.232 304.392 753.385 297.008 750.059 257.911L718.054 296.511C757.966 297.827 768.297 306.791 770.125 334.127L803.558 303.449Z" fill="#C4C4C4"/>
<path d="M1103.03 303.449C1066.7 304.392 1052.86 297.008 1049.53 257.911L1017.52 296.511C1057.44 297.827 1067.77 306.791 1069.6 334.127L1103.03 303.449Z" fill="#C4C4C4"/>
<path d="M562.915 351.618C561.879 351.273 560.843 350.947 559.807 350.64C559.98 349.93 560.134 349.22 560.287 348.51C562.646 337.078 561.093 327.89 555.856 324.859C550.811 321.962 542.582 324.974 534.257 332.225C533.432 332.934 532.626 333.683 531.859 334.431C531.341 333.932 530.804 333.433 530.267 332.954C521.539 325.204 512.792 321.943 507.555 324.993C502.529 327.909 501.033 336.56 503.143 347.379C503.354 348.453 503.584 349.508 503.853 350.582C502.625 350.927 501.417 351.311 500.285 351.714C490.041 355.263 482.695 360.864 482.695 366.657C482.695 372.642 490.521 378.646 501.167 382.291C502.03 382.578 502.894 382.866 503.776 383.115C503.488 384.266 503.239 385.398 503.009 386.568C500.994 397.214 502.567 405.655 507.593 408.551C512.772 411.544 521.481 408.474 529.96 401.051C530.631 400.456 531.303 399.842 531.974 399.19C532.818 400.015 533.7 400.801 534.583 401.569C542.793 408.628 550.907 411.486 555.913 408.589C561.093 405.597 562.781 396.524 560.594 385.475C560.421 384.631 560.229 383.768 560.018 382.885C560.632 382.713 561.227 382.521 561.822 382.329C572.89 378.665 580.908 372.738 580.908 366.657C580.908 360.845 573.35 355.205 562.915 351.618ZM536.961 335.332C544.097 329.117 550.753 326.681 553.784 328.427C557.026 330.287 558.273 337.807 556.24 347.686C556.105 348.338 555.971 348.971 555.798 349.604C551.54 348.645 547.224 347.954 542.889 347.571C540.395 344.003 537.671 340.588 534.717 337.385C535.465 336.675 536.194 336.004 536.961 335.332ZM514.767 376.613C515.746 378.281 516.743 379.95 517.798 381.581C514.806 381.255 511.832 380.775 508.898 380.142C509.742 377.38 510.797 374.522 512.024 371.606C512.907 373.294 513.808 374.963 514.767 376.613ZM508.955 353.536C511.717 352.922 514.652 352.424 517.702 352.04C516.686 353.632 515.688 355.263 514.748 356.912C513.808 358.543 512.888 360.212 512.024 361.9C510.816 359.042 509.799 356.241 508.955 353.536ZM514.211 366.753C515.477 364.106 516.858 361.516 518.316 358.965C519.774 356.414 521.347 353.939 522.997 351.503C525.874 351.292 528.809 351.177 531.801 351.177C534.794 351.177 537.748 351.292 540.606 351.503C542.236 353.92 543.79 356.394 545.267 358.926C546.744 361.459 548.125 364.048 549.43 366.676C548.145 369.323 546.763 371.932 545.286 374.503C543.829 377.054 542.275 379.528 540.644 381.984C537.786 382.195 534.813 382.291 531.801 382.291C528.79 382.291 525.874 382.195 523.054 382.022C521.385 379.586 519.812 377.092 518.335 374.541C516.858 371.99 515.496 369.4 514.211 366.753ZM548.854 376.574C549.833 374.886 550.753 373.179 551.655 371.453C552.883 374.234 553.957 377.054 554.897 379.95C551.923 380.622 548.912 381.14 545.881 381.485C546.917 379.874 547.895 378.224 548.854 376.574ZM551.617 361.9C550.715 360.212 549.794 358.524 548.835 356.874C547.895 355.243 546.917 353.632 545.9 352.04C548.989 352.424 551.943 352.942 554.705 353.575C553.823 356.414 552.787 359.176 551.617 361.9ZM531.84 340.32C533.854 342.506 535.753 344.808 537.518 347.187C533.719 347.014 529.902 347.014 526.104 347.187C527.984 344.712 529.921 342.411 531.84 340.32ZM509.588 328.561C512.811 326.681 519.966 329.367 527.504 336.042C527.984 336.464 528.464 336.924 528.962 337.385C525.989 340.588 523.246 344.003 520.733 347.571C516.398 347.954 512.101 348.626 507.843 349.566C507.593 348.587 507.382 347.59 507.171 346.592C505.368 337.308 506.557 330.306 509.588 328.561ZM504.888 379.125C504.083 378.895 503.296 378.646 502.51 378.377C498.424 377.092 493.782 375.059 490.425 372.392C488.488 371.05 487.183 368.978 486.819 366.657C486.819 363.147 492.88 358.658 501.628 355.608C502.721 355.224 503.833 354.879 504.946 354.553C506.25 358.715 507.823 362.801 509.646 366.753C507.804 370.762 506.212 374.905 504.888 379.125ZM527.255 397.924C524.09 400.821 520.426 403.122 516.436 404.695C514.307 405.712 511.852 405.808 509.665 404.945C506.615 403.18 505.349 396.409 507.075 387.297C507.286 386.223 507.516 385.149 507.785 384.094C512.082 385.014 516.417 385.647 520.81 385.974C523.342 389.561 526.123 392.994 529.097 396.217C528.483 396.812 527.869 397.387 527.255 397.924ZM531.955 393.263C529.998 391.153 528.042 388.812 526.142 386.3C527.984 386.376 529.883 386.415 531.801 386.415C533.777 386.415 535.714 386.376 537.633 386.28C535.868 388.717 533.969 391.038 531.955 393.263ZM557.026 399.017C556.853 401.358 555.702 403.545 553.861 405.022C550.811 406.786 544.308 404.484 537.287 398.461C536.482 397.771 535.676 397.023 534.851 396.255C537.786 393.013 540.491 389.58 542.946 385.974C547.339 385.609 551.712 384.938 556.028 383.959C556.22 384.746 556.393 385.532 556.546 386.3C557.486 390.443 557.64 394.759 557.026 399.017ZM560.517 378.397C559.98 378.569 559.443 378.742 558.887 378.895C557.544 374.714 555.894 370.628 553.995 366.657C555.837 362.744 557.39 358.715 558.695 354.591C559.692 354.879 560.651 355.186 561.572 355.493C570.511 358.562 576.784 363.127 576.784 366.619C576.784 370.378 570.089 375.231 560.517 378.397ZM531.801 375.519C536.654 375.519 540.587 371.587 540.587 366.734C540.587 361.881 536.654 357.948 531.801 357.948C526.948 357.948 523.016 361.881 523.016 366.734C523.016 371.587 526.948 375.519 531.801 375.519Z" fill="white"/>
<path d="M114.214 216.566L107.097 222.742C106.372 223.372 105.198 223.372 104.473 222.742L87.3369 207.872C86.6113 207.242 86.6113 206.224 87.3369 205.594L94.4537 199.418C97.3405 196.913 102.034 196.913 104.936 199.418L114.214 207.47C117.116 209.975 117.116 214.047 114.214 216.566ZM81.2235 210.899L40.6842 246.079L37.4114 262.356C36.9637 264.553 39.1713 266.455 41.703 266.08L60.4598 263.227L100.999 228.047C101.725 227.417 101.725 226.399 100.999 225.77L83.8634 210.899C83.1224 210.27 81.9491 210.27 81.2235 210.899ZM56.5078 243.065C55.6587 242.328 55.6587 241.149 56.5078 240.412L80.2819 219.781C81.1309 219.044 82.4894 219.044 83.3385 219.781C84.1876 220.518 84.1876 221.697 83.3385 222.434L59.5645 243.065C58.7154 243.802 57.3569 243.802 56.5078 243.065ZM50.9348 254.331H58.3449V259.194L48.3876 260.708L43.5864 256.542L45.3309 247.901H50.9348V254.331Z" fill="white"/>
<path d="M217.917 401.288C217.919 402.281 218.241 403.253 218.847 404.08L221.811 408.136C222.317 408.829 223.004 409.398 223.81 409.791C224.616 410.184 225.516 410.39 226.431 410.39H237.134C238.048 410.39 238.949 410.184 239.755 409.791C240.561 409.398 241.247 408.829 241.754 408.136L244.718 404.08C245.323 403.253 245.646 402.282 245.647 401.288L245.654 395.234H217.908L217.917 401.288ZM201.257 357.347C201.257 364.352 204.11 370.742 208.812 375.624C211.677 378.6 216.158 384.817 217.867 390.061C217.874 390.102 217.879 390.143 217.886 390.184H245.677C245.684 390.143 245.689 390.103 245.696 390.061C247.404 384.817 251.886 378.6 254.751 375.624C259.453 370.742 262.306 364.352 262.306 357.347C262.306 341.973 248.589 329.516 231.686 329.564C213.994 329.613 201.257 342.661 201.257 357.347ZM231.781 344.718C224.131 344.718 217.907 350.384 217.907 357.347C217.907 358.743 216.665 359.873 215.132 359.873C213.598 359.873 212.357 358.743 212.357 357.347C212.357 347.598 221.07 339.667 231.781 339.667C233.314 339.667 234.556 340.797 234.556 342.193C234.556 343.588 233.314 344.718 231.781 344.718Z" fill="white"/>
<path d="M417.487 248.035V193.092C417.487 190.917 415.738 189.167 413.563 189.167H359.928C351.261 189.167 344.23 196.199 344.23 204.865V257.192C344.23 265.859 351.261 272.89 359.928 272.89H413.563C415.738 272.89 417.487 271.14 417.487 268.966V266.349C417.487 265.123 416.915 264.011 416.032 263.291C415.345 260.773 415.345 253.595 416.032 251.076C416.915 250.373 417.487 249.261 417.487 248.035ZM365.16 211.079C365.16 210.539 365.602 210.098 366.142 210.098H400.808C401.348 210.098 401.789 210.539 401.789 211.079V214.349C401.789 214.889 401.348 215.331 400.808 215.331H366.142C365.602 215.331 365.16 214.889 365.16 214.349V211.079ZM365.16 221.544C365.16 221.005 365.602 220.563 366.142 220.563H400.808C401.348 220.563 401.789 221.005 401.789 221.544V224.815C401.789 225.354 401.348 225.796 400.808 225.796H366.142C365.602 225.796 365.16 225.354 365.16 224.815V221.544ZM406.597 262.425H359.928C357.033 262.425 354.695 260.086 354.695 257.192C354.695 254.314 357.05 251.959 359.928 251.959H406.597C406.286 254.756 406.286 259.628 406.597 262.425Z" fill="white"/>
<path d="M650.281 226.42C655.188 226.42 659.177 222.431 659.177 217.524C659.177 212.618 655.188 208.629 650.281 208.629C645.375 208.629 641.386 212.618 641.386 217.524C641.386 222.431 645.375 226.42 650.281 226.42ZM712.55 226.42C717.456 226.42 721.446 222.431 721.446 217.524C721.446 212.618 717.456 208.629 712.55 208.629C707.643 208.629 703.654 212.618 703.654 217.524C703.654 222.431 707.643 226.42 712.55 226.42ZM716.998 230.868H708.102C705.656 230.868 703.446 231.854 701.834 233.453C707.435 236.525 711.41 242.07 712.272 248.659H721.446C723.906 248.659 725.893 246.671 725.893 244.211V239.763C725.893 234.857 721.904 230.868 716.998 230.868ZM681.416 230.868C690.019 230.868 696.983 223.904 696.983 215.3C696.983 206.697 690.019 199.733 681.416 199.733C672.812 199.733 665.848 206.697 665.848 215.3C665.848 223.904 672.812 230.868 681.416 230.868ZM692.09 235.315H690.937C688.045 236.705 684.835 237.539 681.416 237.539C677.996 237.539 674.799 236.705 671.894 235.315H670.741C661.901 235.315 654.729 242.487 654.729 251.327V255.33C654.729 259.014 657.717 262.002 661.401 262.002H701.431C705.114 262.002 708.102 259.014 708.102 255.33V251.327C708.102 242.487 700.93 235.315 692.09 235.315ZM660.997 233.453C659.385 231.854 657.175 230.868 654.729 230.868H645.833C640.927 230.868 636.938 234.857 636.938 239.763V244.211C636.938 246.671 638.925 248.659 641.386 248.659H650.545C651.421 242.07 655.396 236.525 660.997 233.453Z" fill="white"/>
<path d="M817.868 323.446C812.828 323.446 808.648 326.901 807.451 331.57C807.316 331.57 807.215 331.536 807.08 331.536C801.131 331.536 796.293 336.374 796.293 342.324C796.293 343.133 796.394 343.925 796.58 344.683C791.658 346.706 788.203 351.527 788.203 357.156C788.203 359.28 788.742 361.252 789.602 363.039C785.556 365.365 782.809 369.68 782.809 374.686C782.809 380.298 786.247 385.119 791.135 387.142C790.984 387.917 790.899 388.709 790.899 389.518C790.899 396.227 796.327 401.654 803.035 401.654C803.726 401.654 804.4 401.57 805.058 401.452C806.676 406.256 811.159 409.745 816.519 409.745C823.228 409.745 828.655 404.317 828.655 397.609V334.233C828.655 328.283 823.818 323.446 817.868 323.446ZM879.895 374.686C879.895 369.68 877.148 365.365 873.102 363.039C873.979 361.252 874.501 359.28 874.501 357.156C874.501 351.527 871.046 346.706 866.124 344.683C866.293 343.925 866.411 343.133 866.411 342.324C866.411 336.374 861.573 331.536 855.624 331.536C855.489 331.536 855.371 331.57 855.253 331.57C854.056 326.901 849.876 323.446 844.836 323.446C838.886 323.446 834.049 328.266 834.049 334.233V397.609C834.049 404.317 839.476 409.745 846.185 409.745C851.545 409.745 856.028 406.256 857.646 401.452C858.304 401.57 858.978 401.654 859.669 401.654C866.377 401.654 871.805 396.227 871.805 389.518C871.805 388.709 871.72 387.917 871.569 387.142C876.457 385.119 879.895 380.298 879.895 374.686Z" fill="white"/>
<path d="M980.906 185.243C954.373 185.243 932.866 206.75 932.866 233.283C932.866 259.815 954.373 281.323 980.906 281.323C1007.44 281.323 1028.95 259.815 1028.95 233.283C1028.95 206.75 1007.44 185.243 980.906 185.243ZM980.906 268.925C961.208 268.925 945.263 252.985 945.263 233.283C945.263 213.584 961.204 197.64 980.906 197.64C1000.6 197.64 1016.55 213.58 1016.55 233.283C1016.55 252.981 1000.61 268.925 980.906 268.925ZM980.906 208.488C967.213 208.488 956.111 219.589 956.111 233.283C956.111 246.976 967.213 258.077 980.906 258.077C994.599 258.077 1005.7 246.976 1005.7 233.283C1005.7 219.589 994.599 208.488 980.906 208.488ZM980.906 245.68C974.07 245.68 968.508 240.119 968.508 233.283C968.508 226.447 974.07 220.885 980.906 220.885C987.742 220.885 993.303 226.447 993.303 233.283C993.303 240.119 987.742 245.68 980.906 245.68Z" fill="white"/>
<path d="M1152.03 372.472H1136.46C1133.6 372.472 1131.26 370.135 1131.26 367.28C1131.26 364.424 1133.6 362.087 1136.46 362.087H1152.03C1152.03 362.087 1167.61 344.725 1167.61 336.125C1167.61 327.525 1160.63 320.548 1152.03 320.548C1143.43 320.548 1136.46 327.525 1136.46 336.125C1136.46 340.263 1140.06 346.412 1143.81 351.702H1136.46C1127.87 351.702 1120.88 358.696 1120.88 367.28C1120.88 375.863 1127.87 382.857 1136.46 382.857H1152.03C1154.89 382.857 1157.23 385.193 1157.23 388.049C1157.23 390.905 1154.89 393.242 1152.03 393.242H1114.63C1112.04 397.266 1109.15 400.982 1106.96 403.627H1152.03C1160.62 403.627 1167.61 396.633 1167.61 388.049C1167.61 379.465 1160.62 372.472 1152.03 372.472ZM1152.03 330.933C1154.91 330.933 1157.23 333.253 1157.23 336.125C1157.23 338.997 1154.91 341.317 1152.03 341.317C1149.16 341.317 1146.84 338.997 1146.84 336.125C1146.84 333.253 1149.16 330.933 1152.03 330.933ZM1100.11 362.087C1091.51 362.087 1084.53 369.064 1084.53 377.664C1084.53 386.264 1100.11 403.627 1100.11 403.627C1100.11 403.627 1115.69 386.264 1115.69 377.664C1115.69 369.064 1108.71 362.087 1100.11 362.087ZM1100.11 382.857C1097.24 382.857 1094.92 380.536 1094.92 377.664C1094.92 374.792 1097.24 372.472 1100.11 372.472C1102.98 372.472 1105.3 374.792 1105.3 377.664C1105.3 380.536 1102.98 382.857 1100.11 382.857Z" fill="white"/>
</svg>
